G04 #@! TF.GenerationSoftware,KiCad,Pcbnew,5.1.2-f72e74a~84~ubuntu19.04.1*
G04 #@! TF.CreationDate,2019-06-02T16:59:08+01:00*
G04 #@! TF.ProjectId,Power Monitor MK3,506f7765-7220-44d6-9f6e-69746f72204d,rev?*
G04 #@! TF.SameCoordinates,Original*
G04 #@! TF.FileFunction,Copper,L2,Bot*
G04 #@! TF.FilePolarity,Positive*
%FSLAX46Y46*%
G04 Gerber Fmt 4.6, Leading zero omitted, Abs format (unit mm)*
G04 Created by KiCad (PCBNEW 5.1.2-f72e74a~84~ubuntu19.04.1) date 2019-06-02 16:59:08*
%MOMM*%
%LPD*%
G04 APERTURE LIST*
%ADD10R,3.000000X3.000000*%
%ADD11C,3.000000*%
%ADD12R,1.700000X1.700000*%
%ADD13O,1.700000X1.700000*%
%ADD14O,1.200000X1.750000*%
%ADD15C,0.100000*%
%ADD16C,1.200000*%
%ADD17C,2.000000*%
%ADD18C,0.800000*%
%ADD19C,0.250000*%
%ADD20C,0.254000*%
%ADD21C,0.200000*%
G04 APERTURE END LIST*
D10*
X78100000Y-120400000D03*
D11*
X90600000Y-112900000D03*
X90600000Y-96600000D03*
D10*
X78100000Y-104100000D03*
D12*
X179000000Y-120000000D03*
D13*
X179000000Y-117460000D03*
D14*
X172900000Y-119100000D03*
X170900000Y-119100000D03*
X168900000Y-119100000D03*
X166900000Y-119100000D03*
X164900000Y-119100000D03*
D15*
G36*
X163274505Y-118226204D02*
G01*
X163298773Y-118229804D01*
X163322572Y-118235765D01*
X163345671Y-118244030D01*
X163367850Y-118254520D01*
X163388893Y-118267132D01*
X163408599Y-118281747D01*
X163426777Y-118298223D01*
X163443253Y-118316401D01*
X163457868Y-118336107D01*
X163470480Y-118357150D01*
X163480970Y-118379329D01*
X163489235Y-118402428D01*
X163495196Y-118426227D01*
X163498796Y-118450495D01*
X163500000Y-118474999D01*
X163500000Y-119725001D01*
X163498796Y-119749505D01*
X163495196Y-119773773D01*
X163489235Y-119797572D01*
X163480970Y-119820671D01*
X163470480Y-119842850D01*
X163457868Y-119863893D01*
X163443253Y-119883599D01*
X163426777Y-119901777D01*
X163408599Y-119918253D01*
X163388893Y-119932868D01*
X163367850Y-119945480D01*
X163345671Y-119955970D01*
X163322572Y-119964235D01*
X163298773Y-119970196D01*
X163274505Y-119973796D01*
X163250001Y-119975000D01*
X162549999Y-119975000D01*
X162525495Y-119973796D01*
X162501227Y-119970196D01*
X162477428Y-119964235D01*
X162454329Y-119955970D01*
X162432150Y-119945480D01*
X162411107Y-119932868D01*
X162391401Y-119918253D01*
X162373223Y-119901777D01*
X162356747Y-119883599D01*
X162342132Y-119863893D01*
X162329520Y-119842850D01*
X162319030Y-119820671D01*
X162310765Y-119797572D01*
X162304804Y-119773773D01*
X162301204Y-119749505D01*
X162300000Y-119725001D01*
X162300000Y-118474999D01*
X162301204Y-118450495D01*
X162304804Y-118426227D01*
X162310765Y-118402428D01*
X162319030Y-118379329D01*
X162329520Y-118357150D01*
X162342132Y-118336107D01*
X162356747Y-118316401D01*
X162373223Y-118298223D01*
X162391401Y-118281747D01*
X162411107Y-118267132D01*
X162432150Y-118254520D01*
X162454329Y-118244030D01*
X162477428Y-118235765D01*
X162501227Y-118229804D01*
X162525495Y-118226204D01*
X162549999Y-118225000D01*
X163250001Y-118225000D01*
X163274505Y-118226204D01*
X163274505Y-118226204D01*
G37*
D16*
X162900000Y-119100000D03*
D15*
G36*
X155774505Y-124726204D02*
G01*
X155798773Y-124729804D01*
X155822572Y-124735765D01*
X155845671Y-124744030D01*
X155867850Y-124754520D01*
X155888893Y-124767132D01*
X155908599Y-124781747D01*
X155926777Y-124798223D01*
X155943253Y-124816401D01*
X155957868Y-124836107D01*
X155970480Y-124857150D01*
X155980970Y-124879329D01*
X155989235Y-124902428D01*
X155995196Y-124926227D01*
X155998796Y-124950495D01*
X156000000Y-124974999D01*
X156000000Y-126225001D01*
X155998796Y-126249505D01*
X155995196Y-126273773D01*
X155989235Y-126297572D01*
X155980970Y-126320671D01*
X155970480Y-126342850D01*
X155957868Y-126363893D01*
X155943253Y-126383599D01*
X155926777Y-126401777D01*
X155908599Y-126418253D01*
X155888893Y-126432868D01*
X155867850Y-126445480D01*
X155845671Y-126455970D01*
X155822572Y-126464235D01*
X155798773Y-126470196D01*
X155774505Y-126473796D01*
X155750001Y-126475000D01*
X155049999Y-126475000D01*
X155025495Y-126473796D01*
X155001227Y-126470196D01*
X154977428Y-126464235D01*
X154954329Y-126455970D01*
X154932150Y-126445480D01*
X154911107Y-126432868D01*
X154891401Y-126418253D01*
X154873223Y-126401777D01*
X154856747Y-126383599D01*
X154842132Y-126363893D01*
X154829520Y-126342850D01*
X154819030Y-126320671D01*
X154810765Y-126297572D01*
X154804804Y-126273773D01*
X154801204Y-126249505D01*
X154800000Y-126225001D01*
X154800000Y-124974999D01*
X154801204Y-124950495D01*
X154804804Y-124926227D01*
X154810765Y-124902428D01*
X154819030Y-124879329D01*
X154829520Y-124857150D01*
X154842132Y-124836107D01*
X154856747Y-124816401D01*
X154873223Y-124798223D01*
X154891401Y-124781747D01*
X154911107Y-124767132D01*
X154932150Y-124754520D01*
X154954329Y-124744030D01*
X154977428Y-124735765D01*
X155001227Y-124729804D01*
X155025495Y-124726204D01*
X155049999Y-124725000D01*
X155750001Y-124725000D01*
X155774505Y-124726204D01*
X155774505Y-124726204D01*
G37*
D16*
X155400000Y-125600000D03*
D14*
X157400000Y-125600000D03*
X159400000Y-125600000D03*
X161400000Y-125600000D03*
X163400000Y-125600000D03*
X165400000Y-125600000D03*
D17*
X183000000Y-121500000D03*
X183000000Y-117000000D03*
X189500000Y-121500000D03*
X189500000Y-117000000D03*
X189500000Y-108000000D03*
X189500000Y-112500000D03*
X183000000Y-108000000D03*
X183000000Y-112500000D03*
D15*
G36*
X180774505Y-125126204D02*
G01*
X180798773Y-125129804D01*
X180822572Y-125135765D01*
X180845671Y-125144030D01*
X180867850Y-125154520D01*
X180888893Y-125167132D01*
X180908599Y-125181747D01*
X180926777Y-125198223D01*
X180943253Y-125216401D01*
X180957868Y-125236107D01*
X180970480Y-125257150D01*
X180980970Y-125279329D01*
X180989235Y-125302428D01*
X180995196Y-125326227D01*
X180998796Y-125350495D01*
X181000000Y-125374999D01*
X181000000Y-126625001D01*
X180998796Y-126649505D01*
X180995196Y-126673773D01*
X180989235Y-126697572D01*
X180980970Y-126720671D01*
X180970480Y-126742850D01*
X180957868Y-126763893D01*
X180943253Y-126783599D01*
X180926777Y-126801777D01*
X180908599Y-126818253D01*
X180888893Y-126832868D01*
X180867850Y-126845480D01*
X180845671Y-126855970D01*
X180822572Y-126864235D01*
X180798773Y-126870196D01*
X180774505Y-126873796D01*
X180750001Y-126875000D01*
X180049999Y-126875000D01*
X180025495Y-126873796D01*
X180001227Y-126870196D01*
X179977428Y-126864235D01*
X179954329Y-126855970D01*
X179932150Y-126845480D01*
X179911107Y-126832868D01*
X179891401Y-126818253D01*
X179873223Y-126801777D01*
X179856747Y-126783599D01*
X179842132Y-126763893D01*
X179829520Y-126742850D01*
X179819030Y-126720671D01*
X179810765Y-126697572D01*
X179804804Y-126673773D01*
X179801204Y-126649505D01*
X179800000Y-126625001D01*
X179800000Y-125374999D01*
X179801204Y-125350495D01*
X179804804Y-125326227D01*
X179810765Y-125302428D01*
X179819030Y-125279329D01*
X179829520Y-125257150D01*
X179842132Y-125236107D01*
X179856747Y-125216401D01*
X179873223Y-125198223D01*
X179891401Y-125181747D01*
X179911107Y-125167132D01*
X179932150Y-125154520D01*
X179954329Y-125144030D01*
X179977428Y-125135765D01*
X180001227Y-125129804D01*
X180025495Y-125126204D01*
X180049999Y-125125000D01*
X180750001Y-125125000D01*
X180774505Y-125126204D01*
X180774505Y-125126204D01*
G37*
D16*
X180400000Y-126000000D03*
D14*
X178400000Y-126000000D03*
X176400000Y-126000000D03*
X174400000Y-126000000D03*
X172400000Y-126000000D03*
X170400000Y-126000000D03*
D17*
X195000000Y-97000000D03*
X195000000Y-93000000D03*
X195000000Y-101000000D03*
X195000000Y-105000000D03*
X154600000Y-96500000D03*
X146000000Y-101400000D03*
X146500000Y-122900000D03*
X138400000Y-122900000D03*
X140900000Y-122900000D03*
X144000000Y-122900000D03*
D18*
X132100000Y-103900000D03*
X186800000Y-123400000D03*
X165000000Y-97500000D03*
X140000000Y-111000000D03*
X134000000Y-129000000D03*
X135000000Y-127000000D03*
X136000000Y-129000000D03*
X140000000Y-127000000D03*
X136000000Y-122000000D03*
X143000000Y-127000000D03*
X146000000Y-127000000D03*
X149000000Y-127000000D03*
X152000000Y-126000000D03*
X156000000Y-121000000D03*
X157000000Y-119000000D03*
X158000000Y-121000000D03*
X159000000Y-119000000D03*
X153000000Y-117000000D03*
X150000000Y-110000000D03*
X145000000Y-113000000D03*
X142000000Y-109000000D03*
X137000000Y-111000000D03*
X149000000Y-105000000D03*
X152000000Y-105000000D03*
X155000000Y-105000000D03*
X157000000Y-103000000D03*
X154000000Y-103000000D03*
X151000000Y-103000000D03*
X156000000Y-101000000D03*
X142000000Y-102000000D03*
X145000000Y-93000000D03*
X161600000Y-109200000D03*
X169000000Y-105000000D03*
X166000000Y-112000000D03*
X165000000Y-115000000D03*
X169000000Y-115000000D03*
X172000000Y-115000000D03*
X173000000Y-110000000D03*
X173000000Y-105000000D03*
X174000000Y-99000000D03*
X173000000Y-95000000D03*
X168000000Y-94000000D03*
X162000000Y-96000000D03*
X162000000Y-99000000D03*
X178500000Y-96000000D03*
X178500000Y-94000000D03*
X181500000Y-95000000D03*
X178500000Y-100000000D03*
X181500000Y-99500000D03*
X184000000Y-102000000D03*
X187500000Y-100500000D03*
X188500000Y-97500000D03*
X180500000Y-106000000D03*
X190000000Y-106000000D03*
X192000000Y-109000000D03*
X195000000Y-111000000D03*
X192000000Y-113000000D03*
X195000000Y-115000000D03*
X192000000Y-117000000D03*
X195000000Y-119000000D03*
X192000000Y-121000000D03*
X195000000Y-123000000D03*
X195000000Y-127000000D03*
X193000000Y-125000000D03*
X136000000Y-99000000D03*
X134000000Y-92000000D03*
X137000000Y-92000000D03*
X151000000Y-92000000D03*
X144000000Y-103000000D03*
X143000000Y-100000000D03*
X156000000Y-111000000D03*
X155000000Y-113500000D03*
X131600000Y-118100000D03*
X147200000Y-109200000D03*
X186100000Y-94500000D03*
X161200000Y-93000000D03*
X118587500Y-114487500D03*
X119037500Y-120350000D03*
X113050000Y-103550000D03*
X121150000Y-104600000D03*
X163400000Y-94600000D03*
X170600000Y-96000000D03*
X168300000Y-110500000D03*
X101000000Y-102000000D03*
X104000000Y-102000000D03*
X105200000Y-108500000D03*
X110900000Y-106200000D03*
X111100000Y-111800000D03*
X108000000Y-108900000D03*
X116200000Y-106300000D03*
X113100000Y-113300000D03*
X116000000Y-123000000D03*
X119000000Y-123000000D03*
X121000000Y-127000000D03*
X123000000Y-125000000D03*
X124000000Y-127000000D03*
X104000000Y-122000000D03*
X102000000Y-124000000D03*
X105000000Y-124000000D03*
X108000000Y-124000000D03*
X110000000Y-122000000D03*
X111000000Y-124000000D03*
X103000000Y-126000000D03*
X100000000Y-126000000D03*
X109000000Y-126000000D03*
X109000000Y-117000000D03*
X97000000Y-123000000D03*
X99000000Y-121000000D03*
X101000000Y-119000000D03*
X103000000Y-117000000D03*
X105000000Y-115000000D03*
X102000000Y-115000000D03*
X100000000Y-117000000D03*
X97000000Y-117000000D03*
X98000000Y-119000000D03*
X96000000Y-121000000D03*
X103000000Y-110000000D03*
X101000000Y-109000000D03*
X98000000Y-109000000D03*
X101000000Y-107000000D03*
X97000000Y-100000000D03*
X99000000Y-99000000D03*
X108000000Y-100000000D03*
X109000000Y-98000000D03*
X119000000Y-100000000D03*
X122000000Y-99000000D03*
X120000000Y-98000000D03*
X118000000Y-96000000D03*
X114000000Y-96000000D03*
X112000000Y-95000000D03*
X110000000Y-96000000D03*
X108000000Y-95000000D03*
X106000000Y-96000000D03*
X104000000Y-95000000D03*
X102000000Y-96000000D03*
X100000000Y-95000000D03*
X98000000Y-96000000D03*
X96000000Y-95000000D03*
X98000000Y-93000000D03*
X102000000Y-93000000D03*
X106000000Y-93000000D03*
X110000000Y-93000000D03*
X122000000Y-93000000D03*
X120000000Y-92000000D03*
X116000000Y-92000000D03*
X112000000Y-92000000D03*
X108000000Y-92000000D03*
X104000000Y-92000000D03*
X100000000Y-92000000D03*
X96000000Y-92000000D03*
X119000000Y-102000000D03*
X116000000Y-102000000D03*
X124000000Y-105000000D03*
X107000000Y-119000000D03*
X110000000Y-119000000D03*
X116000000Y-104400000D03*
X120500000Y-120500000D03*
X94000000Y-92000000D03*
X92000000Y-92000000D03*
X90000000Y-92000000D03*
X88000000Y-92000000D03*
X86000000Y-92000000D03*
X85000000Y-94000000D03*
X85000000Y-96000000D03*
X85000000Y-98000000D03*
X85000000Y-100000000D03*
X85000000Y-102000000D03*
X85000000Y-104000000D03*
X85000000Y-106000000D03*
X85000000Y-108000000D03*
X85000000Y-110000000D03*
X85000000Y-112000000D03*
X85000000Y-114000000D03*
X85000000Y-116000000D03*
X85000000Y-118000000D03*
X85000000Y-120000000D03*
X85000000Y-122000000D03*
X87000000Y-122000000D03*
X89000000Y-122000000D03*
X91000000Y-122000000D03*
X93000000Y-122000000D03*
X95000000Y-122000000D03*
X85500000Y-129500000D03*
X87500000Y-129500000D03*
X89500000Y-129500000D03*
X91500000Y-129500000D03*
X93500000Y-129500000D03*
X95500000Y-129500000D03*
X95500000Y-127500000D03*
X97500000Y-129500000D03*
X99500000Y-129500000D03*
X101500000Y-129500000D03*
X103500000Y-129500000D03*
X105500000Y-129500000D03*
X107500000Y-129500000D03*
X109500000Y-129500000D03*
X111500000Y-129500000D03*
X113500000Y-129500000D03*
X115500000Y-129500000D03*
X117500000Y-129500000D03*
X119500000Y-129500000D03*
X121500000Y-129500000D03*
X123500000Y-129500000D03*
X124500000Y-124000000D03*
X88800000Y-124800000D03*
X88800000Y-126300000D03*
X121700000Y-114000000D03*
X121800000Y-111100000D03*
X174800000Y-108400000D03*
X146700000Y-116000000D03*
X178500000Y-110200000D03*
X185750000Y-97850000D03*
X141300000Y-116100000D03*
X156300000Y-108800000D03*
X183800000Y-98100000D03*
X163200000Y-105000000D03*
X144400000Y-116000000D03*
X157200000Y-108200000D03*
X180500000Y-96800000D03*
X162200000Y-104400000D03*
X138900000Y-116100000D03*
X148700000Y-114600000D03*
X186200000Y-95800000D03*
X161300000Y-103300000D03*
X187400000Y-104400000D03*
X191000000Y-95200000D03*
X186100000Y-105300000D03*
X189500000Y-95200000D03*
X164100000Y-103700000D03*
X174600000Y-100600000D03*
X166000000Y-103000000D03*
X174600000Y-101900000D03*
X174600000Y-103200000D03*
X164700000Y-105500000D03*
X145300000Y-107900000D03*
X173700000Y-114600000D03*
X152000000Y-114400000D03*
X149800000Y-113200000D03*
X173800000Y-113100000D03*
X136000000Y-106400000D03*
X173800000Y-111900000D03*
X140400000Y-104900000D03*
X122600000Y-112000000D03*
X122600000Y-105800000D03*
X121500000Y-108300000D03*
X119400000Y-113200000D03*
X117100000Y-110000000D03*
X120000000Y-108200000D03*
X122500000Y-116100000D03*
X120900000Y-110200000D03*
D19*
X132100000Y-103900000D02*
X132100000Y-117400000D01*
X132100000Y-117400000D02*
X134100000Y-119400000D01*
X134100000Y-119400000D02*
X134100000Y-123000000D01*
X134100000Y-123000000D02*
X140000000Y-128900000D01*
X140000000Y-128900000D02*
X181300000Y-128900000D01*
X181300000Y-128900000D02*
X186800000Y-123400000D01*
X131600000Y-118100000D02*
X131300000Y-117800000D01*
X131300000Y-117800000D02*
X131300000Y-100000000D01*
X134800000Y-96500000D02*
X154600000Y-96500000D01*
X131300000Y-100000000D02*
X134800000Y-96500000D01*
X165400000Y-125600000D02*
X165400000Y-124800000D01*
X165400000Y-125600000D02*
X165400000Y-124900000D01*
X165400000Y-124900000D02*
X163449970Y-122949970D01*
X163449970Y-122949970D02*
X156022790Y-122949970D01*
X156022790Y-122949970D02*
X149700000Y-116627180D01*
X149700000Y-116627180D02*
X149700000Y-114500000D01*
X149700000Y-114500000D02*
X147200000Y-112000000D01*
X147200000Y-112000000D02*
X147200000Y-109200000D01*
X186100000Y-94500000D02*
X184700000Y-93100000D01*
X184700000Y-93100000D02*
X161300000Y-93100000D01*
X161300000Y-93100000D02*
X161200000Y-93000000D01*
X118587500Y-114487500D02*
X118587500Y-119900000D01*
X118587500Y-119900000D02*
X119037500Y-120350000D01*
X118587500Y-114487500D02*
X118587500Y-114437500D01*
X118587500Y-114437500D02*
X113050000Y-108900000D01*
X113050000Y-108900000D02*
X113050000Y-103550000D01*
X113050000Y-103550000D02*
X120100000Y-103550000D01*
X120100000Y-103550000D02*
X121150000Y-104600000D01*
X163400000Y-94600000D02*
X164800000Y-96000000D01*
X164800000Y-96000000D02*
X170600000Y-96000000D01*
X170900000Y-113100000D02*
X170900000Y-119100000D01*
X168300000Y-110500000D02*
X170900000Y-113100000D01*
X88800000Y-124800000D02*
X88800000Y-126300000D01*
X121700000Y-114000000D02*
X121800000Y-113900000D01*
X121800000Y-113900000D02*
X121800000Y-111100000D01*
X179000000Y-112600000D02*
X179000000Y-117460000D01*
X174800000Y-108400000D02*
X179000000Y-112600000D01*
X154600000Y-124300000D02*
X156100000Y-124300000D01*
X146700000Y-116000000D02*
X146700000Y-116400000D01*
X156100000Y-124300000D02*
X157400000Y-125600000D01*
X146700000Y-116400000D02*
X154600000Y-124300000D01*
X185150000Y-97850000D02*
X185750000Y-97850000D01*
X178500000Y-110200000D02*
X178500000Y-104500000D01*
X178500000Y-104500000D02*
X185150000Y-97850000D01*
X178400000Y-126000000D02*
X178400000Y-124600000D01*
X178400000Y-124600000D02*
X181000000Y-122000000D01*
X181000000Y-112700000D02*
X178500000Y-110200000D01*
X181000000Y-122000000D02*
X181000000Y-112700000D01*
X159400000Y-125600000D02*
X159400000Y-125200000D01*
X159400000Y-125200000D02*
X158049990Y-123849990D01*
X158049990Y-123849990D02*
X155649990Y-123849990D01*
X155649990Y-123849990D02*
X147000000Y-115200000D01*
X147000000Y-115200000D02*
X142200000Y-115200000D01*
X142200000Y-115200000D02*
X141300000Y-116100000D01*
X140500000Y-116900000D02*
X141300000Y-116100000D01*
X138500000Y-116900000D02*
X140500000Y-116900000D01*
X138100000Y-116500000D02*
X138500000Y-116900000D01*
X138100000Y-115700000D02*
X138100000Y-116500000D01*
X155900000Y-108400000D02*
X146600000Y-108400000D01*
X156300000Y-108800000D02*
X155900000Y-108400000D01*
X139500020Y-114299980D02*
X138100000Y-115700000D01*
X146600000Y-108400000D02*
X140700020Y-114299980D01*
X140700020Y-114299980D02*
X139500020Y-114299980D01*
X183800000Y-98100000D02*
X183749990Y-98150010D01*
X183749990Y-98150010D02*
X166886400Y-98150010D01*
X166886400Y-98150010D02*
X163200000Y-101836410D01*
X163200000Y-101836410D02*
X163200000Y-105000000D01*
X161400000Y-127000000D02*
X161400000Y-125600000D01*
X161100000Y-127300000D02*
X161400000Y-127000000D01*
X145600000Y-116000000D02*
X154200000Y-124600000D01*
X144400000Y-116000000D02*
X145600000Y-116000000D01*
X154200000Y-124600000D02*
X154200000Y-126600000D01*
X154200000Y-126600000D02*
X154900000Y-127300000D01*
X154900000Y-127300000D02*
X161100000Y-127300000D01*
X140450030Y-113849970D02*
X146400000Y-107900000D01*
X146400000Y-107900000D02*
X156900000Y-107900000D01*
X137649990Y-115513600D02*
X139313620Y-113849970D01*
X139313620Y-113849970D02*
X140450030Y-113849970D01*
X142600000Y-116000000D02*
X141249990Y-117350010D01*
X144400000Y-116000000D02*
X142600000Y-116000000D01*
X156900000Y-107900000D02*
X157200000Y-108200000D01*
X138313600Y-117350010D02*
X137649990Y-116686400D01*
X137649990Y-116686400D02*
X137649990Y-115513600D01*
X141249990Y-117350010D02*
X138313600Y-117350010D01*
X180500000Y-96800000D02*
X179600000Y-97700000D01*
X179600000Y-97700000D02*
X166700000Y-97700000D01*
X166700000Y-97700000D02*
X162200000Y-102200000D01*
X162200000Y-102200000D02*
X162200000Y-104400000D01*
X138900000Y-116100000D02*
X140250010Y-114749990D01*
X140250010Y-114749990D02*
X147186400Y-114749990D01*
X155836390Y-123399980D02*
X162499980Y-123399980D01*
X163400000Y-124300000D02*
X163400000Y-125600000D01*
X162499980Y-123399980D02*
X163400000Y-124300000D01*
X148600000Y-114600000D02*
X147818205Y-115381795D01*
X147186400Y-114749990D02*
X147818205Y-115381795D01*
X148700000Y-114600000D02*
X148600000Y-114600000D01*
X147818205Y-115381795D02*
X155836390Y-123399980D01*
X186200000Y-95800000D02*
X186100000Y-95900000D01*
X186100000Y-95900000D02*
X180149990Y-95900000D01*
X180149990Y-95900000D02*
X178800000Y-97249990D01*
X178800000Y-97249990D02*
X166513600Y-97249990D01*
X166513600Y-97249990D02*
X161300000Y-102463590D01*
X161300000Y-102463590D02*
X161300000Y-103300000D01*
X187400000Y-104400000D02*
X188800000Y-104400000D01*
X188800000Y-104400000D02*
X191000000Y-102200000D01*
X191000000Y-102200000D02*
X191000000Y-95200000D01*
X186100000Y-105300000D02*
X186100000Y-104300000D01*
X186100000Y-104300000D02*
X187118205Y-103281795D01*
X187118205Y-103281795D02*
X189281795Y-103281795D01*
X189281795Y-103281795D02*
X190549990Y-102013600D01*
X190549990Y-102013600D02*
X190549990Y-96249990D01*
X190549990Y-96249990D02*
X189500000Y-95200000D01*
X164100000Y-103700000D02*
X167200000Y-100600000D01*
X167200000Y-100600000D02*
X174600000Y-100600000D01*
X166000000Y-103000000D02*
X167100000Y-101900000D01*
X167100000Y-101900000D02*
X174600000Y-101900000D01*
X167000000Y-103200000D02*
X174600000Y-103200000D01*
X164700000Y-105500000D02*
X167000000Y-103200000D01*
X166500000Y-107400000D02*
X145800000Y-107400000D01*
X173700000Y-114600000D02*
X166500000Y-107400000D01*
X145800000Y-107400000D02*
X145300000Y-107900000D01*
X152000000Y-114400000D02*
X150800000Y-113200000D01*
X150800000Y-113200000D02*
X149800000Y-113200000D01*
X173800000Y-113100000D02*
X173768205Y-113131795D01*
X173768205Y-113131795D02*
X172868205Y-113131795D01*
X172868205Y-113131795D02*
X166686400Y-106949990D01*
X166686400Y-106949990D02*
X136549990Y-106949990D01*
X136549990Y-106949990D02*
X136000000Y-106400000D01*
X173800000Y-111900000D02*
X173763590Y-111863590D01*
X173763590Y-111863590D02*
X172236410Y-111863590D01*
X172236410Y-111863590D02*
X166872800Y-106499980D01*
X166872800Y-106499980D02*
X141999980Y-106499980D01*
X141999980Y-106499980D02*
X140400000Y-104900000D01*
X122600000Y-112000000D02*
X122600000Y-105800000D01*
X121500000Y-108300000D02*
X119900000Y-109900000D01*
X119900000Y-109900000D02*
X119900000Y-112700000D01*
X119900000Y-112700000D02*
X119400000Y-113200000D01*
X117100000Y-110000000D02*
X118900000Y-108200000D01*
X118900000Y-108200000D02*
X120000000Y-108200000D01*
X122400000Y-116000000D02*
X122500000Y-116100000D01*
X120900000Y-110200000D02*
X120900000Y-114400000D01*
X122400000Y-115900000D02*
X122400000Y-116000000D01*
X120900000Y-114400000D02*
X122400000Y-115900000D01*
D20*
G36*
X124041156Y-90753951D02*
G01*
X124281376Y-90968624D01*
X124496049Y-91208844D01*
X124682471Y-91471579D01*
X124838300Y-91753532D01*
X124961591Y-92051182D01*
X125050772Y-92360734D01*
X125104737Y-92678354D01*
X125123000Y-93003560D01*
X125123000Y-127996440D01*
X125104737Y-128321646D01*
X125050772Y-128639266D01*
X124961591Y-128948818D01*
X124838300Y-129246468D01*
X124682471Y-129528421D01*
X124496049Y-129791156D01*
X124281376Y-130031376D01*
X124041156Y-130246049D01*
X123908746Y-130340000D01*
X85341254Y-130340000D01*
X85208844Y-130246049D01*
X84968624Y-130031376D01*
X84753951Y-129791156D01*
X84567529Y-129528421D01*
X84411700Y-129246468D01*
X84320793Y-129027000D01*
X95000000Y-129027000D01*
X95024776Y-129024560D01*
X95048601Y-129017333D01*
X95070557Y-129005597D01*
X95089803Y-128989803D01*
X95105597Y-128970557D01*
X95117333Y-128948601D01*
X95124560Y-128924776D01*
X95127000Y-128900000D01*
X95127000Y-122800000D01*
X95124560Y-122775224D01*
X95117333Y-122751399D01*
X95105597Y-122729443D01*
X95089803Y-122710197D01*
X95070557Y-122694403D01*
X95048601Y-122682667D01*
X95024776Y-122675440D01*
X95000000Y-122673000D01*
X84127000Y-122673000D01*
X84127000Y-114391653D01*
X89287952Y-114391653D01*
X89443962Y-114707214D01*
X89818745Y-114898020D01*
X90223551Y-115012044D01*
X90642824Y-115044902D01*
X91060451Y-114995334D01*
X91460383Y-114865243D01*
X91756038Y-114707214D01*
X91912048Y-114391653D01*
X90600000Y-113079605D01*
X89287952Y-114391653D01*
X84127000Y-114391653D01*
X84127000Y-112942824D01*
X88455098Y-112942824D01*
X88504666Y-113360451D01*
X88634757Y-113760383D01*
X88792786Y-114056038D01*
X89108347Y-114212048D01*
X90420395Y-112900000D01*
X90779605Y-112900000D01*
X92091653Y-114212048D01*
X92407214Y-114056038D01*
X92598020Y-113681255D01*
X92712044Y-113276449D01*
X92744902Y-112857176D01*
X92695334Y-112439549D01*
X92565243Y-112039617D01*
X92407214Y-111743962D01*
X92091653Y-111587952D01*
X90779605Y-112900000D01*
X90420395Y-112900000D01*
X89108347Y-111587952D01*
X88792786Y-111743962D01*
X88601980Y-112118745D01*
X88487956Y-112523551D01*
X88455098Y-112942824D01*
X84127000Y-112942824D01*
X84127000Y-111408347D01*
X89287952Y-111408347D01*
X90600000Y-112720395D01*
X91912048Y-111408347D01*
X91756038Y-111092786D01*
X91381255Y-110901980D01*
X90976449Y-110787956D01*
X90557176Y-110755098D01*
X90139549Y-110804666D01*
X89739617Y-110934757D01*
X89443962Y-111092786D01*
X89287952Y-111408347D01*
X84127000Y-111408347D01*
X84127000Y-103448061D01*
X112015000Y-103448061D01*
X112015000Y-103651939D01*
X112054774Y-103851898D01*
X112132795Y-104040256D01*
X112246063Y-104209774D01*
X112290001Y-104253712D01*
X112290000Y-108862677D01*
X112286324Y-108900000D01*
X112290000Y-108937322D01*
X112290000Y-108937332D01*
X112300997Y-109048985D01*
X112336189Y-109165000D01*
X112344454Y-109192246D01*
X112415026Y-109324276D01*
X112454871Y-109372826D01*
X112509999Y-109440001D01*
X112539003Y-109463804D01*
X117552500Y-114477302D01*
X117552500Y-114589439D01*
X117592274Y-114789398D01*
X117670295Y-114977756D01*
X117783563Y-115147274D01*
X117827500Y-115191211D01*
X117827501Y-119862668D01*
X117823824Y-119900000D01*
X117827501Y-119937333D01*
X117838498Y-120048986D01*
X117851680Y-120092442D01*
X117881954Y-120192246D01*
X117952526Y-120324276D01*
X117973637Y-120349999D01*
X118002500Y-120385168D01*
X118002500Y-120451939D01*
X118042274Y-120651898D01*
X118120295Y-120840256D01*
X118233563Y-121009774D01*
X118377726Y-121153937D01*
X118547244Y-121267205D01*
X118735602Y-121345226D01*
X118935561Y-121385000D01*
X119139439Y-121385000D01*
X119339398Y-121345226D01*
X119527756Y-121267205D01*
X119697274Y-121153937D01*
X119841437Y-121009774D01*
X119954705Y-120840256D01*
X120032726Y-120651898D01*
X120072500Y-120451939D01*
X120072500Y-120248061D01*
X120032726Y-120048102D01*
X119954705Y-119859744D01*
X119841437Y-119690226D01*
X119697274Y-119546063D01*
X119527756Y-119432795D01*
X119347500Y-119358130D01*
X119347500Y-115191211D01*
X119391437Y-115147274D01*
X119504705Y-114977756D01*
X119582726Y-114789398D01*
X119622500Y-114589439D01*
X119622500Y-114385561D01*
X119589103Y-114217662D01*
X119701898Y-114195226D01*
X119890256Y-114117205D01*
X120059774Y-114003937D01*
X120140001Y-113923710D01*
X120140001Y-114362668D01*
X120136324Y-114400000D01*
X120140001Y-114437333D01*
X120150998Y-114548986D01*
X120162373Y-114586486D01*
X120194454Y-114692246D01*
X120265026Y-114824276D01*
X120325547Y-114898020D01*
X120360000Y-114940001D01*
X120388998Y-114963799D01*
X121465000Y-116039802D01*
X121465000Y-116201939D01*
X121504774Y-116401898D01*
X121582795Y-116590256D01*
X121696063Y-116759774D01*
X121840226Y-116903937D01*
X122009744Y-117017205D01*
X122198102Y-117095226D01*
X122398061Y-117135000D01*
X122601939Y-117135000D01*
X122801898Y-117095226D01*
X122990256Y-117017205D01*
X123159774Y-116903937D01*
X123303937Y-116759774D01*
X123417205Y-116590256D01*
X123495226Y-116401898D01*
X123535000Y-116201939D01*
X123535000Y-115998061D01*
X123495226Y-115798102D01*
X123417205Y-115609744D01*
X123303937Y-115440226D01*
X123159774Y-115296063D01*
X122990256Y-115182795D01*
X122801898Y-115104774D01*
X122649203Y-115074401D01*
X122369256Y-114794455D01*
X122503937Y-114659774D01*
X122617205Y-114490256D01*
X122695226Y-114301898D01*
X122735000Y-114101939D01*
X122735000Y-113898061D01*
X122695226Y-113698102D01*
X122617205Y-113509744D01*
X122560000Y-113424130D01*
X122560000Y-113035000D01*
X122701939Y-113035000D01*
X122901898Y-112995226D01*
X123090256Y-112917205D01*
X123259774Y-112803937D01*
X123403937Y-112659774D01*
X123517205Y-112490256D01*
X123595226Y-112301898D01*
X123635000Y-112101939D01*
X123635000Y-111898061D01*
X123595226Y-111698102D01*
X123517205Y-111509744D01*
X123403937Y-111340226D01*
X123360000Y-111296289D01*
X123360000Y-106503711D01*
X123403937Y-106459774D01*
X123517205Y-106290256D01*
X123595226Y-106101898D01*
X123635000Y-105901939D01*
X123635000Y-105698061D01*
X123595226Y-105498102D01*
X123517205Y-105309744D01*
X123403937Y-105140226D01*
X123259774Y-104996063D01*
X123090256Y-104882795D01*
X122901898Y-104804774D01*
X122701939Y-104765000D01*
X122498061Y-104765000D01*
X122298102Y-104804774D01*
X122152553Y-104865063D01*
X122185000Y-104701939D01*
X122185000Y-104498061D01*
X122145226Y-104298102D01*
X122067205Y-104109744D01*
X121953937Y-103940226D01*
X121809774Y-103796063D01*
X121640256Y-103682795D01*
X121451898Y-103604774D01*
X121251939Y-103565000D01*
X121189802Y-103565000D01*
X120663804Y-103039002D01*
X120640001Y-103009999D01*
X120524276Y-102915026D01*
X120392247Y-102844454D01*
X120248986Y-102800997D01*
X120137333Y-102790000D01*
X120137322Y-102790000D01*
X120100000Y-102786324D01*
X120062678Y-102790000D01*
X113753711Y-102790000D01*
X113709774Y-102746063D01*
X113540256Y-102632795D01*
X113351898Y-102554774D01*
X113151939Y-102515000D01*
X112948061Y-102515000D01*
X112748102Y-102554774D01*
X112559744Y-102632795D01*
X112390226Y-102746063D01*
X112246063Y-102890226D01*
X112132795Y-103059744D01*
X112054774Y-103248102D01*
X112015000Y-103448061D01*
X84127000Y-103448061D01*
X84127000Y-96389721D01*
X88465000Y-96389721D01*
X88465000Y-96810279D01*
X88547047Y-97222756D01*
X88707988Y-97611302D01*
X88941637Y-97960983D01*
X89239017Y-98258363D01*
X89588698Y-98492012D01*
X89977244Y-98652953D01*
X90389721Y-98735000D01*
X90810279Y-98735000D01*
X91222756Y-98652953D01*
X91611302Y-98492012D01*
X91960983Y-98258363D01*
X92258363Y-97960983D01*
X92492012Y-97611302D01*
X92652953Y-97222756D01*
X92735000Y-96810279D01*
X92735000Y-96389721D01*
X92652953Y-95977244D01*
X92492012Y-95588698D01*
X92258363Y-95239017D01*
X91960983Y-94941637D01*
X91611302Y-94707988D01*
X91222756Y-94547047D01*
X90810279Y-94465000D01*
X90389721Y-94465000D01*
X89977244Y-94547047D01*
X89588698Y-94707988D01*
X89239017Y-94941637D01*
X88941637Y-95239017D01*
X88707988Y-95588698D01*
X88547047Y-95977244D01*
X88465000Y-96389721D01*
X84127000Y-96389721D01*
X84127000Y-93003560D01*
X84145263Y-92678354D01*
X84199228Y-92360734D01*
X84288409Y-92051182D01*
X84411700Y-91753532D01*
X84567529Y-91471579D01*
X84753951Y-91208844D01*
X84968624Y-90968624D01*
X85208844Y-90753951D01*
X85341254Y-90660000D01*
X123908746Y-90660000D01*
X124041156Y-90753951D01*
X124041156Y-90753951D01*
G37*
X124041156Y-90753951D02*
X124281376Y-90968624D01*
X124496049Y-91208844D01*
X124682471Y-91471579D01*
X124838300Y-91753532D01*
X124961591Y-92051182D01*
X125050772Y-92360734D01*
X125104737Y-92678354D01*
X125123000Y-93003560D01*
X125123000Y-127996440D01*
X125104737Y-128321646D01*
X125050772Y-128639266D01*
X124961591Y-128948818D01*
X124838300Y-129246468D01*
X124682471Y-129528421D01*
X124496049Y-129791156D01*
X124281376Y-130031376D01*
X124041156Y-130246049D01*
X123908746Y-130340000D01*
X85341254Y-130340000D01*
X85208844Y-130246049D01*
X84968624Y-130031376D01*
X84753951Y-129791156D01*
X84567529Y-129528421D01*
X84411700Y-129246468D01*
X84320793Y-129027000D01*
X95000000Y-129027000D01*
X95024776Y-129024560D01*
X95048601Y-129017333D01*
X95070557Y-129005597D01*
X95089803Y-128989803D01*
X95105597Y-128970557D01*
X95117333Y-128948601D01*
X95124560Y-128924776D01*
X95127000Y-128900000D01*
X95127000Y-122800000D01*
X95124560Y-122775224D01*
X95117333Y-122751399D01*
X95105597Y-122729443D01*
X95089803Y-122710197D01*
X95070557Y-122694403D01*
X95048601Y-122682667D01*
X95024776Y-122675440D01*
X95000000Y-122673000D01*
X84127000Y-122673000D01*
X84127000Y-114391653D01*
X89287952Y-114391653D01*
X89443962Y-114707214D01*
X89818745Y-114898020D01*
X90223551Y-115012044D01*
X90642824Y-115044902D01*
X91060451Y-114995334D01*
X91460383Y-114865243D01*
X91756038Y-114707214D01*
X91912048Y-114391653D01*
X90600000Y-113079605D01*
X89287952Y-114391653D01*
X84127000Y-114391653D01*
X84127000Y-112942824D01*
X88455098Y-112942824D01*
X88504666Y-113360451D01*
X88634757Y-113760383D01*
X88792786Y-114056038D01*
X89108347Y-114212048D01*
X90420395Y-112900000D01*
X90779605Y-112900000D01*
X92091653Y-114212048D01*
X92407214Y-114056038D01*
X92598020Y-113681255D01*
X92712044Y-113276449D01*
X92744902Y-112857176D01*
X92695334Y-112439549D01*
X92565243Y-112039617D01*
X92407214Y-111743962D01*
X92091653Y-111587952D01*
X90779605Y-112900000D01*
X90420395Y-112900000D01*
X89108347Y-111587952D01*
X88792786Y-111743962D01*
X88601980Y-112118745D01*
X88487956Y-112523551D01*
X88455098Y-112942824D01*
X84127000Y-112942824D01*
X84127000Y-111408347D01*
X89287952Y-111408347D01*
X90600000Y-112720395D01*
X91912048Y-111408347D01*
X91756038Y-111092786D01*
X91381255Y-110901980D01*
X90976449Y-110787956D01*
X90557176Y-110755098D01*
X90139549Y-110804666D01*
X89739617Y-110934757D01*
X89443962Y-111092786D01*
X89287952Y-111408347D01*
X84127000Y-111408347D01*
X84127000Y-103448061D01*
X112015000Y-103448061D01*
X112015000Y-103651939D01*
X112054774Y-103851898D01*
X112132795Y-104040256D01*
X112246063Y-104209774D01*
X112290001Y-104253712D01*
X112290000Y-108862677D01*
X112286324Y-108900000D01*
X112290000Y-108937322D01*
X112290000Y-108937332D01*
X112300997Y-109048985D01*
X112336189Y-109165000D01*
X112344454Y-109192246D01*
X112415026Y-109324276D01*
X112454871Y-109372826D01*
X112509999Y-109440001D01*
X112539003Y-109463804D01*
X117552500Y-114477302D01*
X117552500Y-114589439D01*
X117592274Y-114789398D01*
X117670295Y-114977756D01*
X117783563Y-115147274D01*
X117827500Y-115191211D01*
X117827501Y-119862668D01*
X117823824Y-119900000D01*
X117827501Y-119937333D01*
X117838498Y-120048986D01*
X117851680Y-120092442D01*
X117881954Y-120192246D01*
X117952526Y-120324276D01*
X117973637Y-120349999D01*
X118002500Y-120385168D01*
X118002500Y-120451939D01*
X118042274Y-120651898D01*
X118120295Y-120840256D01*
X118233563Y-121009774D01*
X118377726Y-121153937D01*
X118547244Y-121267205D01*
X118735602Y-121345226D01*
X118935561Y-121385000D01*
X119139439Y-121385000D01*
X119339398Y-121345226D01*
X119527756Y-121267205D01*
X119697274Y-121153937D01*
X119841437Y-121009774D01*
X119954705Y-120840256D01*
X120032726Y-120651898D01*
X120072500Y-120451939D01*
X120072500Y-120248061D01*
X120032726Y-120048102D01*
X119954705Y-119859744D01*
X119841437Y-119690226D01*
X119697274Y-119546063D01*
X119527756Y-119432795D01*
X119347500Y-119358130D01*
X119347500Y-115191211D01*
X119391437Y-115147274D01*
X119504705Y-114977756D01*
X119582726Y-114789398D01*
X119622500Y-114589439D01*
X119622500Y-114385561D01*
X119589103Y-114217662D01*
X119701898Y-114195226D01*
X119890256Y-114117205D01*
X120059774Y-114003937D01*
X120140001Y-113923710D01*
X120140001Y-114362668D01*
X120136324Y-114400000D01*
X120140001Y-114437333D01*
X120150998Y-114548986D01*
X120162373Y-114586486D01*
X120194454Y-114692246D01*
X120265026Y-114824276D01*
X120325547Y-114898020D01*
X120360000Y-114940001D01*
X120388998Y-114963799D01*
X121465000Y-116039802D01*
X121465000Y-116201939D01*
X121504774Y-116401898D01*
X121582795Y-116590256D01*
X121696063Y-116759774D01*
X121840226Y-116903937D01*
X122009744Y-117017205D01*
X122198102Y-117095226D01*
X122398061Y-117135000D01*
X122601939Y-117135000D01*
X122801898Y-117095226D01*
X122990256Y-117017205D01*
X123159774Y-116903937D01*
X123303937Y-116759774D01*
X123417205Y-116590256D01*
X123495226Y-116401898D01*
X123535000Y-116201939D01*
X123535000Y-115998061D01*
X123495226Y-115798102D01*
X123417205Y-115609744D01*
X123303937Y-115440226D01*
X123159774Y-115296063D01*
X122990256Y-115182795D01*
X122801898Y-115104774D01*
X122649203Y-115074401D01*
X122369256Y-114794455D01*
X122503937Y-114659774D01*
X122617205Y-114490256D01*
X122695226Y-114301898D01*
X122735000Y-114101939D01*
X122735000Y-113898061D01*
X122695226Y-113698102D01*
X122617205Y-113509744D01*
X122560000Y-113424130D01*
X122560000Y-113035000D01*
X122701939Y-113035000D01*
X122901898Y-112995226D01*
X123090256Y-112917205D01*
X123259774Y-112803937D01*
X123403937Y-112659774D01*
X123517205Y-112490256D01*
X123595226Y-112301898D01*
X123635000Y-112101939D01*
X123635000Y-111898061D01*
X123595226Y-111698102D01*
X123517205Y-111509744D01*
X123403937Y-111340226D01*
X123360000Y-111296289D01*
X123360000Y-106503711D01*
X123403937Y-106459774D01*
X123517205Y-106290256D01*
X123595226Y-106101898D01*
X123635000Y-105901939D01*
X123635000Y-105698061D01*
X123595226Y-105498102D01*
X123517205Y-105309744D01*
X123403937Y-105140226D01*
X123259774Y-104996063D01*
X123090256Y-104882795D01*
X122901898Y-104804774D01*
X122701939Y-104765000D01*
X122498061Y-104765000D01*
X122298102Y-104804774D01*
X122152553Y-104865063D01*
X122185000Y-104701939D01*
X122185000Y-104498061D01*
X122145226Y-104298102D01*
X122067205Y-104109744D01*
X121953937Y-103940226D01*
X121809774Y-103796063D01*
X121640256Y-103682795D01*
X121451898Y-103604774D01*
X121251939Y-103565000D01*
X121189802Y-103565000D01*
X120663804Y-103039002D01*
X120640001Y-103009999D01*
X120524276Y-102915026D01*
X120392247Y-102844454D01*
X120248986Y-102800997D01*
X120137333Y-102790000D01*
X120137322Y-102790000D01*
X120100000Y-102786324D01*
X120062678Y-102790000D01*
X113753711Y-102790000D01*
X113709774Y-102746063D01*
X113540256Y-102632795D01*
X113351898Y-102554774D01*
X113151939Y-102515000D01*
X112948061Y-102515000D01*
X112748102Y-102554774D01*
X112559744Y-102632795D01*
X112390226Y-102746063D01*
X112246063Y-102890226D01*
X112132795Y-103059744D01*
X112054774Y-103248102D01*
X112015000Y-103448061D01*
X84127000Y-103448061D01*
X84127000Y-96389721D01*
X88465000Y-96389721D01*
X88465000Y-96810279D01*
X88547047Y-97222756D01*
X88707988Y-97611302D01*
X88941637Y-97960983D01*
X89239017Y-98258363D01*
X89588698Y-98492012D01*
X89977244Y-98652953D01*
X90389721Y-98735000D01*
X90810279Y-98735000D01*
X91222756Y-98652953D01*
X91611302Y-98492012D01*
X91960983Y-98258363D01*
X92258363Y-97960983D01*
X92492012Y-97611302D01*
X92652953Y-97222756D01*
X92735000Y-96810279D01*
X92735000Y-96389721D01*
X92652953Y-95977244D01*
X92492012Y-95588698D01*
X92258363Y-95239017D01*
X91960983Y-94941637D01*
X91611302Y-94707988D01*
X91222756Y-94547047D01*
X90810279Y-94465000D01*
X90389721Y-94465000D01*
X89977244Y-94547047D01*
X89588698Y-94707988D01*
X89239017Y-94941637D01*
X88941637Y-95239017D01*
X88707988Y-95588698D01*
X88547047Y-95977244D01*
X88465000Y-96389721D01*
X84127000Y-96389721D01*
X84127000Y-93003560D01*
X84145263Y-92678354D01*
X84199228Y-92360734D01*
X84288409Y-92051182D01*
X84411700Y-91753532D01*
X84567529Y-91471579D01*
X84753951Y-91208844D01*
X84968624Y-90968624D01*
X85208844Y-90753951D01*
X85341254Y-90660000D01*
X123908746Y-90660000D01*
X124041156Y-90753951D01*
G36*
X120115000Y-104639802D02*
G01*
X120115000Y-104701939D01*
X120154774Y-104901898D01*
X120232795Y-105090256D01*
X120346063Y-105259774D01*
X120490226Y-105403937D01*
X120659744Y-105517205D01*
X120848102Y-105595226D01*
X121048061Y-105635000D01*
X121251939Y-105635000D01*
X121451898Y-105595226D01*
X121597447Y-105534937D01*
X121565000Y-105698061D01*
X121565000Y-105901939D01*
X121604774Y-106101898D01*
X121682795Y-106290256D01*
X121796063Y-106459774D01*
X121840001Y-106503712D01*
X121840001Y-107320557D01*
X121801898Y-107304774D01*
X121601939Y-107265000D01*
X121398061Y-107265000D01*
X121198102Y-107304774D01*
X121009744Y-107382795D01*
X120840226Y-107496063D01*
X120800000Y-107536289D01*
X120659774Y-107396063D01*
X120490256Y-107282795D01*
X120301898Y-107204774D01*
X120101939Y-107165000D01*
X119898061Y-107165000D01*
X119698102Y-107204774D01*
X119509744Y-107282795D01*
X119340226Y-107396063D01*
X119296289Y-107440000D01*
X118937322Y-107440000D01*
X118899999Y-107436324D01*
X118862676Y-107440000D01*
X118862667Y-107440000D01*
X118751014Y-107450997D01*
X118607753Y-107494454D01*
X118475724Y-107565026D01*
X118475722Y-107565027D01*
X118475723Y-107565027D01*
X118388996Y-107636201D01*
X118388992Y-107636205D01*
X118359999Y-107659999D01*
X118336205Y-107688992D01*
X117060198Y-108965000D01*
X116998061Y-108965000D01*
X116798102Y-109004774D01*
X116609744Y-109082795D01*
X116440226Y-109196063D01*
X116296063Y-109340226D01*
X116182795Y-109509744D01*
X116104774Y-109698102D01*
X116065000Y-109898061D01*
X116065000Y-110101939D01*
X116104774Y-110301898D01*
X116182795Y-110490256D01*
X116296063Y-110659774D01*
X116440226Y-110803937D01*
X116609744Y-110917205D01*
X116798102Y-110995226D01*
X116998061Y-111035000D01*
X117201939Y-111035000D01*
X117401898Y-110995226D01*
X117590256Y-110917205D01*
X117759774Y-110803937D01*
X117903937Y-110659774D01*
X118017205Y-110490256D01*
X118095226Y-110301898D01*
X118135000Y-110101939D01*
X118135000Y-110039802D01*
X119214803Y-108960000D01*
X119296289Y-108960000D01*
X119340226Y-109003937D01*
X119509744Y-109117205D01*
X119579217Y-109145982D01*
X119389003Y-109336196D01*
X119359999Y-109359999D01*
X119304871Y-109427174D01*
X119265026Y-109475724D01*
X119257931Y-109488998D01*
X119194454Y-109607754D01*
X119150997Y-109751015D01*
X119140000Y-109862668D01*
X119140000Y-109862678D01*
X119136324Y-109900000D01*
X119140000Y-109937323D01*
X119140001Y-112196440D01*
X119098102Y-112204774D01*
X118909744Y-112282795D01*
X118740226Y-112396063D01*
X118596063Y-112540226D01*
X118482795Y-112709744D01*
X118404774Y-112898102D01*
X118365000Y-113098061D01*
X118365000Y-113140198D01*
X113810000Y-108585199D01*
X113810000Y-104310000D01*
X119785199Y-104310000D01*
X120115000Y-104639802D01*
X120115000Y-104639802D01*
G37*
X120115000Y-104639802D02*
X120115000Y-104701939D01*
X120154774Y-104901898D01*
X120232795Y-105090256D01*
X120346063Y-105259774D01*
X120490226Y-105403937D01*
X120659744Y-105517205D01*
X120848102Y-105595226D01*
X121048061Y-105635000D01*
X121251939Y-105635000D01*
X121451898Y-105595226D01*
X121597447Y-105534937D01*
X121565000Y-105698061D01*
X121565000Y-105901939D01*
X121604774Y-106101898D01*
X121682795Y-106290256D01*
X121796063Y-106459774D01*
X121840001Y-106503712D01*
X121840001Y-107320557D01*
X121801898Y-107304774D01*
X121601939Y-107265000D01*
X121398061Y-107265000D01*
X121198102Y-107304774D01*
X121009744Y-107382795D01*
X120840226Y-107496063D01*
X120800000Y-107536289D01*
X120659774Y-107396063D01*
X120490256Y-107282795D01*
X120301898Y-107204774D01*
X120101939Y-107165000D01*
X119898061Y-107165000D01*
X119698102Y-107204774D01*
X119509744Y-107282795D01*
X119340226Y-107396063D01*
X119296289Y-107440000D01*
X118937322Y-107440000D01*
X118899999Y-107436324D01*
X118862676Y-107440000D01*
X118862667Y-107440000D01*
X118751014Y-107450997D01*
X118607753Y-107494454D01*
X118475724Y-107565026D01*
X118475722Y-107565027D01*
X118475723Y-107565027D01*
X118388996Y-107636201D01*
X118388992Y-107636205D01*
X118359999Y-107659999D01*
X118336205Y-107688992D01*
X117060198Y-108965000D01*
X116998061Y-108965000D01*
X116798102Y-109004774D01*
X116609744Y-109082795D01*
X116440226Y-109196063D01*
X116296063Y-109340226D01*
X116182795Y-109509744D01*
X116104774Y-109698102D01*
X116065000Y-109898061D01*
X116065000Y-110101939D01*
X116104774Y-110301898D01*
X116182795Y-110490256D01*
X116296063Y-110659774D01*
X116440226Y-110803937D01*
X116609744Y-110917205D01*
X116798102Y-110995226D01*
X116998061Y-111035000D01*
X117201939Y-111035000D01*
X117401898Y-110995226D01*
X117590256Y-110917205D01*
X117759774Y-110803937D01*
X117903937Y-110659774D01*
X118017205Y-110490256D01*
X118095226Y-110301898D01*
X118135000Y-110101939D01*
X118135000Y-110039802D01*
X119214803Y-108960000D01*
X119296289Y-108960000D01*
X119340226Y-109003937D01*
X119509744Y-109117205D01*
X119579217Y-109145982D01*
X119389003Y-109336196D01*
X119359999Y-109359999D01*
X119304871Y-109427174D01*
X119265026Y-109475724D01*
X119257931Y-109488998D01*
X119194454Y-109607754D01*
X119150997Y-109751015D01*
X119140000Y-109862668D01*
X119140000Y-109862678D01*
X119136324Y-109900000D01*
X119140000Y-109937323D01*
X119140001Y-112196440D01*
X119098102Y-112204774D01*
X118909744Y-112282795D01*
X118740226Y-112396063D01*
X118596063Y-112540226D01*
X118482795Y-112709744D01*
X118404774Y-112898102D01*
X118365000Y-113098061D01*
X118365000Y-113140198D01*
X113810000Y-108585199D01*
X113810000Y-104310000D01*
X119785199Y-104310000D01*
X120115000Y-104639802D01*
D21*
G36*
X195519275Y-90377474D02*
G01*
X196018770Y-90528281D01*
X196479459Y-90773233D01*
X196883797Y-91103002D01*
X197216384Y-91505031D01*
X197464548Y-91964001D01*
X197618837Y-92462427D01*
X197674986Y-92996657D01*
X197675001Y-93000846D01*
X197675000Y-127984104D01*
X197622526Y-128519274D01*
X197471719Y-129018770D01*
X197226768Y-129479458D01*
X196896995Y-129883799D01*
X196494970Y-130216383D01*
X196035997Y-130464548D01*
X195537575Y-130618836D01*
X195003342Y-130674986D01*
X194999441Y-130675000D01*
X134892288Y-130675000D01*
X134741804Y-130612668D01*
X134457192Y-130455368D01*
X134191980Y-130267189D01*
X133949502Y-130050498D01*
X133732811Y-129808020D01*
X133544632Y-129542808D01*
X133387332Y-129258196D01*
X133262889Y-128957761D01*
X133172862Y-128645272D01*
X133118391Y-128324682D01*
X133100000Y-127997189D01*
X133100000Y-119001041D01*
X133675000Y-119576041D01*
X133675001Y-122979123D01*
X133672945Y-123000000D01*
X133681150Y-123083314D01*
X133705239Y-123162720D01*
X133705453Y-123163427D01*
X133744917Y-123237260D01*
X133798027Y-123301974D01*
X133814239Y-123315279D01*
X139684721Y-129185762D01*
X139698026Y-129201974D01*
X139762740Y-129255084D01*
X139836573Y-129294548D01*
X139892383Y-129311478D01*
X139916685Y-129318850D01*
X139925098Y-129319679D01*
X139979126Y-129325000D01*
X139979132Y-129325000D01*
X139999999Y-129327055D01*
X140020866Y-129325000D01*
X181279133Y-129325000D01*
X181300000Y-129327055D01*
X181320867Y-129325000D01*
X181320874Y-129325000D01*
X181383314Y-129318850D01*
X181463427Y-129294548D01*
X181537260Y-129255084D01*
X181601974Y-129201974D01*
X181615284Y-129185756D01*
X186706020Y-124095020D01*
X186731056Y-124100000D01*
X186868944Y-124100000D01*
X187004182Y-124073099D01*
X187131574Y-124020332D01*
X187246224Y-123943726D01*
X187343726Y-123846224D01*
X187420332Y-123731574D01*
X187473099Y-123604182D01*
X187500000Y-123468944D01*
X187500000Y-123331056D01*
X187473099Y-123195818D01*
X187420332Y-123068426D01*
X187343726Y-122953776D01*
X187246224Y-122856274D01*
X187131574Y-122779668D01*
X187004182Y-122726901D01*
X186868944Y-122700000D01*
X186731056Y-122700000D01*
X186595818Y-122726901D01*
X186468426Y-122779668D01*
X186353776Y-122856274D01*
X186256274Y-122953776D01*
X186179668Y-123068426D01*
X186126901Y-123195818D01*
X186100000Y-123331056D01*
X186100000Y-123468944D01*
X186104980Y-123493980D01*
X181123960Y-128475000D01*
X140176041Y-128475000D01*
X134525000Y-122823960D01*
X134525000Y-122771961D01*
X137100000Y-122771961D01*
X137100000Y-123028039D01*
X137149958Y-123279196D01*
X137247955Y-123515781D01*
X137390224Y-123728702D01*
X137571298Y-123909776D01*
X137784219Y-124052045D01*
X138020804Y-124150042D01*
X138271961Y-124200000D01*
X138528039Y-124200000D01*
X138779196Y-124150042D01*
X139015781Y-124052045D01*
X139228702Y-123909776D01*
X139409776Y-123728702D01*
X139552045Y-123515781D01*
X139650000Y-123279297D01*
X139747955Y-123515781D01*
X139890224Y-123728702D01*
X140071298Y-123909776D01*
X140284219Y-124052045D01*
X140520804Y-124150042D01*
X140771961Y-124200000D01*
X141028039Y-124200000D01*
X141279196Y-124150042D01*
X141515781Y-124052045D01*
X141728702Y-123909776D01*
X141909776Y-123728702D01*
X142052045Y-123515781D01*
X142150042Y-123279196D01*
X142200000Y-123028039D01*
X142200000Y-122771961D01*
X142700000Y-122771961D01*
X142700000Y-123028039D01*
X142749958Y-123279196D01*
X142847955Y-123515781D01*
X142990224Y-123728702D01*
X143171298Y-123909776D01*
X143384219Y-124052045D01*
X143620804Y-124150042D01*
X143871961Y-124200000D01*
X144128039Y-124200000D01*
X144379196Y-124150042D01*
X144615781Y-124052045D01*
X144828702Y-123909776D01*
X145009776Y-123728702D01*
X145152045Y-123515781D01*
X145250000Y-123279297D01*
X145347955Y-123515781D01*
X145490224Y-123728702D01*
X145671298Y-123909776D01*
X145884219Y-124052045D01*
X146120804Y-124150042D01*
X146371961Y-124200000D01*
X146628039Y-124200000D01*
X146879196Y-124150042D01*
X147115781Y-124052045D01*
X147328702Y-123909776D01*
X147509776Y-123728702D01*
X147652045Y-123515781D01*
X147750042Y-123279196D01*
X147800000Y-123028039D01*
X147800000Y-122771961D01*
X147750042Y-122520804D01*
X147652045Y-122284219D01*
X147509776Y-122071298D01*
X147328702Y-121890224D01*
X147115781Y-121747955D01*
X146879196Y-121649958D01*
X146628039Y-121600000D01*
X146371961Y-121600000D01*
X146120804Y-121649958D01*
X145884219Y-121747955D01*
X145671298Y-121890224D01*
X145490224Y-122071298D01*
X145347955Y-122284219D01*
X145250000Y-122520703D01*
X145152045Y-122284219D01*
X145009776Y-122071298D01*
X144828702Y-121890224D01*
X144615781Y-121747955D01*
X144379196Y-121649958D01*
X144128039Y-121600000D01*
X143871961Y-121600000D01*
X143620804Y-121649958D01*
X143384219Y-121747955D01*
X143171298Y-121890224D01*
X142990224Y-122071298D01*
X142847955Y-122284219D01*
X142749958Y-122520804D01*
X142700000Y-122771961D01*
X142200000Y-122771961D01*
X142150042Y-122520804D01*
X142052045Y-122284219D01*
X141909776Y-122071298D01*
X141728702Y-121890224D01*
X141515781Y-121747955D01*
X141279196Y-121649958D01*
X141028039Y-121600000D01*
X140771961Y-121600000D01*
X140520804Y-121649958D01*
X140284219Y-121747955D01*
X140071298Y-121890224D01*
X139890224Y-122071298D01*
X139747955Y-122284219D01*
X139650000Y-122520703D01*
X139552045Y-122284219D01*
X139409776Y-122071298D01*
X139228702Y-121890224D01*
X139015781Y-121747955D01*
X138779196Y-121649958D01*
X138528039Y-121600000D01*
X138271961Y-121600000D01*
X138020804Y-121649958D01*
X137784219Y-121747955D01*
X137571298Y-121890224D01*
X137390224Y-122071298D01*
X137247955Y-122284219D01*
X137149958Y-122520804D01*
X137100000Y-122771961D01*
X134525000Y-122771961D01*
X134525000Y-119420866D01*
X134527055Y-119399999D01*
X134525000Y-119379132D01*
X134525000Y-119379126D01*
X134518850Y-119316686D01*
X134494548Y-119236573D01*
X134455084Y-119162740D01*
X134401974Y-119098026D01*
X134385763Y-119084722D01*
X133100000Y-117798960D01*
X133100000Y-106331056D01*
X135300000Y-106331056D01*
X135300000Y-106468944D01*
X135326901Y-106604182D01*
X135379668Y-106731574D01*
X135456274Y-106846224D01*
X135553776Y-106943726D01*
X135668426Y-107020332D01*
X135795818Y-107073099D01*
X135931056Y-107100000D01*
X136068944Y-107100000D01*
X136093979Y-107095020D01*
X136234709Y-107235750D01*
X136248016Y-107251964D01*
X136312730Y-107305074D01*
X136386563Y-107344538D01*
X136442373Y-107361468D01*
X136466675Y-107368840D01*
X136475088Y-107369669D01*
X136529116Y-107374990D01*
X136529122Y-107374990D01*
X136549989Y-107377045D01*
X136570856Y-107374990D01*
X144835060Y-107374990D01*
X144756274Y-107453776D01*
X144679668Y-107568426D01*
X144626901Y-107695818D01*
X144600000Y-107831056D01*
X144600000Y-107968944D01*
X144626901Y-108104182D01*
X144679668Y-108231574D01*
X144756274Y-108346224D01*
X144853776Y-108443726D01*
X144968426Y-108520332D01*
X145095818Y-108573099D01*
X145120876Y-108578083D01*
X140273990Y-113424970D01*
X139334486Y-113424970D01*
X139313619Y-113422915D01*
X139292752Y-113424970D01*
X139292746Y-113424970D01*
X139238718Y-113430291D01*
X139230305Y-113431120D01*
X139221573Y-113433769D01*
X139150193Y-113455422D01*
X139076360Y-113494886D01*
X139011646Y-113547996D01*
X138998341Y-113564208D01*
X137364229Y-115198321D01*
X137348017Y-115211626D01*
X137294907Y-115276340D01*
X137291179Y-115283315D01*
X137255443Y-115350173D01*
X137231140Y-115430286D01*
X137222935Y-115513600D01*
X137224991Y-115534476D01*
X137224990Y-116665533D01*
X137222935Y-116686400D01*
X137224990Y-116707267D01*
X137224990Y-116707273D01*
X137231140Y-116769713D01*
X137255442Y-116849826D01*
X137294906Y-116923659D01*
X137348016Y-116988374D01*
X137364233Y-117001683D01*
X137998321Y-117635772D01*
X138011626Y-117651984D01*
X138076340Y-117705094D01*
X138150173Y-117744558D01*
X138205983Y-117761488D01*
X138230285Y-117768860D01*
X138231707Y-117769000D01*
X138292726Y-117775010D01*
X138292732Y-117775010D01*
X138313599Y-117777065D01*
X138334466Y-117775010D01*
X141229123Y-117775010D01*
X141249990Y-117777065D01*
X141270857Y-117775010D01*
X141270864Y-117775010D01*
X141333304Y-117768860D01*
X141413417Y-117744558D01*
X141487250Y-117705094D01*
X141551964Y-117651984D01*
X141565273Y-117635767D01*
X142776041Y-116425000D01*
X143842093Y-116425000D01*
X143856274Y-116446224D01*
X143953776Y-116543726D01*
X144068426Y-116620332D01*
X144195818Y-116673099D01*
X144331056Y-116700000D01*
X144468944Y-116700000D01*
X144604182Y-116673099D01*
X144731574Y-116620332D01*
X144846224Y-116543726D01*
X144943726Y-116446224D01*
X144957907Y-116425000D01*
X145423960Y-116425000D01*
X153775000Y-124776040D01*
X153775001Y-126579123D01*
X153772945Y-126600000D01*
X153781150Y-126683314D01*
X153805013Y-126761977D01*
X153805453Y-126763427D01*
X153844917Y-126837260D01*
X153898027Y-126901974D01*
X153914239Y-126915279D01*
X154584721Y-127585762D01*
X154598026Y-127601974D01*
X154662740Y-127655084D01*
X154736573Y-127694548D01*
X154792383Y-127711478D01*
X154816685Y-127718850D01*
X154825098Y-127719679D01*
X154879126Y-127725000D01*
X154879132Y-127725000D01*
X154899999Y-127727055D01*
X154920866Y-127725000D01*
X161079133Y-127725000D01*
X161100000Y-127727055D01*
X161120867Y-127725000D01*
X161120874Y-127725000D01*
X161183314Y-127718850D01*
X161263427Y-127694548D01*
X161337260Y-127655084D01*
X161401974Y-127601974D01*
X161415283Y-127585757D01*
X161685763Y-127315278D01*
X161701974Y-127301974D01*
X161755084Y-127237260D01*
X161794548Y-127163427D01*
X161818850Y-127083314D01*
X161825000Y-127020874D01*
X161825000Y-127020868D01*
X161827055Y-127000001D01*
X161825000Y-126979134D01*
X161825000Y-126668331D01*
X161902432Y-126626943D01*
X162039475Y-126514475D01*
X162151943Y-126377432D01*
X162235514Y-126221081D01*
X162286977Y-126051431D01*
X162300000Y-125919207D01*
X162300000Y-125280793D01*
X162286977Y-125148569D01*
X162235514Y-124978919D01*
X162151943Y-124822568D01*
X162039475Y-124685525D01*
X161902431Y-124573057D01*
X161746080Y-124489486D01*
X161576430Y-124438023D01*
X161400000Y-124420646D01*
X161223569Y-124438023D01*
X161053919Y-124489486D01*
X160897568Y-124573057D01*
X160760525Y-124685525D01*
X160648057Y-124822569D01*
X160564486Y-124978920D01*
X160513023Y-125148570D01*
X160500000Y-125280794D01*
X160500000Y-125919207D01*
X160513023Y-126051431D01*
X160564486Y-126221081D01*
X160648058Y-126377432D01*
X160760526Y-126514475D01*
X160897569Y-126626943D01*
X160975000Y-126668331D01*
X160975000Y-126823959D01*
X160923960Y-126875000D01*
X156458264Y-126875000D01*
X156507980Y-126814421D01*
X156564437Y-126708797D01*
X156599203Y-126594189D01*
X156610942Y-126475000D01*
X156610070Y-126306362D01*
X156648058Y-126377432D01*
X156760526Y-126514475D01*
X156897569Y-126626943D01*
X157053920Y-126710514D01*
X157223570Y-126761977D01*
X157400000Y-126779354D01*
X157576431Y-126761977D01*
X157746081Y-126710514D01*
X157902432Y-126626943D01*
X158039475Y-126514475D01*
X158151943Y-126377432D01*
X158235514Y-126221081D01*
X158286977Y-126051431D01*
X158300000Y-125919207D01*
X158300000Y-125280793D01*
X158286977Y-125148569D01*
X158235514Y-124978919D01*
X158151943Y-124822568D01*
X158039475Y-124685525D01*
X157902431Y-124573057D01*
X157746080Y-124489486D01*
X157576430Y-124438023D01*
X157400000Y-124420646D01*
X157223569Y-124438023D01*
X157053919Y-124489486D01*
X156947440Y-124546400D01*
X156676030Y-124274990D01*
X157873950Y-124274990D01*
X158569151Y-124970192D01*
X158564486Y-124978920D01*
X158513023Y-125148570D01*
X158500000Y-125280794D01*
X158500000Y-125919207D01*
X158513023Y-126051431D01*
X158564486Y-126221081D01*
X158648058Y-126377432D01*
X158760526Y-126514475D01*
X158897569Y-126626943D01*
X159053920Y-126710514D01*
X159223570Y-126761977D01*
X159400000Y-126779354D01*
X159576431Y-126761977D01*
X159746081Y-126710514D01*
X159902432Y-126626943D01*
X160039475Y-126514475D01*
X160151943Y-126377432D01*
X160235514Y-126221081D01*
X160286977Y-126051431D01*
X160300000Y-125919207D01*
X160300000Y-125280793D01*
X160286977Y-125148569D01*
X160235514Y-124978919D01*
X160151943Y-124822568D01*
X160039475Y-124685525D01*
X159902431Y-124573057D01*
X159746080Y-124489486D01*
X159576430Y-124438023D01*
X159400000Y-124420646D01*
X159237674Y-124436634D01*
X158626020Y-123824980D01*
X162323940Y-123824980D01*
X162975000Y-124476041D01*
X162975000Y-124531669D01*
X162897568Y-124573057D01*
X162760525Y-124685525D01*
X162648057Y-124822569D01*
X162564486Y-124978920D01*
X162513023Y-125148570D01*
X162500000Y-125280794D01*
X162500000Y-125919207D01*
X162513023Y-126051431D01*
X162564486Y-126221081D01*
X162648058Y-126377432D01*
X162760526Y-126514475D01*
X162897569Y-126626943D01*
X163053920Y-126710514D01*
X163223570Y-126761977D01*
X163400000Y-126779354D01*
X163576431Y-126761977D01*
X163746081Y-126710514D01*
X163902432Y-126626943D01*
X164039475Y-126514475D01*
X164151943Y-126377432D01*
X164235514Y-126221081D01*
X164286977Y-126051431D01*
X164300000Y-125919207D01*
X164300000Y-125280793D01*
X164286977Y-125148569D01*
X164235514Y-124978919D01*
X164151943Y-124822568D01*
X164039475Y-124685525D01*
X163902431Y-124573057D01*
X163825000Y-124531669D01*
X163825000Y-124320866D01*
X163827055Y-124299999D01*
X163825000Y-124279132D01*
X163825000Y-124279126D01*
X163818850Y-124216686D01*
X163794548Y-124136573D01*
X163755084Y-124062740D01*
X163701974Y-123998026D01*
X163685761Y-123984720D01*
X163076010Y-123374970D01*
X163273930Y-123374970D01*
X164681174Y-124782215D01*
X164648057Y-124822569D01*
X164564486Y-124978920D01*
X164513023Y-125148570D01*
X164500000Y-125280794D01*
X164500000Y-125919207D01*
X164513023Y-126051431D01*
X164564486Y-126221081D01*
X164648058Y-126377432D01*
X164760526Y-126514475D01*
X164897569Y-126626943D01*
X165053920Y-126710514D01*
X165223570Y-126761977D01*
X165400000Y-126779354D01*
X165576431Y-126761977D01*
X165746081Y-126710514D01*
X165902432Y-126626943D01*
X166039475Y-126514475D01*
X166151943Y-126377432D01*
X166235514Y-126221081D01*
X166286977Y-126051431D01*
X166300000Y-125919207D01*
X166300000Y-125680793D01*
X169500000Y-125680793D01*
X169500000Y-126319206D01*
X169513023Y-126451430D01*
X169564486Y-126621080D01*
X169648057Y-126777431D01*
X169760525Y-126914475D01*
X169897568Y-127026943D01*
X170053919Y-127110514D01*
X170223569Y-127161977D01*
X170400000Y-127179354D01*
X170576430Y-127161977D01*
X170746080Y-127110514D01*
X170902431Y-127026943D01*
X171039475Y-126914475D01*
X171151943Y-126777432D01*
X171235514Y-126621081D01*
X171286977Y-126451431D01*
X171300000Y-126319207D01*
X171300000Y-125680793D01*
X171500000Y-125680793D01*
X171500000Y-126319206D01*
X171513023Y-126451430D01*
X171564486Y-126621080D01*
X171648057Y-126777431D01*
X171760525Y-126914475D01*
X171897568Y-127026943D01*
X172053919Y-127110514D01*
X172223569Y-127161977D01*
X172400000Y-127179354D01*
X172576430Y-127161977D01*
X172746080Y-127110514D01*
X172902431Y-127026943D01*
X173039475Y-126914475D01*
X173151943Y-126777432D01*
X173235514Y-126621081D01*
X173286977Y-126451431D01*
X173300000Y-126319207D01*
X173300000Y-125680793D01*
X173500000Y-125680793D01*
X173500000Y-126319206D01*
X173513023Y-126451430D01*
X173564486Y-126621080D01*
X173648057Y-126777431D01*
X173760525Y-126914475D01*
X173897568Y-127026943D01*
X174053919Y-127110514D01*
X174223569Y-127161977D01*
X174400000Y-127179354D01*
X174576430Y-127161977D01*
X174746080Y-127110514D01*
X174902431Y-127026943D01*
X175039475Y-126914475D01*
X175151943Y-126777432D01*
X175235514Y-126621081D01*
X175286977Y-126451431D01*
X175300000Y-126319207D01*
X175300000Y-125680793D01*
X175500000Y-125680793D01*
X175500000Y-126319206D01*
X175513023Y-126451430D01*
X175564486Y-126621080D01*
X175648057Y-126777431D01*
X175760525Y-126914475D01*
X175897568Y-127026943D01*
X176053919Y-127110514D01*
X176223569Y-127161977D01*
X176400000Y-127179354D01*
X176576430Y-127161977D01*
X176746080Y-127110514D01*
X176902431Y-127026943D01*
X177039475Y-126914475D01*
X177151943Y-126777432D01*
X177235514Y-126621081D01*
X177286977Y-126451431D01*
X177300000Y-126319207D01*
X177300000Y-125680793D01*
X177286977Y-125548569D01*
X177235514Y-125378919D01*
X177151943Y-125222568D01*
X177039475Y-125085525D01*
X176902432Y-124973057D01*
X176746081Y-124889486D01*
X176576431Y-124838023D01*
X176400000Y-124820646D01*
X176223570Y-124838023D01*
X176053920Y-124889486D01*
X175897569Y-124973057D01*
X175760526Y-125085525D01*
X175648058Y-125222568D01*
X175564486Y-125378919D01*
X175513023Y-125548569D01*
X175500000Y-125680793D01*
X175300000Y-125680793D01*
X175286977Y-125548569D01*
X175235514Y-125378919D01*
X175151943Y-125222568D01*
X175039475Y-125085525D01*
X174902432Y-124973057D01*
X174746081Y-124889486D01*
X174576431Y-124838023D01*
X174400000Y-124820646D01*
X174223570Y-124838023D01*
X174053920Y-124889486D01*
X173897569Y-124973057D01*
X173760526Y-125085525D01*
X173648058Y-125222568D01*
X173564486Y-125378919D01*
X173513023Y-125548569D01*
X173500000Y-125680793D01*
X173300000Y-125680793D01*
X173286977Y-125548569D01*
X173235514Y-125378919D01*
X173151943Y-125222568D01*
X173039475Y-125085525D01*
X172902432Y-124973057D01*
X172746081Y-124889486D01*
X172576431Y-124838023D01*
X172400000Y-124820646D01*
X172223570Y-124838023D01*
X172053920Y-124889486D01*
X171897569Y-124973057D01*
X171760526Y-125085525D01*
X171648058Y-125222568D01*
X171564486Y-125378919D01*
X171513023Y-125548569D01*
X171500000Y-125680793D01*
X171300000Y-125680793D01*
X171286977Y-125548569D01*
X171235514Y-125378919D01*
X171151943Y-125222568D01*
X171039475Y-125085525D01*
X170902432Y-124973057D01*
X170746081Y-124889486D01*
X170576431Y-124838023D01*
X170400000Y-124820646D01*
X170223570Y-124838023D01*
X170053920Y-124889486D01*
X169897569Y-124973057D01*
X169760526Y-125085525D01*
X169648058Y-125222568D01*
X169564486Y-125378919D01*
X169513023Y-125548569D01*
X169500000Y-125680793D01*
X166300000Y-125680793D01*
X166300000Y-125280793D01*
X166286977Y-125148569D01*
X166235514Y-124978919D01*
X166151943Y-124822568D01*
X166039475Y-124685525D01*
X165902431Y-124573057D01*
X165746080Y-124489486D01*
X165659604Y-124463254D01*
X165637260Y-124444916D01*
X165563427Y-124405452D01*
X165483314Y-124381150D01*
X165482068Y-124381027D01*
X163765253Y-122664213D01*
X163751944Y-122647996D01*
X163687230Y-122594886D01*
X163613397Y-122555422D01*
X163533284Y-122531120D01*
X163470844Y-122524970D01*
X163470837Y-122524970D01*
X163449970Y-122522915D01*
X163429103Y-122524970D01*
X156198831Y-122524970D01*
X154523861Y-120850000D01*
X177539058Y-120850000D01*
X177550797Y-120969189D01*
X177585563Y-121083797D01*
X177642020Y-121189421D01*
X177717999Y-121282001D01*
X177810579Y-121357980D01*
X177916203Y-121414437D01*
X178030811Y-121449203D01*
X178150000Y-121460942D01*
X178694000Y-121458000D01*
X178846000Y-121306000D01*
X178846000Y-120154000D01*
X179154000Y-120154000D01*
X179154000Y-121306000D01*
X179306000Y-121458000D01*
X179850000Y-121460942D01*
X179969189Y-121449203D01*
X180083797Y-121414437D01*
X180189421Y-121357980D01*
X180282001Y-121282001D01*
X180357980Y-121189421D01*
X180414437Y-121083797D01*
X180449203Y-120969189D01*
X180460942Y-120850000D01*
X180458000Y-120306000D01*
X180306000Y-120154000D01*
X179154000Y-120154000D01*
X178846000Y-120154000D01*
X177694000Y-120154000D01*
X177542000Y-120306000D01*
X177539058Y-120850000D01*
X154523861Y-120850000D01*
X153648861Y-119975000D01*
X161689058Y-119975000D01*
X161700797Y-120094189D01*
X161735563Y-120208797D01*
X161792020Y-120314421D01*
X161867999Y-120407001D01*
X161960579Y-120482980D01*
X162066203Y-120539437D01*
X162180811Y-120574203D01*
X162300000Y-120585942D01*
X162594000Y-120583000D01*
X162746000Y-120431000D01*
X162746000Y-119254000D01*
X161844000Y-119254000D01*
X161692000Y-119406000D01*
X161689058Y-119975000D01*
X153648861Y-119975000D01*
X151898861Y-118225000D01*
X161689058Y-118225000D01*
X161692000Y-118794000D01*
X161844000Y-118946000D01*
X162746000Y-118946000D01*
X162746000Y-117769000D01*
X163054000Y-117769000D01*
X163054000Y-118946000D01*
X163074000Y-118946000D01*
X163074000Y-119254000D01*
X163054000Y-119254000D01*
X163054000Y-120431000D01*
X163206000Y-120583000D01*
X163500000Y-120585942D01*
X163619189Y-120574203D01*
X163733797Y-120539437D01*
X163839421Y-120482980D01*
X163932001Y-120407001D01*
X164007980Y-120314421D01*
X164064437Y-120208797D01*
X164099203Y-120094189D01*
X164110942Y-119975000D01*
X164110070Y-119806362D01*
X164148058Y-119877432D01*
X164260526Y-120014475D01*
X164397569Y-120126943D01*
X164553920Y-120210514D01*
X164723570Y-120261977D01*
X164900000Y-120279354D01*
X165076431Y-120261977D01*
X165246081Y-120210514D01*
X165402432Y-120126943D01*
X165539475Y-120014475D01*
X165651943Y-119877432D01*
X165735514Y-119721081D01*
X165786977Y-119551431D01*
X165800000Y-119419207D01*
X165800000Y-118780794D01*
X166000000Y-118780794D01*
X166000000Y-119419207D01*
X166013023Y-119551431D01*
X166064486Y-119721081D01*
X166148058Y-119877432D01*
X166260526Y-120014475D01*
X166397569Y-120126943D01*
X166553920Y-120210514D01*
X166723570Y-120261977D01*
X166900000Y-120279354D01*
X167076431Y-120261977D01*
X167246081Y-120210514D01*
X167402432Y-120126943D01*
X167539475Y-120014475D01*
X167651943Y-119877432D01*
X167735514Y-119721081D01*
X167786977Y-119551431D01*
X167800000Y-119419207D01*
X167800000Y-118780794D01*
X168000000Y-118780794D01*
X168000000Y-119419207D01*
X168013023Y-119551431D01*
X168064486Y-119721081D01*
X168148058Y-119877432D01*
X168260526Y-120014475D01*
X168397569Y-120126943D01*
X168553920Y-120210514D01*
X168723570Y-120261977D01*
X168900000Y-120279354D01*
X169076431Y-120261977D01*
X169246081Y-120210514D01*
X169402432Y-120126943D01*
X169539475Y-120014475D01*
X169651943Y-119877432D01*
X169735514Y-119721081D01*
X169786977Y-119551431D01*
X169800000Y-119419207D01*
X169800000Y-118780793D01*
X169786977Y-118648569D01*
X169735514Y-118478919D01*
X169651943Y-118322568D01*
X169539475Y-118185525D01*
X169402431Y-118073057D01*
X169246080Y-117989486D01*
X169076430Y-117938023D01*
X168900000Y-117920646D01*
X168723569Y-117938023D01*
X168553919Y-117989486D01*
X168397568Y-118073057D01*
X168260525Y-118185525D01*
X168148057Y-118322569D01*
X168064486Y-118478920D01*
X168013023Y-118648570D01*
X168000000Y-118780794D01*
X167800000Y-118780794D01*
X167800000Y-118780793D01*
X167786977Y-118648569D01*
X167735514Y-118478919D01*
X167651943Y-118322568D01*
X167539475Y-118185525D01*
X167402431Y-118073057D01*
X167246080Y-117989486D01*
X167076430Y-117938023D01*
X166900000Y-117920646D01*
X166723569Y-117938023D01*
X166553919Y-117989486D01*
X166397568Y-118073057D01*
X166260525Y-118185525D01*
X166148057Y-118322569D01*
X166064486Y-118478920D01*
X166013023Y-118648570D01*
X166000000Y-118780794D01*
X165800000Y-118780794D01*
X165800000Y-118780793D01*
X165786977Y-118648569D01*
X165735514Y-118478919D01*
X165651943Y-118322568D01*
X165539475Y-118185525D01*
X165402431Y-118073057D01*
X165246080Y-117989486D01*
X165076430Y-117938023D01*
X164900000Y-117920646D01*
X164723569Y-117938023D01*
X164553919Y-117989486D01*
X164397568Y-118073057D01*
X164260525Y-118185525D01*
X164148057Y-118322569D01*
X164110070Y-118393638D01*
X164110942Y-118225000D01*
X164099203Y-118105811D01*
X164064437Y-117991203D01*
X164007980Y-117885579D01*
X163932001Y-117792999D01*
X163839421Y-117717020D01*
X163733797Y-117660563D01*
X163619189Y-117625797D01*
X163500000Y-117614058D01*
X163206000Y-117617000D01*
X163054000Y-117769000D01*
X162746000Y-117769000D01*
X162594000Y-117617000D01*
X162300000Y-117614058D01*
X162180811Y-117625797D01*
X162066203Y-117660563D01*
X161960579Y-117717020D01*
X161867999Y-117792999D01*
X161792020Y-117885579D01*
X161735563Y-117991203D01*
X161700797Y-118105811D01*
X161689058Y-118225000D01*
X151898861Y-118225000D01*
X150125000Y-116451140D01*
X150125000Y-114520867D01*
X150127055Y-114500000D01*
X150125000Y-114479133D01*
X150125000Y-114479126D01*
X150118850Y-114416686D01*
X150094548Y-114336573D01*
X150055084Y-114262740D01*
X150021530Y-114221855D01*
X150015280Y-114214239D01*
X150015279Y-114214238D01*
X150001974Y-114198026D01*
X149985762Y-114184721D01*
X149693588Y-113892547D01*
X149731056Y-113900000D01*
X149868944Y-113900000D01*
X150004182Y-113873099D01*
X150131574Y-113820332D01*
X150246224Y-113743726D01*
X150343726Y-113646224D01*
X150357907Y-113625000D01*
X150623960Y-113625000D01*
X151304980Y-114306021D01*
X151300000Y-114331056D01*
X151300000Y-114468944D01*
X151326901Y-114604182D01*
X151379668Y-114731574D01*
X151456274Y-114846224D01*
X151553776Y-114943726D01*
X151668426Y-115020332D01*
X151795818Y-115073099D01*
X151931056Y-115100000D01*
X152068944Y-115100000D01*
X152204182Y-115073099D01*
X152331574Y-115020332D01*
X152446224Y-114943726D01*
X152543726Y-114846224D01*
X152620332Y-114731574D01*
X152673099Y-114604182D01*
X152700000Y-114468944D01*
X152700000Y-114331056D01*
X152673099Y-114195818D01*
X152620332Y-114068426D01*
X152543726Y-113953776D01*
X152446224Y-113856274D01*
X152331574Y-113779668D01*
X152204182Y-113726901D01*
X152068944Y-113700000D01*
X151931056Y-113700000D01*
X151906021Y-113704980D01*
X151115283Y-112914243D01*
X151101974Y-112898026D01*
X151037260Y-112844916D01*
X150963427Y-112805452D01*
X150883314Y-112781150D01*
X150820874Y-112775000D01*
X150820867Y-112775000D01*
X150800000Y-112772945D01*
X150779133Y-112775000D01*
X150357907Y-112775000D01*
X150343726Y-112753776D01*
X150246224Y-112656274D01*
X150131574Y-112579668D01*
X150004182Y-112526901D01*
X149868944Y-112500000D01*
X149731056Y-112500000D01*
X149595818Y-112526901D01*
X149468426Y-112579668D01*
X149353776Y-112656274D01*
X149256274Y-112753776D01*
X149179668Y-112868426D01*
X149126901Y-112995818D01*
X149100000Y-113131056D01*
X149100000Y-113268944D01*
X149107453Y-113306412D01*
X147625000Y-111823960D01*
X147625000Y-109757907D01*
X147646224Y-109743726D01*
X147743726Y-109646224D01*
X147820332Y-109531574D01*
X147873099Y-109404182D01*
X147900000Y-109268944D01*
X147900000Y-109131056D01*
X147873099Y-108995818D01*
X147820332Y-108868426D01*
X147791316Y-108825000D01*
X155600000Y-108825000D01*
X155600000Y-108868944D01*
X155626901Y-109004182D01*
X155679668Y-109131574D01*
X155756274Y-109246224D01*
X155853776Y-109343726D01*
X155968426Y-109420332D01*
X156095818Y-109473099D01*
X156231056Y-109500000D01*
X156368944Y-109500000D01*
X156504182Y-109473099D01*
X156631574Y-109420332D01*
X156746224Y-109343726D01*
X156843726Y-109246224D01*
X156920332Y-109131574D01*
X156973099Y-109004182D01*
X156999046Y-108873741D01*
X157131056Y-108900000D01*
X157268944Y-108900000D01*
X157404182Y-108873099D01*
X157531574Y-108820332D01*
X157646224Y-108743726D01*
X157743726Y-108646224D01*
X157820332Y-108531574D01*
X157873099Y-108404182D01*
X157900000Y-108268944D01*
X157900000Y-108131056D01*
X157873099Y-107995818D01*
X157820332Y-107868426D01*
X157791316Y-107825000D01*
X166323960Y-107825000D01*
X168298960Y-109800000D01*
X168231056Y-109800000D01*
X168095818Y-109826901D01*
X167968426Y-109879668D01*
X167853776Y-109956274D01*
X167756274Y-110053776D01*
X167679668Y-110168426D01*
X167626901Y-110295818D01*
X167600000Y-110431056D01*
X167600000Y-110568944D01*
X167626901Y-110704182D01*
X167679668Y-110831574D01*
X167756274Y-110946224D01*
X167853776Y-111043726D01*
X167968426Y-111120332D01*
X168095818Y-111173099D01*
X168231056Y-111200000D01*
X168368944Y-111200000D01*
X168393980Y-111195020D01*
X170475000Y-113276041D01*
X170475001Y-118031668D01*
X170397568Y-118073057D01*
X170260525Y-118185525D01*
X170148057Y-118322569D01*
X170064486Y-118478920D01*
X170013023Y-118648570D01*
X170000000Y-118780794D01*
X170000000Y-119419207D01*
X170013023Y-119551431D01*
X170064486Y-119721081D01*
X170148058Y-119877432D01*
X170260526Y-120014475D01*
X170397569Y-120126943D01*
X170553920Y-120210514D01*
X170723570Y-120261977D01*
X170900000Y-120279354D01*
X171076431Y-120261977D01*
X171246081Y-120210514D01*
X171402432Y-120126943D01*
X171539475Y-120014475D01*
X171651943Y-119877432D01*
X171735514Y-119721081D01*
X171786977Y-119551431D01*
X171800000Y-119419207D01*
X171800000Y-118780794D01*
X172000000Y-118780794D01*
X172000000Y-119419207D01*
X172013023Y-119551431D01*
X172064486Y-119721081D01*
X172148058Y-119877432D01*
X172260526Y-120014475D01*
X172397569Y-120126943D01*
X172553920Y-120210514D01*
X172723570Y-120261977D01*
X172900000Y-120279354D01*
X173076431Y-120261977D01*
X173246081Y-120210514D01*
X173402432Y-120126943D01*
X173539475Y-120014475D01*
X173651943Y-119877432D01*
X173735514Y-119721081D01*
X173786977Y-119551431D01*
X173800000Y-119419207D01*
X173800000Y-118780793D01*
X173786977Y-118648569D01*
X173735514Y-118478919D01*
X173651943Y-118322568D01*
X173539475Y-118185525D01*
X173402431Y-118073057D01*
X173246080Y-117989486D01*
X173076430Y-117938023D01*
X172900000Y-117920646D01*
X172723569Y-117938023D01*
X172553919Y-117989486D01*
X172397568Y-118073057D01*
X172260525Y-118185525D01*
X172148057Y-118322569D01*
X172064486Y-118478920D01*
X172013023Y-118648570D01*
X172000000Y-118780794D01*
X171800000Y-118780794D01*
X171800000Y-118780793D01*
X171786977Y-118648569D01*
X171735514Y-118478919D01*
X171651943Y-118322568D01*
X171539475Y-118185525D01*
X171402431Y-118073057D01*
X171325000Y-118031669D01*
X171325000Y-113120866D01*
X171327055Y-113099999D01*
X171325000Y-113079132D01*
X171325000Y-113079126D01*
X171318850Y-113016686D01*
X171318424Y-113015280D01*
X171304193Y-112968368D01*
X171294548Y-112936573D01*
X171255084Y-112862740D01*
X171201974Y-112798026D01*
X171185761Y-112784720D01*
X168995020Y-110593980D01*
X169000000Y-110568944D01*
X169000000Y-110501040D01*
X173004980Y-114506020D01*
X173000000Y-114531056D01*
X173000000Y-114668944D01*
X173026901Y-114804182D01*
X173079668Y-114931574D01*
X173156274Y-115046224D01*
X173253776Y-115143726D01*
X173368426Y-115220332D01*
X173495818Y-115273099D01*
X173631056Y-115300000D01*
X173768944Y-115300000D01*
X173904182Y-115273099D01*
X174031574Y-115220332D01*
X174146224Y-115143726D01*
X174243726Y-115046224D01*
X174320332Y-114931574D01*
X174373099Y-114804182D01*
X174400000Y-114668944D01*
X174400000Y-114531056D01*
X174373099Y-114395818D01*
X174320332Y-114268426D01*
X174243726Y-114153776D01*
X174146224Y-114056274D01*
X174031574Y-113979668D01*
X173904182Y-113926901D01*
X173768944Y-113900000D01*
X173631056Y-113900000D01*
X173606020Y-113904980D01*
X173257835Y-113556795D01*
X173266845Y-113556795D01*
X173353776Y-113643726D01*
X173468426Y-113720332D01*
X173595818Y-113773099D01*
X173731056Y-113800000D01*
X173868944Y-113800000D01*
X174004182Y-113773099D01*
X174131574Y-113720332D01*
X174246224Y-113643726D01*
X174343726Y-113546224D01*
X174420332Y-113431574D01*
X174473099Y-113304182D01*
X174500000Y-113168944D01*
X174500000Y-113031056D01*
X174473099Y-112895818D01*
X174420332Y-112768426D01*
X174343726Y-112653776D01*
X174246224Y-112556274D01*
X174162003Y-112500000D01*
X174246224Y-112443726D01*
X174343726Y-112346224D01*
X174420332Y-112231574D01*
X174473099Y-112104182D01*
X174500000Y-111968944D01*
X174500000Y-111831056D01*
X174473099Y-111695818D01*
X174420332Y-111568426D01*
X174343726Y-111453776D01*
X174246224Y-111356274D01*
X174131574Y-111279668D01*
X174004182Y-111226901D01*
X173868944Y-111200000D01*
X173731056Y-111200000D01*
X173595818Y-111226901D01*
X173468426Y-111279668D01*
X173353776Y-111356274D01*
X173271460Y-111438590D01*
X172412451Y-111438590D01*
X169304917Y-108331056D01*
X174100000Y-108331056D01*
X174100000Y-108468944D01*
X174126901Y-108604182D01*
X174179668Y-108731574D01*
X174256274Y-108846224D01*
X174353776Y-108943726D01*
X174468426Y-109020332D01*
X174595818Y-109073099D01*
X174731056Y-109100000D01*
X174868944Y-109100000D01*
X174893980Y-109095020D01*
X178575000Y-112776041D01*
X178575001Y-116387176D01*
X178557785Y-116392398D01*
X178358003Y-116499184D01*
X178182893Y-116642893D01*
X178039184Y-116818003D01*
X177932398Y-117017785D01*
X177866640Y-117234561D01*
X177844436Y-117460000D01*
X177866640Y-117685439D01*
X177932398Y-117902215D01*
X178039184Y-118101997D01*
X178182893Y-118277107D01*
X178358003Y-118420816D01*
X178557785Y-118527602D01*
X178603638Y-118541511D01*
X178150000Y-118539058D01*
X178030811Y-118550797D01*
X177916203Y-118585563D01*
X177810579Y-118642020D01*
X177717999Y-118717999D01*
X177642020Y-118810579D01*
X177585563Y-118916203D01*
X177550797Y-119030811D01*
X177539058Y-119150000D01*
X177542000Y-119694000D01*
X177694000Y-119846000D01*
X178846000Y-119846000D01*
X178846000Y-119826000D01*
X179154000Y-119826000D01*
X179154000Y-119846000D01*
X180306000Y-119846000D01*
X180458000Y-119694000D01*
X180460942Y-119150000D01*
X180449203Y-119030811D01*
X180414437Y-118916203D01*
X180357980Y-118810579D01*
X180282001Y-118717999D01*
X180189421Y-118642020D01*
X180083797Y-118585563D01*
X179969189Y-118550797D01*
X179850000Y-118539058D01*
X179396362Y-118541511D01*
X179442215Y-118527602D01*
X179641997Y-118420816D01*
X179817107Y-118277107D01*
X179960816Y-118101997D01*
X180067602Y-117902215D01*
X180133360Y-117685439D01*
X180155564Y-117460000D01*
X180133360Y-117234561D01*
X180067602Y-117017785D01*
X179960816Y-116818003D01*
X179817107Y-116642893D01*
X179641997Y-116499184D01*
X179442215Y-116392398D01*
X179425000Y-116387176D01*
X179425000Y-112620867D01*
X179427055Y-112600000D01*
X179425000Y-112579133D01*
X179425000Y-112579126D01*
X179418850Y-112516686D01*
X179394548Y-112436573D01*
X179355084Y-112362740D01*
X179301974Y-112298026D01*
X179285763Y-112284722D01*
X175495020Y-108493980D01*
X175500000Y-108468944D01*
X175500000Y-108331056D01*
X175473099Y-108195818D01*
X175420332Y-108068426D01*
X175343726Y-107953776D01*
X175246224Y-107856274D01*
X175131574Y-107779668D01*
X175004182Y-107726901D01*
X174868944Y-107700000D01*
X174731056Y-107700000D01*
X174595818Y-107726901D01*
X174468426Y-107779668D01*
X174353776Y-107856274D01*
X174256274Y-107953776D01*
X174179668Y-108068426D01*
X174126901Y-108195818D01*
X174100000Y-108331056D01*
X169304917Y-108331056D01*
X167188084Y-106214224D01*
X167174774Y-106198006D01*
X167110060Y-106144896D01*
X167036227Y-106105432D01*
X166956114Y-106081130D01*
X166893674Y-106074980D01*
X166893667Y-106074980D01*
X166872800Y-106072925D01*
X166851933Y-106074980D01*
X165099449Y-106074980D01*
X165146224Y-106043726D01*
X165243726Y-105946224D01*
X165320332Y-105831574D01*
X165373099Y-105704182D01*
X165400000Y-105568944D01*
X165400000Y-105431056D01*
X165395020Y-105406020D01*
X167176041Y-103625000D01*
X174042093Y-103625000D01*
X174056274Y-103646224D01*
X174153776Y-103743726D01*
X174268426Y-103820332D01*
X174395818Y-103873099D01*
X174531056Y-103900000D01*
X174668944Y-103900000D01*
X174804182Y-103873099D01*
X174931574Y-103820332D01*
X175046224Y-103743726D01*
X175143726Y-103646224D01*
X175220332Y-103531574D01*
X175273099Y-103404182D01*
X175300000Y-103268944D01*
X175300000Y-103131056D01*
X175273099Y-102995818D01*
X175220332Y-102868426D01*
X175143726Y-102753776D01*
X175046224Y-102656274D01*
X174931574Y-102579668D01*
X174859948Y-102550000D01*
X174931574Y-102520332D01*
X175046224Y-102443726D01*
X175143726Y-102346224D01*
X175220332Y-102231574D01*
X175273099Y-102104182D01*
X175300000Y-101968944D01*
X175300000Y-101831056D01*
X175273099Y-101695818D01*
X175220332Y-101568426D01*
X175143726Y-101453776D01*
X175046224Y-101356274D01*
X174931574Y-101279668D01*
X174859948Y-101250000D01*
X174931574Y-101220332D01*
X175046224Y-101143726D01*
X175143726Y-101046224D01*
X175220332Y-100931574D01*
X175273099Y-100804182D01*
X175300000Y-100668944D01*
X175300000Y-100531056D01*
X175273099Y-100395818D01*
X175220332Y-100268426D01*
X175143726Y-100153776D01*
X175046224Y-100056274D01*
X174931574Y-99979668D01*
X174804182Y-99926901D01*
X174668944Y-99900000D01*
X174531056Y-99900000D01*
X174395818Y-99926901D01*
X174268426Y-99979668D01*
X174153776Y-100056274D01*
X174056274Y-100153776D01*
X174042093Y-100175000D01*
X167220866Y-100175000D01*
X167199999Y-100172945D01*
X167179132Y-100175000D01*
X167179126Y-100175000D01*
X167125098Y-100180321D01*
X167116685Y-100181150D01*
X167092383Y-100188522D01*
X167036573Y-100205452D01*
X166962740Y-100244916D01*
X166898026Y-100298026D01*
X166884721Y-100314238D01*
X164193980Y-103004980D01*
X164168944Y-103000000D01*
X164031056Y-103000000D01*
X163895818Y-103026901D01*
X163768426Y-103079668D01*
X163653776Y-103156274D01*
X163625000Y-103185050D01*
X163625000Y-102012450D01*
X167062441Y-98575010D01*
X183285060Y-98575010D01*
X183353776Y-98643726D01*
X183468426Y-98720332D01*
X183595818Y-98773099D01*
X183620876Y-98778083D01*
X178214239Y-104184721D01*
X178198027Y-104198026D01*
X178144917Y-104262740D01*
X178116083Y-104316686D01*
X178105453Y-104336573D01*
X178081150Y-104416686D01*
X178072945Y-104500000D01*
X178075001Y-104520877D01*
X178075000Y-109642093D01*
X178053776Y-109656274D01*
X177956274Y-109753776D01*
X177879668Y-109868426D01*
X177826901Y-109995818D01*
X177800000Y-110131056D01*
X177800000Y-110268944D01*
X177826901Y-110404182D01*
X177879668Y-110531574D01*
X177956274Y-110646224D01*
X178053776Y-110743726D01*
X178168426Y-110820332D01*
X178295818Y-110873099D01*
X178431056Y-110900000D01*
X178568944Y-110900000D01*
X178593980Y-110895020D01*
X180575001Y-112876042D01*
X180575000Y-121823959D01*
X178114239Y-124284721D01*
X178098027Y-124298026D01*
X178044917Y-124362740D01*
X178013966Y-124420646D01*
X178005453Y-124436573D01*
X177981150Y-124516686D01*
X177972945Y-124600000D01*
X177975001Y-124620876D01*
X177975001Y-124931669D01*
X177897569Y-124973057D01*
X177760526Y-125085525D01*
X177648058Y-125222568D01*
X177564486Y-125378919D01*
X177513023Y-125548569D01*
X177500000Y-125680793D01*
X177500000Y-126319206D01*
X177513023Y-126451430D01*
X177564486Y-126621080D01*
X177648057Y-126777431D01*
X177760525Y-126914475D01*
X177897568Y-127026943D01*
X178053919Y-127110514D01*
X178223569Y-127161977D01*
X178400000Y-127179354D01*
X178576430Y-127161977D01*
X178746080Y-127110514D01*
X178902431Y-127026943D01*
X179039475Y-126914475D01*
X179151943Y-126777432D01*
X179189930Y-126706363D01*
X179189058Y-126875000D01*
X179200797Y-126994189D01*
X179235563Y-127108797D01*
X179292020Y-127214421D01*
X179367999Y-127307001D01*
X179460579Y-127382980D01*
X179566203Y-127439437D01*
X179680811Y-127474203D01*
X179800000Y-127485942D01*
X180094000Y-127483000D01*
X180246000Y-127331000D01*
X180246000Y-126154000D01*
X180554000Y-126154000D01*
X180554000Y-127331000D01*
X180706000Y-127483000D01*
X181000000Y-127485942D01*
X181119189Y-127474203D01*
X181233797Y-127439437D01*
X181339421Y-127382980D01*
X181432001Y-127307001D01*
X181507980Y-127214421D01*
X181564437Y-127108797D01*
X181599203Y-126994189D01*
X181610942Y-126875000D01*
X181608000Y-126306000D01*
X181456000Y-126154000D01*
X180554000Y-126154000D01*
X180246000Y-126154000D01*
X180226000Y-126154000D01*
X180226000Y-125846000D01*
X180246000Y-125846000D01*
X180246000Y-124669000D01*
X180554000Y-124669000D01*
X180554000Y-125846000D01*
X181456000Y-125846000D01*
X181608000Y-125694000D01*
X181610942Y-125125000D01*
X181599203Y-125005811D01*
X181564437Y-124891203D01*
X181507980Y-124785579D01*
X181432001Y-124692999D01*
X181339421Y-124617020D01*
X181233797Y-124560563D01*
X181119189Y-124525797D01*
X181000000Y-124514058D01*
X180706000Y-124517000D01*
X180554000Y-124669000D01*
X180246000Y-124669000D01*
X180094000Y-124517000D01*
X179800000Y-124514058D01*
X179680811Y-124525797D01*
X179566203Y-124560563D01*
X179460579Y-124617020D01*
X179367999Y-124692999D01*
X179292020Y-124785579D01*
X179235563Y-124891203D01*
X179200797Y-125005811D01*
X179189058Y-125125000D01*
X179189930Y-125293637D01*
X179151943Y-125222568D01*
X179039475Y-125085525D01*
X178902432Y-124973057D01*
X178825000Y-124931669D01*
X178825000Y-124776040D01*
X180962841Y-122638199D01*
X182079590Y-122638199D01*
X182179181Y-122891762D01*
X182466472Y-123025154D01*
X182774265Y-123099934D01*
X183090735Y-123113230D01*
X183403716Y-123064531D01*
X183701184Y-122955708D01*
X183820819Y-122891762D01*
X183920410Y-122638199D01*
X188579590Y-122638199D01*
X188679181Y-122891762D01*
X188966472Y-123025154D01*
X189274265Y-123099934D01*
X189590735Y-123113230D01*
X189903716Y-123064531D01*
X190201184Y-122955708D01*
X190320819Y-122891762D01*
X190420410Y-122638199D01*
X189500000Y-121717789D01*
X188579590Y-122638199D01*
X183920410Y-122638199D01*
X183000000Y-121717789D01*
X182079590Y-122638199D01*
X180962841Y-122638199D01*
X181285763Y-122315278D01*
X181301974Y-122301974D01*
X181355084Y-122237260D01*
X181394548Y-122163427D01*
X181418850Y-122083314D01*
X181425000Y-122020874D01*
X181425000Y-122020868D01*
X181427055Y-122000001D01*
X181425000Y-121979134D01*
X181425000Y-121836433D01*
X181435469Y-121903716D01*
X181544292Y-122201184D01*
X181608238Y-122320819D01*
X181861801Y-122420410D01*
X182782211Y-121500000D01*
X183217789Y-121500000D01*
X184138199Y-122420410D01*
X184391762Y-122320819D01*
X184525154Y-122033528D01*
X184599934Y-121725735D01*
X184605605Y-121590735D01*
X187886770Y-121590735D01*
X187935469Y-121903716D01*
X188044292Y-122201184D01*
X188108238Y-122320819D01*
X188361801Y-122420410D01*
X189282211Y-121500000D01*
X189717789Y-121500000D01*
X190638199Y-122420410D01*
X190891762Y-122320819D01*
X191025154Y-122033528D01*
X191099934Y-121725735D01*
X191113230Y-121409265D01*
X191064531Y-121096284D01*
X190955708Y-120798816D01*
X190891762Y-120679181D01*
X190638199Y-120579590D01*
X189717789Y-121500000D01*
X189282211Y-121500000D01*
X188361801Y-120579590D01*
X188108238Y-120679181D01*
X187974846Y-120966472D01*
X187900066Y-121274265D01*
X187886770Y-121590735D01*
X184605605Y-121590735D01*
X184613230Y-121409265D01*
X184564531Y-121096284D01*
X184455708Y-120798816D01*
X184391762Y-120679181D01*
X184138199Y-120579590D01*
X183217789Y-121500000D01*
X182782211Y-121500000D01*
X181861801Y-120579590D01*
X181608238Y-120679181D01*
X181474846Y-120966472D01*
X181425000Y-121171637D01*
X181425000Y-120361801D01*
X182079590Y-120361801D01*
X183000000Y-121282211D01*
X183920410Y-120361801D01*
X188579590Y-120361801D01*
X189500000Y-121282211D01*
X190420410Y-120361801D01*
X190320819Y-120108238D01*
X190033528Y-119974846D01*
X189725735Y-119900066D01*
X189409265Y-119886770D01*
X189096284Y-119935469D01*
X188798816Y-120044292D01*
X188679181Y-120108238D01*
X188579590Y-120361801D01*
X183920410Y-120361801D01*
X183820819Y-120108238D01*
X183533528Y-119974846D01*
X183225735Y-119900066D01*
X182909265Y-119886770D01*
X182596284Y-119935469D01*
X182298816Y-120044292D01*
X182179181Y-120108238D01*
X182079590Y-120361801D01*
X181425000Y-120361801D01*
X181425000Y-116871961D01*
X181700000Y-116871961D01*
X181700000Y-117128039D01*
X181749958Y-117379196D01*
X181847955Y-117615781D01*
X181990224Y-117828702D01*
X182171298Y-118009776D01*
X182384219Y-118152045D01*
X182620804Y-118250042D01*
X182871961Y-118300000D01*
X183128039Y-118300000D01*
X183379196Y-118250042D01*
X183615781Y-118152045D01*
X183828702Y-118009776D01*
X184009776Y-117828702D01*
X184152045Y-117615781D01*
X184250042Y-117379196D01*
X184300000Y-117128039D01*
X184300000Y-116871961D01*
X188200000Y-116871961D01*
X188200000Y-117128039D01*
X188249958Y-117379196D01*
X188347955Y-117615781D01*
X188490224Y-117828702D01*
X188671298Y-118009776D01*
X188884219Y-118152045D01*
X189120804Y-118250042D01*
X189371961Y-118300000D01*
X189628039Y-118300000D01*
X189879196Y-118250042D01*
X190115781Y-118152045D01*
X190328702Y-118009776D01*
X190509776Y-117828702D01*
X190652045Y-117615781D01*
X190750042Y-117379196D01*
X190800000Y-117128039D01*
X190800000Y-116871961D01*
X190750042Y-116620804D01*
X190652045Y-116384219D01*
X190509776Y-116171298D01*
X190328702Y-115990224D01*
X190115781Y-115847955D01*
X189879196Y-115749958D01*
X189628039Y-115700000D01*
X189371961Y-115700000D01*
X189120804Y-115749958D01*
X188884219Y-115847955D01*
X188671298Y-115990224D01*
X188490224Y-116171298D01*
X188347955Y-116384219D01*
X188249958Y-116620804D01*
X188200000Y-116871961D01*
X184300000Y-116871961D01*
X184250042Y-116620804D01*
X184152045Y-116384219D01*
X184009776Y-116171298D01*
X183828702Y-115990224D01*
X183615781Y-115847955D01*
X183379196Y-115749958D01*
X183128039Y-115700000D01*
X182871961Y-115700000D01*
X182620804Y-115749958D01*
X182384219Y-115847955D01*
X182171298Y-115990224D01*
X181990224Y-116171298D01*
X181847955Y-116384219D01*
X181749958Y-116620804D01*
X181700000Y-116871961D01*
X181425000Y-116871961D01*
X181425000Y-112720867D01*
X181427055Y-112700000D01*
X181425000Y-112679133D01*
X181425000Y-112679126D01*
X181418850Y-112616686D01*
X181394548Y-112536573D01*
X181355084Y-112462740D01*
X181301974Y-112398026D01*
X181285762Y-112384721D01*
X181273002Y-112371961D01*
X181700000Y-112371961D01*
X181700000Y-112628039D01*
X181749958Y-112879196D01*
X181847955Y-113115781D01*
X181990224Y-113328702D01*
X182171298Y-113509776D01*
X182384219Y-113652045D01*
X182620804Y-113750042D01*
X182871961Y-113800000D01*
X183128039Y-113800000D01*
X183379196Y-113750042D01*
X183615781Y-113652045D01*
X183828702Y-113509776D01*
X184009776Y-113328702D01*
X184152045Y-113115781D01*
X184250042Y-112879196D01*
X184300000Y-112628039D01*
X184300000Y-112371961D01*
X188200000Y-112371961D01*
X188200000Y-112628039D01*
X188249958Y-112879196D01*
X188347955Y-113115781D01*
X188490224Y-113328702D01*
X188671298Y-113509776D01*
X188884219Y-113652045D01*
X189120804Y-113750042D01*
X189371961Y-113800000D01*
X189628039Y-113800000D01*
X189879196Y-113750042D01*
X190115781Y-113652045D01*
X190328702Y-113509776D01*
X190509776Y-113328702D01*
X190652045Y-113115781D01*
X190750042Y-112879196D01*
X190800000Y-112628039D01*
X190800000Y-112371961D01*
X190750042Y-112120804D01*
X190652045Y-111884219D01*
X190509776Y-111671298D01*
X190328702Y-111490224D01*
X190115781Y-111347955D01*
X189879196Y-111249958D01*
X189628039Y-111200000D01*
X189371961Y-111200000D01*
X189120804Y-111249958D01*
X188884219Y-111347955D01*
X188671298Y-111490224D01*
X188490224Y-111671298D01*
X188347955Y-111884219D01*
X188249958Y-112120804D01*
X188200000Y-112371961D01*
X184300000Y-112371961D01*
X184250042Y-112120804D01*
X184152045Y-111884219D01*
X184009776Y-111671298D01*
X183828702Y-111490224D01*
X183615781Y-111347955D01*
X183379196Y-111249958D01*
X183128039Y-111200000D01*
X182871961Y-111200000D01*
X182620804Y-111249958D01*
X182384219Y-111347955D01*
X182171298Y-111490224D01*
X181990224Y-111671298D01*
X181847955Y-111884219D01*
X181749958Y-112120804D01*
X181700000Y-112371961D01*
X181273002Y-112371961D01*
X179195020Y-110293980D01*
X179200000Y-110268944D01*
X179200000Y-110131056D01*
X179173099Y-109995818D01*
X179120332Y-109868426D01*
X179043726Y-109753776D01*
X178946224Y-109656274D01*
X178925000Y-109642093D01*
X178925000Y-109138199D01*
X182079590Y-109138199D01*
X182179181Y-109391762D01*
X182466472Y-109525154D01*
X182774265Y-109599934D01*
X183090735Y-109613230D01*
X183403716Y-109564531D01*
X183701184Y-109455708D01*
X183820819Y-109391762D01*
X183920410Y-109138199D01*
X188579590Y-109138199D01*
X188679181Y-109391762D01*
X188966472Y-109525154D01*
X189274265Y-109599934D01*
X189590735Y-109613230D01*
X189903716Y-109564531D01*
X190201184Y-109455708D01*
X190320819Y-109391762D01*
X190420410Y-109138199D01*
X189500000Y-108217789D01*
X188579590Y-109138199D01*
X183920410Y-109138199D01*
X183000000Y-108217789D01*
X182079590Y-109138199D01*
X178925000Y-109138199D01*
X178925000Y-108090735D01*
X181386770Y-108090735D01*
X181435469Y-108403716D01*
X181544292Y-108701184D01*
X181608238Y-108820819D01*
X181861801Y-108920410D01*
X182782211Y-108000000D01*
X183217789Y-108000000D01*
X184138199Y-108920410D01*
X184391762Y-108820819D01*
X184525154Y-108533528D01*
X184599934Y-108225735D01*
X184605605Y-108090735D01*
X187886770Y-108090735D01*
X187935469Y-108403716D01*
X188044292Y-108701184D01*
X188108238Y-108820819D01*
X188361801Y-108920410D01*
X189282211Y-108000000D01*
X189717789Y-108000000D01*
X190638199Y-108920410D01*
X190891762Y-108820819D01*
X191025154Y-108533528D01*
X191099934Y-108225735D01*
X191113230Y-107909265D01*
X191064531Y-107596284D01*
X190955708Y-107298816D01*
X190891762Y-107179181D01*
X190638199Y-107079590D01*
X189717789Y-108000000D01*
X189282211Y-108000000D01*
X188361801Y-107079590D01*
X188108238Y-107179181D01*
X187974846Y-107466472D01*
X187900066Y-107774265D01*
X187886770Y-108090735D01*
X184605605Y-108090735D01*
X184613230Y-107909265D01*
X184564531Y-107596284D01*
X184455708Y-107298816D01*
X184391762Y-107179181D01*
X184138199Y-107079590D01*
X183217789Y-108000000D01*
X182782211Y-108000000D01*
X181861801Y-107079590D01*
X181608238Y-107179181D01*
X181474846Y-107466472D01*
X181400066Y-107774265D01*
X181386770Y-108090735D01*
X178925000Y-108090735D01*
X178925000Y-106861801D01*
X182079590Y-106861801D01*
X183000000Y-107782211D01*
X183920410Y-106861801D01*
X188579590Y-106861801D01*
X189500000Y-107782211D01*
X190420410Y-106861801D01*
X190320819Y-106608238D01*
X190033528Y-106474846D01*
X189725735Y-106400066D01*
X189409265Y-106386770D01*
X189096284Y-106435469D01*
X188798816Y-106544292D01*
X188679181Y-106608238D01*
X188579590Y-106861801D01*
X183920410Y-106861801D01*
X183820819Y-106608238D01*
X183533528Y-106474846D01*
X183225735Y-106400066D01*
X182909265Y-106386770D01*
X182596284Y-106435469D01*
X182298816Y-106544292D01*
X182179181Y-106608238D01*
X182079590Y-106861801D01*
X178925000Y-106861801D01*
X178925000Y-105231056D01*
X185400000Y-105231056D01*
X185400000Y-105368944D01*
X185426901Y-105504182D01*
X185479668Y-105631574D01*
X185556274Y-105746224D01*
X185653776Y-105843726D01*
X185768426Y-105920332D01*
X185895818Y-105973099D01*
X186031056Y-106000000D01*
X186168944Y-106000000D01*
X186304182Y-105973099D01*
X186431574Y-105920332D01*
X186546224Y-105843726D01*
X186643726Y-105746224D01*
X186720332Y-105631574D01*
X186773099Y-105504182D01*
X186800000Y-105368944D01*
X186800000Y-105231056D01*
X186773099Y-105095818D01*
X186720332Y-104968426D01*
X186643726Y-104853776D01*
X186546224Y-104756274D01*
X186525000Y-104742093D01*
X186525000Y-104476040D01*
X186707453Y-104293587D01*
X186700000Y-104331056D01*
X186700000Y-104468944D01*
X186726901Y-104604182D01*
X186779668Y-104731574D01*
X186856274Y-104846224D01*
X186953776Y-104943726D01*
X187068426Y-105020332D01*
X187195818Y-105073099D01*
X187331056Y-105100000D01*
X187468944Y-105100000D01*
X187604182Y-105073099D01*
X187731574Y-105020332D01*
X187846224Y-104943726D01*
X187917989Y-104871961D01*
X193700000Y-104871961D01*
X193700000Y-105128039D01*
X193749958Y-105379196D01*
X193847955Y-105615781D01*
X193990224Y-105828702D01*
X194171298Y-106009776D01*
X194384219Y-106152045D01*
X194620804Y-106250042D01*
X194871961Y-106300000D01*
X195128039Y-106300000D01*
X195379196Y-106250042D01*
X195615781Y-106152045D01*
X195828702Y-106009776D01*
X196009776Y-105828702D01*
X196152045Y-105615781D01*
X196250042Y-105379196D01*
X196300000Y-105128039D01*
X196300000Y-104871961D01*
X196250042Y-104620804D01*
X196152045Y-104384219D01*
X196009776Y-104171298D01*
X195828702Y-103990224D01*
X195615781Y-103847955D01*
X195379196Y-103749958D01*
X195128039Y-103700000D01*
X194871961Y-103700000D01*
X194620804Y-103749958D01*
X194384219Y-103847955D01*
X194171298Y-103990224D01*
X193990224Y-104171298D01*
X193847955Y-104384219D01*
X193749958Y-104620804D01*
X193700000Y-104871961D01*
X187917989Y-104871961D01*
X187943726Y-104846224D01*
X187957907Y-104825000D01*
X188779133Y-104825000D01*
X188800000Y-104827055D01*
X188820867Y-104825000D01*
X188820874Y-104825000D01*
X188883314Y-104818850D01*
X188963427Y-104794548D01*
X189037260Y-104755084D01*
X189101974Y-104701974D01*
X189115283Y-104685757D01*
X191285763Y-102515278D01*
X191301974Y-102501974D01*
X191355084Y-102437260D01*
X191385867Y-102379668D01*
X191394548Y-102363428D01*
X191418850Y-102283315D01*
X191421613Y-102255260D01*
X191425000Y-102220874D01*
X191425000Y-102220867D01*
X191427055Y-102200000D01*
X191425000Y-102179133D01*
X191425000Y-100871961D01*
X193700000Y-100871961D01*
X193700000Y-101128039D01*
X193749958Y-101379196D01*
X193847955Y-101615781D01*
X193990224Y-101828702D01*
X194171298Y-102009776D01*
X194384219Y-102152045D01*
X194620804Y-102250042D01*
X194871961Y-102300000D01*
X195128039Y-102300000D01*
X195379196Y-102250042D01*
X195615781Y-102152045D01*
X195828702Y-102009776D01*
X196009776Y-101828702D01*
X196152045Y-101615781D01*
X196250042Y-101379196D01*
X196300000Y-101128039D01*
X196300000Y-100871961D01*
X196250042Y-100620804D01*
X196152045Y-100384219D01*
X196009776Y-100171298D01*
X195828702Y-99990224D01*
X195615781Y-99847955D01*
X195379196Y-99749958D01*
X195128039Y-99700000D01*
X194871961Y-99700000D01*
X194620804Y-99749958D01*
X194384219Y-99847955D01*
X194171298Y-99990224D01*
X193990224Y-100171298D01*
X193847955Y-100384219D01*
X193749958Y-100620804D01*
X193700000Y-100871961D01*
X191425000Y-100871961D01*
X191425000Y-96871961D01*
X193700000Y-96871961D01*
X193700000Y-97128039D01*
X193749958Y-97379196D01*
X193847955Y-97615781D01*
X193990224Y-97828702D01*
X194171298Y-98009776D01*
X194384219Y-98152045D01*
X194620804Y-98250042D01*
X194871961Y-98300000D01*
X195128039Y-98300000D01*
X195379196Y-98250042D01*
X195615781Y-98152045D01*
X195828702Y-98009776D01*
X196009776Y-97828702D01*
X196152045Y-97615781D01*
X196250042Y-97379196D01*
X196300000Y-97128039D01*
X196300000Y-96871961D01*
X196250042Y-96620804D01*
X196152045Y-96384219D01*
X196009776Y-96171298D01*
X195828702Y-95990224D01*
X195615781Y-95847955D01*
X195379196Y-95749958D01*
X195128039Y-95700000D01*
X194871961Y-95700000D01*
X194620804Y-95749958D01*
X194384219Y-95847955D01*
X194171298Y-95990224D01*
X193990224Y-96171298D01*
X193847955Y-96384219D01*
X193749958Y-96620804D01*
X193700000Y-96871961D01*
X191425000Y-96871961D01*
X191425000Y-95757907D01*
X191446224Y-95743726D01*
X191543726Y-95646224D01*
X191620332Y-95531574D01*
X191673099Y-95404182D01*
X191700000Y-95268944D01*
X191700000Y-95131056D01*
X191673099Y-94995818D01*
X191620332Y-94868426D01*
X191543726Y-94753776D01*
X191446224Y-94656274D01*
X191331574Y-94579668D01*
X191204182Y-94526901D01*
X191068944Y-94500000D01*
X190931056Y-94500000D01*
X190795818Y-94526901D01*
X190668426Y-94579668D01*
X190553776Y-94656274D01*
X190456274Y-94753776D01*
X190379668Y-94868426D01*
X190326901Y-94995818D01*
X190300000Y-95131056D01*
X190300000Y-95268944D01*
X190326901Y-95404182D01*
X190342230Y-95441189D01*
X190195020Y-95293980D01*
X190200000Y-95268944D01*
X190200000Y-95131056D01*
X190173099Y-94995818D01*
X190120332Y-94868426D01*
X190043726Y-94753776D01*
X189946224Y-94656274D01*
X189831574Y-94579668D01*
X189704182Y-94526901D01*
X189568944Y-94500000D01*
X189431056Y-94500000D01*
X189295818Y-94526901D01*
X189168426Y-94579668D01*
X189053776Y-94656274D01*
X188956274Y-94753776D01*
X188879668Y-94868426D01*
X188826901Y-94995818D01*
X188800000Y-95131056D01*
X188800000Y-95268944D01*
X188826901Y-95404182D01*
X188879668Y-95531574D01*
X188956274Y-95646224D01*
X189053776Y-95743726D01*
X189168426Y-95820332D01*
X189295818Y-95873099D01*
X189431056Y-95900000D01*
X189568944Y-95900000D01*
X189593980Y-95895020D01*
X190124991Y-96426032D01*
X190124990Y-101837560D01*
X189105755Y-102856795D01*
X187139071Y-102856795D01*
X187118204Y-102854740D01*
X187097337Y-102856795D01*
X187097331Y-102856795D01*
X187043303Y-102862116D01*
X187034890Y-102862945D01*
X187010588Y-102870317D01*
X186954778Y-102887247D01*
X186880945Y-102926711D01*
X186816231Y-102979821D01*
X186802926Y-102996033D01*
X185814239Y-103984721D01*
X185798027Y-103998026D01*
X185744917Y-104062740D01*
X185717390Y-104114240D01*
X185705453Y-104136573D01*
X185681150Y-104216686D01*
X185672945Y-104300000D01*
X185675001Y-104320876D01*
X185675001Y-104742092D01*
X185653776Y-104756274D01*
X185556274Y-104853776D01*
X185479668Y-104968426D01*
X185426901Y-105095818D01*
X185400000Y-105231056D01*
X178925000Y-105231056D01*
X178925000Y-104676040D01*
X185255545Y-98345495D01*
X185303776Y-98393726D01*
X185418426Y-98470332D01*
X185545818Y-98523099D01*
X185681056Y-98550000D01*
X185818944Y-98550000D01*
X185954182Y-98523099D01*
X186081574Y-98470332D01*
X186196224Y-98393726D01*
X186293726Y-98296224D01*
X186370332Y-98181574D01*
X186423099Y-98054182D01*
X186450000Y-97918944D01*
X186450000Y-97781056D01*
X186423099Y-97645818D01*
X186370332Y-97518426D01*
X186293726Y-97403776D01*
X186196224Y-97306274D01*
X186081574Y-97229668D01*
X185954182Y-97176901D01*
X185818944Y-97150000D01*
X185681056Y-97150000D01*
X185545818Y-97176901D01*
X185418426Y-97229668D01*
X185303776Y-97306274D01*
X185206274Y-97403776D01*
X185192093Y-97425000D01*
X185170866Y-97425000D01*
X185149999Y-97422945D01*
X185129132Y-97425000D01*
X185129126Y-97425000D01*
X185075098Y-97430321D01*
X185066685Y-97431150D01*
X185042383Y-97438522D01*
X184986573Y-97455452D01*
X184912740Y-97494916D01*
X184848026Y-97548026D01*
X184834721Y-97564238D01*
X184478083Y-97920876D01*
X184473099Y-97895818D01*
X184420332Y-97768426D01*
X184343726Y-97653776D01*
X184246224Y-97556274D01*
X184131574Y-97479668D01*
X184004182Y-97426901D01*
X183868944Y-97400000D01*
X183731056Y-97400000D01*
X183595818Y-97426901D01*
X183468426Y-97479668D01*
X183353776Y-97556274D01*
X183256274Y-97653776D01*
X183208677Y-97725010D01*
X180176030Y-97725010D01*
X180406021Y-97495020D01*
X180431056Y-97500000D01*
X180568944Y-97500000D01*
X180704182Y-97473099D01*
X180831574Y-97420332D01*
X180946224Y-97343726D01*
X181043726Y-97246224D01*
X181120332Y-97131574D01*
X181173099Y-97004182D01*
X181200000Y-96868944D01*
X181200000Y-96731056D01*
X181173099Y-96595818D01*
X181120332Y-96468426D01*
X181043726Y-96353776D01*
X181014950Y-96325000D01*
X185735050Y-96325000D01*
X185753776Y-96343726D01*
X185868426Y-96420332D01*
X185995818Y-96473099D01*
X186131056Y-96500000D01*
X186268944Y-96500000D01*
X186404182Y-96473099D01*
X186531574Y-96420332D01*
X186646224Y-96343726D01*
X186743726Y-96246224D01*
X186820332Y-96131574D01*
X186873099Y-96004182D01*
X186900000Y-95868944D01*
X186900000Y-95731056D01*
X186873099Y-95595818D01*
X186820332Y-95468426D01*
X186743726Y-95353776D01*
X186646224Y-95256274D01*
X186531574Y-95179668D01*
X186409948Y-95129290D01*
X186431574Y-95120332D01*
X186546224Y-95043726D01*
X186643726Y-94946224D01*
X186720332Y-94831574D01*
X186773099Y-94704182D01*
X186800000Y-94568944D01*
X186800000Y-94431056D01*
X186773099Y-94295818D01*
X186720332Y-94168426D01*
X186643726Y-94053776D01*
X186546224Y-93956274D01*
X186431574Y-93879668D01*
X186304182Y-93826901D01*
X186168944Y-93800000D01*
X186031056Y-93800000D01*
X186006021Y-93804980D01*
X185073002Y-92871961D01*
X193700000Y-92871961D01*
X193700000Y-93128039D01*
X193749958Y-93379196D01*
X193847955Y-93615781D01*
X193990224Y-93828702D01*
X194171298Y-94009776D01*
X194384219Y-94152045D01*
X194620804Y-94250042D01*
X194871961Y-94300000D01*
X195128039Y-94300000D01*
X195379196Y-94250042D01*
X195615781Y-94152045D01*
X195828702Y-94009776D01*
X196009776Y-93828702D01*
X196152045Y-93615781D01*
X196250042Y-93379196D01*
X196300000Y-93128039D01*
X196300000Y-92871961D01*
X196250042Y-92620804D01*
X196152045Y-92384219D01*
X196009776Y-92171298D01*
X195828702Y-91990224D01*
X195615781Y-91847955D01*
X195379196Y-91749958D01*
X195128039Y-91700000D01*
X194871961Y-91700000D01*
X194620804Y-91749958D01*
X194384219Y-91847955D01*
X194171298Y-91990224D01*
X193990224Y-92171298D01*
X193847955Y-92384219D01*
X193749958Y-92620804D01*
X193700000Y-92871961D01*
X185073002Y-92871961D01*
X185015283Y-92814243D01*
X185001974Y-92798026D01*
X184937260Y-92744916D01*
X184863427Y-92705452D01*
X184783314Y-92681150D01*
X184720874Y-92675000D01*
X184720867Y-92675000D01*
X184700000Y-92672945D01*
X184679133Y-92675000D01*
X161823055Y-92675000D01*
X161820332Y-92668426D01*
X161743726Y-92553776D01*
X161646224Y-92456274D01*
X161531574Y-92379668D01*
X161404182Y-92326901D01*
X161268944Y-92300000D01*
X161131056Y-92300000D01*
X160995818Y-92326901D01*
X160868426Y-92379668D01*
X160753776Y-92456274D01*
X160656274Y-92553776D01*
X160579668Y-92668426D01*
X160526901Y-92795818D01*
X160500000Y-92931056D01*
X160500000Y-93068944D01*
X160526901Y-93204182D01*
X160579668Y-93331574D01*
X160656274Y-93446224D01*
X160753776Y-93543726D01*
X160868426Y-93620332D01*
X160995818Y-93673099D01*
X161131056Y-93700000D01*
X161268944Y-93700000D01*
X161404182Y-93673099D01*
X161531574Y-93620332D01*
X161646224Y-93543726D01*
X161664950Y-93525000D01*
X184523960Y-93525000D01*
X185404980Y-94406021D01*
X185400000Y-94431056D01*
X185400000Y-94568944D01*
X185426901Y-94704182D01*
X185479668Y-94831574D01*
X185556274Y-94946224D01*
X185653776Y-95043726D01*
X185768426Y-95120332D01*
X185890052Y-95170710D01*
X185868426Y-95179668D01*
X185753776Y-95256274D01*
X185656274Y-95353776D01*
X185579668Y-95468426D01*
X185576945Y-95475000D01*
X180170856Y-95475000D01*
X180149989Y-95472945D01*
X180129122Y-95475000D01*
X180129116Y-95475000D01*
X180075088Y-95480321D01*
X180066675Y-95481150D01*
X180042373Y-95488522D01*
X179986563Y-95505452D01*
X179912730Y-95544916D01*
X179848016Y-95598026D01*
X179834711Y-95614238D01*
X178623960Y-96824990D01*
X166534467Y-96824990D01*
X166513600Y-96822935D01*
X166492733Y-96824990D01*
X166492726Y-96824990D01*
X166437927Y-96830387D01*
X166430285Y-96831140D01*
X166350172Y-96855442D01*
X166324912Y-96868944D01*
X166276340Y-96894906D01*
X166211626Y-96948016D01*
X166198321Y-96964228D01*
X161014244Y-102148306D01*
X160998026Y-102161616D01*
X160944916Y-102226331D01*
X160905452Y-102300164D01*
X160891480Y-102346224D01*
X160881335Y-102379668D01*
X160881150Y-102380277D01*
X160875000Y-102442717D01*
X160875000Y-102442723D01*
X160872945Y-102463590D01*
X160875000Y-102484457D01*
X160875000Y-102742092D01*
X160853776Y-102756274D01*
X160756274Y-102853776D01*
X160679668Y-102968426D01*
X160626901Y-103095818D01*
X160600000Y-103231056D01*
X160600000Y-103368944D01*
X160626901Y-103504182D01*
X160679668Y-103631574D01*
X160756274Y-103746224D01*
X160853776Y-103843726D01*
X160968426Y-103920332D01*
X161095818Y-103973099D01*
X161231056Y-104000000D01*
X161368944Y-104000000D01*
X161504182Y-103973099D01*
X161631574Y-103920332D01*
X161746224Y-103843726D01*
X161775001Y-103814949D01*
X161775001Y-103842092D01*
X161753776Y-103856274D01*
X161656274Y-103953776D01*
X161579668Y-104068426D01*
X161526901Y-104195818D01*
X161500000Y-104331056D01*
X161500000Y-104468944D01*
X161526901Y-104604182D01*
X161579668Y-104731574D01*
X161656274Y-104846224D01*
X161753776Y-104943726D01*
X161868426Y-105020332D01*
X161995818Y-105073099D01*
X162131056Y-105100000D01*
X162268944Y-105100000D01*
X162404182Y-105073099D01*
X162500000Y-105033410D01*
X162500000Y-105068944D01*
X162526901Y-105204182D01*
X162579668Y-105331574D01*
X162656274Y-105446224D01*
X162753776Y-105543726D01*
X162868426Y-105620332D01*
X162995818Y-105673099D01*
X163131056Y-105700000D01*
X163268944Y-105700000D01*
X163404182Y-105673099D01*
X163531574Y-105620332D01*
X163646224Y-105543726D01*
X163743726Y-105446224D01*
X163820332Y-105331574D01*
X163873099Y-105204182D01*
X163900000Y-105068944D01*
X163900000Y-104931056D01*
X163873099Y-104795818D01*
X163820332Y-104668426D01*
X163743726Y-104553776D01*
X163646224Y-104456274D01*
X163625000Y-104442093D01*
X163625000Y-104214950D01*
X163653776Y-104243726D01*
X163768426Y-104320332D01*
X163895818Y-104373099D01*
X164031056Y-104400000D01*
X164168944Y-104400000D01*
X164304182Y-104373099D01*
X164431574Y-104320332D01*
X164546224Y-104243726D01*
X164643726Y-104146224D01*
X164720332Y-104031574D01*
X164773099Y-103904182D01*
X164800000Y-103768944D01*
X164800000Y-103631056D01*
X164795020Y-103606020D01*
X165305325Y-103095715D01*
X165326901Y-103204182D01*
X165379668Y-103331574D01*
X165456274Y-103446224D01*
X165553776Y-103543726D01*
X165668426Y-103620332D01*
X165795818Y-103673099D01*
X165904285Y-103694675D01*
X164793980Y-104804980D01*
X164768944Y-104800000D01*
X164631056Y-104800000D01*
X164495818Y-104826901D01*
X164368426Y-104879668D01*
X164253776Y-104956274D01*
X164156274Y-105053776D01*
X164079668Y-105168426D01*
X164026901Y-105295818D01*
X164000000Y-105431056D01*
X164000000Y-105568944D01*
X164026901Y-105704182D01*
X164079668Y-105831574D01*
X164156274Y-105946224D01*
X164253776Y-106043726D01*
X164300551Y-106074980D01*
X142176021Y-106074980D01*
X141095020Y-104993980D01*
X141100000Y-104968944D01*
X141100000Y-104831056D01*
X141073099Y-104695818D01*
X141020332Y-104568426D01*
X140943726Y-104453776D01*
X140846224Y-104356274D01*
X140731574Y-104279668D01*
X140604182Y-104226901D01*
X140468944Y-104200000D01*
X140331056Y-104200000D01*
X140195818Y-104226901D01*
X140068426Y-104279668D01*
X139953776Y-104356274D01*
X139856274Y-104453776D01*
X139779668Y-104568426D01*
X139726901Y-104695818D01*
X139700000Y-104831056D01*
X139700000Y-104968944D01*
X139726901Y-105104182D01*
X139779668Y-105231574D01*
X139856274Y-105346224D01*
X139953776Y-105443726D01*
X140068426Y-105520332D01*
X140195818Y-105573099D01*
X140331056Y-105600000D01*
X140468944Y-105600000D01*
X140493980Y-105595020D01*
X141423949Y-106524990D01*
X136726031Y-106524990D01*
X136695020Y-106493979D01*
X136700000Y-106468944D01*
X136700000Y-106331056D01*
X136673099Y-106195818D01*
X136620332Y-106068426D01*
X136543726Y-105953776D01*
X136446224Y-105856274D01*
X136331574Y-105779668D01*
X136204182Y-105726901D01*
X136068944Y-105700000D01*
X135931056Y-105700000D01*
X135795818Y-105726901D01*
X135668426Y-105779668D01*
X135553776Y-105856274D01*
X135456274Y-105953776D01*
X135379668Y-106068426D01*
X135326901Y-106195818D01*
X135300000Y-106331056D01*
X133100000Y-106331056D01*
X133100000Y-102538199D01*
X145079590Y-102538199D01*
X145179181Y-102791762D01*
X145466472Y-102925154D01*
X145774265Y-102999934D01*
X146090735Y-103013230D01*
X146403716Y-102964531D01*
X146701184Y-102855708D01*
X146820819Y-102791762D01*
X146920410Y-102538199D01*
X146000000Y-101617789D01*
X145079590Y-102538199D01*
X133100000Y-102538199D01*
X133100000Y-101490735D01*
X144386770Y-101490735D01*
X144435469Y-101803716D01*
X144544292Y-102101184D01*
X144608238Y-102220819D01*
X144861801Y-102320410D01*
X145782211Y-101400000D01*
X146217789Y-101400000D01*
X147138199Y-102320410D01*
X147391762Y-102220819D01*
X147525154Y-101933528D01*
X147599934Y-101625735D01*
X147613230Y-101309265D01*
X147564531Y-100996284D01*
X147455708Y-100698816D01*
X147391762Y-100579181D01*
X147138199Y-100479590D01*
X146217789Y-101400000D01*
X145782211Y-101400000D01*
X144861801Y-100479590D01*
X144608238Y-100579181D01*
X144474846Y-100866472D01*
X144400066Y-101174265D01*
X144386770Y-101490735D01*
X133100000Y-101490735D01*
X133100000Y-100261801D01*
X145079590Y-100261801D01*
X146000000Y-101182211D01*
X146920410Y-100261801D01*
X146820819Y-100008238D01*
X146533528Y-99874846D01*
X146225735Y-99800066D01*
X145909265Y-99786770D01*
X145596284Y-99835469D01*
X145298816Y-99944292D01*
X145179181Y-100008238D01*
X145079590Y-100261801D01*
X133100000Y-100261801D01*
X133100000Y-98801040D01*
X134976041Y-96925000D01*
X153368931Y-96925000D01*
X153447955Y-97115781D01*
X153590224Y-97328702D01*
X153771298Y-97509776D01*
X153984219Y-97652045D01*
X154220804Y-97750042D01*
X154471961Y-97800000D01*
X154728039Y-97800000D01*
X154979196Y-97750042D01*
X155215781Y-97652045D01*
X155428702Y-97509776D01*
X155609776Y-97328702D01*
X155752045Y-97115781D01*
X155850042Y-96879196D01*
X155900000Y-96628039D01*
X155900000Y-96371961D01*
X155850042Y-96120804D01*
X155752045Y-95884219D01*
X155609776Y-95671298D01*
X155428702Y-95490224D01*
X155215781Y-95347955D01*
X154979196Y-95249958D01*
X154728039Y-95200000D01*
X154471961Y-95200000D01*
X154220804Y-95249958D01*
X153984219Y-95347955D01*
X153771298Y-95490224D01*
X153590224Y-95671298D01*
X153447955Y-95884219D01*
X153368931Y-96075000D01*
X134820866Y-96075000D01*
X134799999Y-96072945D01*
X134779132Y-96075000D01*
X134779126Y-96075000D01*
X134725098Y-96080321D01*
X134716685Y-96081150D01*
X134692383Y-96088522D01*
X134636573Y-96105452D01*
X134562740Y-96144916D01*
X134498026Y-96198026D01*
X134484721Y-96214238D01*
X133100000Y-97598959D01*
X133100000Y-94531056D01*
X162700000Y-94531056D01*
X162700000Y-94668944D01*
X162726901Y-94804182D01*
X162779668Y-94931574D01*
X162856274Y-95046224D01*
X162953776Y-95143726D01*
X163068426Y-95220332D01*
X163195818Y-95273099D01*
X163331056Y-95300000D01*
X163468944Y-95300000D01*
X163493980Y-95295020D01*
X164484721Y-96285762D01*
X164498026Y-96301974D01*
X164562740Y-96355084D01*
X164636573Y-96394548D01*
X164692383Y-96411478D01*
X164716685Y-96418850D01*
X164724327Y-96419603D01*
X164779126Y-96425000D01*
X164779133Y-96425000D01*
X164800000Y-96427055D01*
X164820867Y-96425000D01*
X170042093Y-96425000D01*
X170056274Y-96446224D01*
X170153776Y-96543726D01*
X170268426Y-96620332D01*
X170395818Y-96673099D01*
X170531056Y-96700000D01*
X170668944Y-96700000D01*
X170804182Y-96673099D01*
X170931574Y-96620332D01*
X171046224Y-96543726D01*
X171143726Y-96446224D01*
X171220332Y-96331574D01*
X171273099Y-96204182D01*
X171300000Y-96068944D01*
X171300000Y-95931056D01*
X171273099Y-95795818D01*
X171220332Y-95668426D01*
X171143726Y-95553776D01*
X171046224Y-95456274D01*
X170931574Y-95379668D01*
X170804182Y-95326901D01*
X170668944Y-95300000D01*
X170531056Y-95300000D01*
X170395818Y-95326901D01*
X170268426Y-95379668D01*
X170153776Y-95456274D01*
X170056274Y-95553776D01*
X170042093Y-95575000D01*
X164976041Y-95575000D01*
X164095020Y-94693980D01*
X164100000Y-94668944D01*
X164100000Y-94531056D01*
X164073099Y-94395818D01*
X164020332Y-94268426D01*
X163943726Y-94153776D01*
X163846224Y-94056274D01*
X163731574Y-93979668D01*
X163604182Y-93926901D01*
X163468944Y-93900000D01*
X163331056Y-93900000D01*
X163195818Y-93926901D01*
X163068426Y-93979668D01*
X162953776Y-94056274D01*
X162856274Y-94153776D01*
X162779668Y-94268426D01*
X162726901Y-94395818D01*
X162700000Y-94531056D01*
X133100000Y-94531056D01*
X133100000Y-93002811D01*
X133118391Y-92675318D01*
X133172862Y-92354728D01*
X133262889Y-92042239D01*
X133387332Y-91741804D01*
X133544632Y-91457192D01*
X133732811Y-91191980D01*
X133949502Y-90949502D01*
X134191980Y-90732811D01*
X134457192Y-90544632D01*
X134741804Y-90387332D01*
X134892288Y-90325000D01*
X194984103Y-90325000D01*
X195519275Y-90377474D01*
X195519275Y-90377474D01*
G37*
X195519275Y-90377474D02*
X196018770Y-90528281D01*
X196479459Y-90773233D01*
X196883797Y-91103002D01*
X197216384Y-91505031D01*
X197464548Y-91964001D01*
X197618837Y-92462427D01*
X197674986Y-92996657D01*
X197675001Y-93000846D01*
X197675000Y-127984104D01*
X197622526Y-128519274D01*
X197471719Y-129018770D01*
X197226768Y-129479458D01*
X196896995Y-129883799D01*
X196494970Y-130216383D01*
X196035997Y-130464548D01*
X195537575Y-130618836D01*
X195003342Y-130674986D01*
X194999441Y-130675000D01*
X134892288Y-130675000D01*
X134741804Y-130612668D01*
X134457192Y-130455368D01*
X134191980Y-130267189D01*
X133949502Y-130050498D01*
X133732811Y-129808020D01*
X133544632Y-129542808D01*
X133387332Y-129258196D01*
X133262889Y-128957761D01*
X133172862Y-128645272D01*
X133118391Y-128324682D01*
X133100000Y-127997189D01*
X133100000Y-119001041D01*
X133675000Y-119576041D01*
X133675001Y-122979123D01*
X133672945Y-123000000D01*
X133681150Y-123083314D01*
X133705239Y-123162720D01*
X133705453Y-123163427D01*
X133744917Y-123237260D01*
X133798027Y-123301974D01*
X133814239Y-123315279D01*
X139684721Y-129185762D01*
X139698026Y-129201974D01*
X139762740Y-129255084D01*
X139836573Y-129294548D01*
X139892383Y-129311478D01*
X139916685Y-129318850D01*
X139925098Y-129319679D01*
X139979126Y-129325000D01*
X139979132Y-129325000D01*
X139999999Y-129327055D01*
X140020866Y-129325000D01*
X181279133Y-129325000D01*
X181300000Y-129327055D01*
X181320867Y-129325000D01*
X181320874Y-129325000D01*
X181383314Y-129318850D01*
X181463427Y-129294548D01*
X181537260Y-129255084D01*
X181601974Y-129201974D01*
X181615284Y-129185756D01*
X186706020Y-124095020D01*
X186731056Y-124100000D01*
X186868944Y-124100000D01*
X187004182Y-124073099D01*
X187131574Y-124020332D01*
X187246224Y-123943726D01*
X187343726Y-123846224D01*
X187420332Y-123731574D01*
X187473099Y-123604182D01*
X187500000Y-123468944D01*
X187500000Y-123331056D01*
X187473099Y-123195818D01*
X187420332Y-123068426D01*
X187343726Y-122953776D01*
X187246224Y-122856274D01*
X187131574Y-122779668D01*
X187004182Y-122726901D01*
X186868944Y-122700000D01*
X186731056Y-122700000D01*
X186595818Y-122726901D01*
X186468426Y-122779668D01*
X186353776Y-122856274D01*
X186256274Y-122953776D01*
X186179668Y-123068426D01*
X186126901Y-123195818D01*
X186100000Y-123331056D01*
X186100000Y-123468944D01*
X186104980Y-123493980D01*
X181123960Y-128475000D01*
X140176041Y-128475000D01*
X134525000Y-122823960D01*
X134525000Y-122771961D01*
X137100000Y-122771961D01*
X137100000Y-123028039D01*
X137149958Y-123279196D01*
X137247955Y-123515781D01*
X137390224Y-123728702D01*
X137571298Y-123909776D01*
X137784219Y-124052045D01*
X138020804Y-124150042D01*
X138271961Y-124200000D01*
X138528039Y-124200000D01*
X138779196Y-124150042D01*
X139015781Y-124052045D01*
X139228702Y-123909776D01*
X139409776Y-123728702D01*
X139552045Y-123515781D01*
X139650000Y-123279297D01*
X139747955Y-123515781D01*
X139890224Y-123728702D01*
X140071298Y-123909776D01*
X140284219Y-124052045D01*
X140520804Y-124150042D01*
X140771961Y-124200000D01*
X141028039Y-124200000D01*
X141279196Y-124150042D01*
X141515781Y-124052045D01*
X141728702Y-123909776D01*
X141909776Y-123728702D01*
X142052045Y-123515781D01*
X142150042Y-123279196D01*
X142200000Y-123028039D01*
X142200000Y-122771961D01*
X142700000Y-122771961D01*
X142700000Y-123028039D01*
X142749958Y-123279196D01*
X142847955Y-123515781D01*
X142990224Y-123728702D01*
X143171298Y-123909776D01*
X143384219Y-124052045D01*
X143620804Y-124150042D01*
X143871961Y-124200000D01*
X144128039Y-124200000D01*
X144379196Y-124150042D01*
X144615781Y-124052045D01*
X144828702Y-123909776D01*
X145009776Y-123728702D01*
X145152045Y-123515781D01*
X145250000Y-123279297D01*
X145347955Y-123515781D01*
X145490224Y-123728702D01*
X145671298Y-123909776D01*
X145884219Y-124052045D01*
X146120804Y-124150042D01*
X146371961Y-124200000D01*
X146628039Y-124200000D01*
X146879196Y-124150042D01*
X147115781Y-124052045D01*
X147328702Y-123909776D01*
X147509776Y-123728702D01*
X147652045Y-123515781D01*
X147750042Y-123279196D01*
X147800000Y-123028039D01*
X147800000Y-122771961D01*
X147750042Y-122520804D01*
X147652045Y-122284219D01*
X147509776Y-122071298D01*
X147328702Y-121890224D01*
X147115781Y-121747955D01*
X146879196Y-121649958D01*
X146628039Y-121600000D01*
X146371961Y-121600000D01*
X146120804Y-121649958D01*
X145884219Y-121747955D01*
X145671298Y-121890224D01*
X145490224Y-122071298D01*
X145347955Y-122284219D01*
X145250000Y-122520703D01*
X145152045Y-122284219D01*
X145009776Y-122071298D01*
X144828702Y-121890224D01*
X144615781Y-121747955D01*
X144379196Y-121649958D01*
X144128039Y-121600000D01*
X143871961Y-121600000D01*
X143620804Y-121649958D01*
X143384219Y-121747955D01*
X143171298Y-121890224D01*
X142990224Y-122071298D01*
X142847955Y-122284219D01*
X142749958Y-122520804D01*
X142700000Y-122771961D01*
X142200000Y-122771961D01*
X142150042Y-122520804D01*
X142052045Y-122284219D01*
X141909776Y-122071298D01*
X141728702Y-121890224D01*
X141515781Y-121747955D01*
X141279196Y-121649958D01*
X141028039Y-121600000D01*
X140771961Y-121600000D01*
X140520804Y-121649958D01*
X140284219Y-121747955D01*
X140071298Y-121890224D01*
X139890224Y-122071298D01*
X139747955Y-122284219D01*
X139650000Y-122520703D01*
X139552045Y-122284219D01*
X139409776Y-122071298D01*
X139228702Y-121890224D01*
X139015781Y-121747955D01*
X138779196Y-121649958D01*
X138528039Y-121600000D01*
X138271961Y-121600000D01*
X138020804Y-121649958D01*
X137784219Y-121747955D01*
X137571298Y-121890224D01*
X137390224Y-122071298D01*
X137247955Y-122284219D01*
X137149958Y-122520804D01*
X137100000Y-122771961D01*
X134525000Y-122771961D01*
X134525000Y-119420866D01*
X134527055Y-119399999D01*
X134525000Y-119379132D01*
X134525000Y-119379126D01*
X134518850Y-119316686D01*
X134494548Y-119236573D01*
X134455084Y-119162740D01*
X134401974Y-119098026D01*
X134385763Y-119084722D01*
X133100000Y-117798960D01*
X133100000Y-106331056D01*
X135300000Y-106331056D01*
X135300000Y-106468944D01*
X135326901Y-106604182D01*
X135379668Y-106731574D01*
X135456274Y-106846224D01*
X135553776Y-106943726D01*
X135668426Y-107020332D01*
X135795818Y-107073099D01*
X135931056Y-107100000D01*
X136068944Y-107100000D01*
X136093979Y-107095020D01*
X136234709Y-107235750D01*
X136248016Y-107251964D01*
X136312730Y-107305074D01*
X136386563Y-107344538D01*
X136442373Y-107361468D01*
X136466675Y-107368840D01*
X136475088Y-107369669D01*
X136529116Y-107374990D01*
X136529122Y-107374990D01*
X136549989Y-107377045D01*
X136570856Y-107374990D01*
X144835060Y-107374990D01*
X144756274Y-107453776D01*
X144679668Y-107568426D01*
X144626901Y-107695818D01*
X144600000Y-107831056D01*
X144600000Y-107968944D01*
X144626901Y-108104182D01*
X144679668Y-108231574D01*
X144756274Y-108346224D01*
X144853776Y-108443726D01*
X144968426Y-108520332D01*
X145095818Y-108573099D01*
X145120876Y-108578083D01*
X140273990Y-113424970D01*
X139334486Y-113424970D01*
X139313619Y-113422915D01*
X139292752Y-113424970D01*
X139292746Y-113424970D01*
X139238718Y-113430291D01*
X139230305Y-113431120D01*
X139221573Y-113433769D01*
X139150193Y-113455422D01*
X139076360Y-113494886D01*
X139011646Y-113547996D01*
X138998341Y-113564208D01*
X137364229Y-115198321D01*
X137348017Y-115211626D01*
X137294907Y-115276340D01*
X137291179Y-115283315D01*
X137255443Y-115350173D01*
X137231140Y-115430286D01*
X137222935Y-115513600D01*
X137224991Y-115534476D01*
X137224990Y-116665533D01*
X137222935Y-116686400D01*
X137224990Y-116707267D01*
X137224990Y-116707273D01*
X137231140Y-116769713D01*
X137255442Y-116849826D01*
X137294906Y-116923659D01*
X137348016Y-116988374D01*
X137364233Y-117001683D01*
X137998321Y-117635772D01*
X138011626Y-117651984D01*
X138076340Y-117705094D01*
X138150173Y-117744558D01*
X138205983Y-117761488D01*
X138230285Y-117768860D01*
X138231707Y-117769000D01*
X138292726Y-117775010D01*
X138292732Y-117775010D01*
X138313599Y-117777065D01*
X138334466Y-117775010D01*
X141229123Y-117775010D01*
X141249990Y-117777065D01*
X141270857Y-117775010D01*
X141270864Y-117775010D01*
X141333304Y-117768860D01*
X141413417Y-117744558D01*
X141487250Y-117705094D01*
X141551964Y-117651984D01*
X141565273Y-117635767D01*
X142776041Y-116425000D01*
X143842093Y-116425000D01*
X143856274Y-116446224D01*
X143953776Y-116543726D01*
X144068426Y-116620332D01*
X144195818Y-116673099D01*
X144331056Y-116700000D01*
X144468944Y-116700000D01*
X144604182Y-116673099D01*
X144731574Y-116620332D01*
X144846224Y-116543726D01*
X144943726Y-116446224D01*
X144957907Y-116425000D01*
X145423960Y-116425000D01*
X153775000Y-124776040D01*
X153775001Y-126579123D01*
X153772945Y-126600000D01*
X153781150Y-126683314D01*
X153805013Y-126761977D01*
X153805453Y-126763427D01*
X153844917Y-126837260D01*
X153898027Y-126901974D01*
X153914239Y-126915279D01*
X154584721Y-127585762D01*
X154598026Y-127601974D01*
X154662740Y-127655084D01*
X154736573Y-127694548D01*
X154792383Y-127711478D01*
X154816685Y-127718850D01*
X154825098Y-127719679D01*
X154879126Y-127725000D01*
X154879132Y-127725000D01*
X154899999Y-127727055D01*
X154920866Y-127725000D01*
X161079133Y-127725000D01*
X161100000Y-127727055D01*
X161120867Y-127725000D01*
X161120874Y-127725000D01*
X161183314Y-127718850D01*
X161263427Y-127694548D01*
X161337260Y-127655084D01*
X161401974Y-127601974D01*
X161415283Y-127585757D01*
X161685763Y-127315278D01*
X161701974Y-127301974D01*
X161755084Y-127237260D01*
X161794548Y-127163427D01*
X161818850Y-127083314D01*
X161825000Y-127020874D01*
X161825000Y-127020868D01*
X161827055Y-127000001D01*
X161825000Y-126979134D01*
X161825000Y-126668331D01*
X161902432Y-126626943D01*
X162039475Y-126514475D01*
X162151943Y-126377432D01*
X162235514Y-126221081D01*
X162286977Y-126051431D01*
X162300000Y-125919207D01*
X162300000Y-125280793D01*
X162286977Y-125148569D01*
X162235514Y-124978919D01*
X162151943Y-124822568D01*
X162039475Y-124685525D01*
X161902431Y-124573057D01*
X161746080Y-124489486D01*
X161576430Y-124438023D01*
X161400000Y-124420646D01*
X161223569Y-124438023D01*
X161053919Y-124489486D01*
X160897568Y-124573057D01*
X160760525Y-124685525D01*
X160648057Y-124822569D01*
X160564486Y-124978920D01*
X160513023Y-125148570D01*
X160500000Y-125280794D01*
X160500000Y-125919207D01*
X160513023Y-126051431D01*
X160564486Y-126221081D01*
X160648058Y-126377432D01*
X160760526Y-126514475D01*
X160897569Y-126626943D01*
X160975000Y-126668331D01*
X160975000Y-126823959D01*
X160923960Y-126875000D01*
X156458264Y-126875000D01*
X156507980Y-126814421D01*
X156564437Y-126708797D01*
X156599203Y-126594189D01*
X156610942Y-126475000D01*
X156610070Y-126306362D01*
X156648058Y-126377432D01*
X156760526Y-126514475D01*
X156897569Y-126626943D01*
X157053920Y-126710514D01*
X157223570Y-126761977D01*
X157400000Y-126779354D01*
X157576431Y-126761977D01*
X157746081Y-126710514D01*
X157902432Y-126626943D01*
X158039475Y-126514475D01*
X158151943Y-126377432D01*
X158235514Y-126221081D01*
X158286977Y-126051431D01*
X158300000Y-125919207D01*
X158300000Y-125280793D01*
X158286977Y-125148569D01*
X158235514Y-124978919D01*
X158151943Y-124822568D01*
X158039475Y-124685525D01*
X157902431Y-124573057D01*
X157746080Y-124489486D01*
X157576430Y-124438023D01*
X157400000Y-124420646D01*
X157223569Y-124438023D01*
X157053919Y-124489486D01*
X156947440Y-124546400D01*
X156676030Y-124274990D01*
X157873950Y-124274990D01*
X158569151Y-124970192D01*
X158564486Y-124978920D01*
X158513023Y-125148570D01*
X158500000Y-125280794D01*
X158500000Y-125919207D01*
X158513023Y-126051431D01*
X158564486Y-126221081D01*
X158648058Y-126377432D01*
X158760526Y-126514475D01*
X158897569Y-126626943D01*
X159053920Y-126710514D01*
X159223570Y-126761977D01*
X159400000Y-126779354D01*
X159576431Y-126761977D01*
X159746081Y-126710514D01*
X159902432Y-126626943D01*
X160039475Y-126514475D01*
X160151943Y-126377432D01*
X160235514Y-126221081D01*
X160286977Y-126051431D01*
X160300000Y-125919207D01*
X160300000Y-125280793D01*
X160286977Y-125148569D01*
X160235514Y-124978919D01*
X160151943Y-124822568D01*
X160039475Y-124685525D01*
X159902431Y-124573057D01*
X159746080Y-124489486D01*
X159576430Y-124438023D01*
X159400000Y-124420646D01*
X159237674Y-124436634D01*
X158626020Y-123824980D01*
X162323940Y-123824980D01*
X162975000Y-124476041D01*
X162975000Y-124531669D01*
X162897568Y-124573057D01*
X162760525Y-124685525D01*
X162648057Y-124822569D01*
X162564486Y-124978920D01*
X162513023Y-125148570D01*
X162500000Y-125280794D01*
X162500000Y-125919207D01*
X162513023Y-126051431D01*
X162564486Y-126221081D01*
X162648058Y-126377432D01*
X162760526Y-126514475D01*
X162897569Y-126626943D01*
X163053920Y-126710514D01*
X163223570Y-126761977D01*
X163400000Y-126779354D01*
X163576431Y-126761977D01*
X163746081Y-126710514D01*
X163902432Y-126626943D01*
X164039475Y-126514475D01*
X164151943Y-126377432D01*
X164235514Y-126221081D01*
X164286977Y-126051431D01*
X164300000Y-125919207D01*
X164300000Y-125280793D01*
X164286977Y-125148569D01*
X164235514Y-124978919D01*
X164151943Y-124822568D01*
X164039475Y-124685525D01*
X163902431Y-124573057D01*
X163825000Y-124531669D01*
X163825000Y-124320866D01*
X163827055Y-124299999D01*
X163825000Y-124279132D01*
X163825000Y-124279126D01*
X163818850Y-124216686D01*
X163794548Y-124136573D01*
X163755084Y-124062740D01*
X163701974Y-123998026D01*
X163685761Y-123984720D01*
X163076010Y-123374970D01*
X163273930Y-123374970D01*
X164681174Y-124782215D01*
X164648057Y-124822569D01*
X164564486Y-124978920D01*
X164513023Y-125148570D01*
X164500000Y-125280794D01*
X164500000Y-125919207D01*
X164513023Y-126051431D01*
X164564486Y-126221081D01*
X164648058Y-126377432D01*
X164760526Y-126514475D01*
X164897569Y-126626943D01*
X165053920Y-126710514D01*
X165223570Y-126761977D01*
X165400000Y-126779354D01*
X165576431Y-126761977D01*
X165746081Y-126710514D01*
X165902432Y-126626943D01*
X166039475Y-126514475D01*
X166151943Y-126377432D01*
X166235514Y-126221081D01*
X166286977Y-126051431D01*
X166300000Y-125919207D01*
X166300000Y-125680793D01*
X169500000Y-125680793D01*
X169500000Y-126319206D01*
X169513023Y-126451430D01*
X169564486Y-126621080D01*
X169648057Y-126777431D01*
X169760525Y-126914475D01*
X169897568Y-127026943D01*
X170053919Y-127110514D01*
X170223569Y-127161977D01*
X170400000Y-127179354D01*
X170576430Y-127161977D01*
X170746080Y-127110514D01*
X170902431Y-127026943D01*
X171039475Y-126914475D01*
X171151943Y-126777432D01*
X171235514Y-126621081D01*
X171286977Y-126451431D01*
X171300000Y-126319207D01*
X171300000Y-125680793D01*
X171500000Y-125680793D01*
X171500000Y-126319206D01*
X171513023Y-126451430D01*
X171564486Y-126621080D01*
X171648057Y-126777431D01*
X171760525Y-126914475D01*
X171897568Y-127026943D01*
X172053919Y-127110514D01*
X172223569Y-127161977D01*
X172400000Y-127179354D01*
X172576430Y-127161977D01*
X172746080Y-127110514D01*
X172902431Y-127026943D01*
X173039475Y-126914475D01*
X173151943Y-126777432D01*
X173235514Y-126621081D01*
X173286977Y-126451431D01*
X173300000Y-126319207D01*
X173300000Y-125680793D01*
X173500000Y-125680793D01*
X173500000Y-126319206D01*
X173513023Y-126451430D01*
X173564486Y-126621080D01*
X173648057Y-126777431D01*
X173760525Y-126914475D01*
X173897568Y-127026943D01*
X174053919Y-127110514D01*
X174223569Y-127161977D01*
X174400000Y-127179354D01*
X174576430Y-127161977D01*
X174746080Y-127110514D01*
X174902431Y-127026943D01*
X175039475Y-126914475D01*
X175151943Y-126777432D01*
X175235514Y-126621081D01*
X175286977Y-126451431D01*
X175300000Y-126319207D01*
X175300000Y-125680793D01*
X175500000Y-125680793D01*
X175500000Y-126319206D01*
X175513023Y-126451430D01*
X175564486Y-126621080D01*
X175648057Y-126777431D01*
X175760525Y-126914475D01*
X175897568Y-127026943D01*
X176053919Y-127110514D01*
X176223569Y-127161977D01*
X176400000Y-127179354D01*
X176576430Y-127161977D01*
X176746080Y-127110514D01*
X176902431Y-127026943D01*
X177039475Y-126914475D01*
X177151943Y-126777432D01*
X177235514Y-126621081D01*
X177286977Y-126451431D01*
X177300000Y-126319207D01*
X177300000Y-125680793D01*
X177286977Y-125548569D01*
X177235514Y-125378919D01*
X177151943Y-125222568D01*
X177039475Y-125085525D01*
X176902432Y-124973057D01*
X176746081Y-124889486D01*
X176576431Y-124838023D01*
X176400000Y-124820646D01*
X176223570Y-124838023D01*
X176053920Y-124889486D01*
X175897569Y-124973057D01*
X175760526Y-125085525D01*
X175648058Y-125222568D01*
X175564486Y-125378919D01*
X175513023Y-125548569D01*
X175500000Y-125680793D01*
X175300000Y-125680793D01*
X175286977Y-125548569D01*
X175235514Y-125378919D01*
X175151943Y-125222568D01*
X175039475Y-125085525D01*
X174902432Y-124973057D01*
X174746081Y-124889486D01*
X174576431Y-124838023D01*
X174400000Y-124820646D01*
X174223570Y-124838023D01*
X174053920Y-124889486D01*
X173897569Y-124973057D01*
X173760526Y-125085525D01*
X173648058Y-125222568D01*
X173564486Y-125378919D01*
X173513023Y-125548569D01*
X173500000Y-125680793D01*
X173300000Y-125680793D01*
X173286977Y-125548569D01*
X173235514Y-125378919D01*
X173151943Y-125222568D01*
X173039475Y-125085525D01*
X172902432Y-124973057D01*
X172746081Y-124889486D01*
X172576431Y-124838023D01*
X172400000Y-124820646D01*
X172223570Y-124838023D01*
X172053920Y-124889486D01*
X171897569Y-124973057D01*
X171760526Y-125085525D01*
X171648058Y-125222568D01*
X171564486Y-125378919D01*
X171513023Y-125548569D01*
X171500000Y-125680793D01*
X171300000Y-125680793D01*
X171286977Y-125548569D01*
X171235514Y-125378919D01*
X171151943Y-125222568D01*
X171039475Y-125085525D01*
X170902432Y-124973057D01*
X170746081Y-124889486D01*
X170576431Y-124838023D01*
X170400000Y-124820646D01*
X170223570Y-124838023D01*
X170053920Y-124889486D01*
X169897569Y-124973057D01*
X169760526Y-125085525D01*
X169648058Y-125222568D01*
X169564486Y-125378919D01*
X169513023Y-125548569D01*
X169500000Y-125680793D01*
X166300000Y-125680793D01*
X166300000Y-125280793D01*
X166286977Y-125148569D01*
X166235514Y-124978919D01*
X166151943Y-124822568D01*
X166039475Y-124685525D01*
X165902431Y-124573057D01*
X165746080Y-124489486D01*
X165659604Y-124463254D01*
X165637260Y-124444916D01*
X165563427Y-124405452D01*
X165483314Y-124381150D01*
X165482068Y-124381027D01*
X163765253Y-122664213D01*
X163751944Y-122647996D01*
X163687230Y-122594886D01*
X163613397Y-122555422D01*
X163533284Y-122531120D01*
X163470844Y-122524970D01*
X163470837Y-122524970D01*
X163449970Y-122522915D01*
X163429103Y-122524970D01*
X156198831Y-122524970D01*
X154523861Y-120850000D01*
X177539058Y-120850000D01*
X177550797Y-120969189D01*
X177585563Y-121083797D01*
X177642020Y-121189421D01*
X177717999Y-121282001D01*
X177810579Y-121357980D01*
X177916203Y-121414437D01*
X178030811Y-121449203D01*
X178150000Y-121460942D01*
X178694000Y-121458000D01*
X178846000Y-121306000D01*
X178846000Y-120154000D01*
X179154000Y-120154000D01*
X179154000Y-121306000D01*
X179306000Y-121458000D01*
X179850000Y-121460942D01*
X179969189Y-121449203D01*
X180083797Y-121414437D01*
X180189421Y-121357980D01*
X180282001Y-121282001D01*
X180357980Y-121189421D01*
X180414437Y-121083797D01*
X180449203Y-120969189D01*
X180460942Y-120850000D01*
X180458000Y-120306000D01*
X180306000Y-120154000D01*
X179154000Y-120154000D01*
X178846000Y-120154000D01*
X177694000Y-120154000D01*
X177542000Y-120306000D01*
X177539058Y-120850000D01*
X154523861Y-120850000D01*
X153648861Y-119975000D01*
X161689058Y-119975000D01*
X161700797Y-120094189D01*
X161735563Y-120208797D01*
X161792020Y-120314421D01*
X161867999Y-120407001D01*
X161960579Y-120482980D01*
X162066203Y-120539437D01*
X162180811Y-120574203D01*
X162300000Y-120585942D01*
X162594000Y-120583000D01*
X162746000Y-120431000D01*
X162746000Y-119254000D01*
X161844000Y-119254000D01*
X161692000Y-119406000D01*
X161689058Y-119975000D01*
X153648861Y-119975000D01*
X151898861Y-118225000D01*
X161689058Y-118225000D01*
X161692000Y-118794000D01*
X161844000Y-118946000D01*
X162746000Y-118946000D01*
X162746000Y-117769000D01*
X163054000Y-117769000D01*
X163054000Y-118946000D01*
X163074000Y-118946000D01*
X163074000Y-119254000D01*
X163054000Y-119254000D01*
X163054000Y-120431000D01*
X163206000Y-120583000D01*
X163500000Y-120585942D01*
X163619189Y-120574203D01*
X163733797Y-120539437D01*
X163839421Y-120482980D01*
X163932001Y-120407001D01*
X164007980Y-120314421D01*
X164064437Y-120208797D01*
X164099203Y-120094189D01*
X164110942Y-119975000D01*
X164110070Y-119806362D01*
X164148058Y-119877432D01*
X164260526Y-120014475D01*
X164397569Y-120126943D01*
X164553920Y-120210514D01*
X164723570Y-120261977D01*
X164900000Y-120279354D01*
X165076431Y-120261977D01*
X165246081Y-120210514D01*
X165402432Y-120126943D01*
X165539475Y-120014475D01*
X165651943Y-119877432D01*
X165735514Y-119721081D01*
X165786977Y-119551431D01*
X165800000Y-119419207D01*
X165800000Y-118780794D01*
X166000000Y-118780794D01*
X166000000Y-119419207D01*
X166013023Y-119551431D01*
X166064486Y-119721081D01*
X166148058Y-119877432D01*
X166260526Y-120014475D01*
X166397569Y-120126943D01*
X166553920Y-120210514D01*
X166723570Y-120261977D01*
X166900000Y-120279354D01*
X167076431Y-120261977D01*
X167246081Y-120210514D01*
X167402432Y-120126943D01*
X167539475Y-120014475D01*
X167651943Y-119877432D01*
X167735514Y-119721081D01*
X167786977Y-119551431D01*
X167800000Y-119419207D01*
X167800000Y-118780794D01*
X168000000Y-118780794D01*
X168000000Y-119419207D01*
X168013023Y-119551431D01*
X168064486Y-119721081D01*
X168148058Y-119877432D01*
X168260526Y-120014475D01*
X168397569Y-120126943D01*
X168553920Y-120210514D01*
X168723570Y-120261977D01*
X168900000Y-120279354D01*
X169076431Y-120261977D01*
X169246081Y-120210514D01*
X169402432Y-120126943D01*
X169539475Y-120014475D01*
X169651943Y-119877432D01*
X169735514Y-119721081D01*
X169786977Y-119551431D01*
X169800000Y-119419207D01*
X169800000Y-118780793D01*
X169786977Y-118648569D01*
X169735514Y-118478919D01*
X169651943Y-118322568D01*
X169539475Y-118185525D01*
X169402431Y-118073057D01*
X169246080Y-117989486D01*
X169076430Y-117938023D01*
X168900000Y-117920646D01*
X168723569Y-117938023D01*
X168553919Y-117989486D01*
X168397568Y-118073057D01*
X168260525Y-118185525D01*
X168148057Y-118322569D01*
X168064486Y-118478920D01*
X168013023Y-118648570D01*
X168000000Y-118780794D01*
X167800000Y-118780794D01*
X167800000Y-118780793D01*
X167786977Y-118648569D01*
X167735514Y-118478919D01*
X167651943Y-118322568D01*
X167539475Y-118185525D01*
X167402431Y-118073057D01*
X167246080Y-117989486D01*
X167076430Y-117938023D01*
X166900000Y-117920646D01*
X166723569Y-117938023D01*
X166553919Y-117989486D01*
X166397568Y-118073057D01*
X166260525Y-118185525D01*
X166148057Y-118322569D01*
X166064486Y-118478920D01*
X166013023Y-118648570D01*
X166000000Y-118780794D01*
X165800000Y-118780794D01*
X165800000Y-118780793D01*
X165786977Y-118648569D01*
X165735514Y-118478919D01*
X165651943Y-118322568D01*
X165539475Y-118185525D01*
X165402431Y-118073057D01*
X165246080Y-117989486D01*
X165076430Y-117938023D01*
X164900000Y-117920646D01*
X164723569Y-117938023D01*
X164553919Y-117989486D01*
X164397568Y-118073057D01*
X164260525Y-118185525D01*
X164148057Y-118322569D01*
X164110070Y-118393638D01*
X164110942Y-118225000D01*
X164099203Y-118105811D01*
X164064437Y-117991203D01*
X164007980Y-117885579D01*
X163932001Y-117792999D01*
X163839421Y-117717020D01*
X163733797Y-117660563D01*
X163619189Y-117625797D01*
X163500000Y-117614058D01*
X163206000Y-117617000D01*
X163054000Y-117769000D01*
X162746000Y-117769000D01*
X162594000Y-117617000D01*
X162300000Y-117614058D01*
X162180811Y-117625797D01*
X162066203Y-117660563D01*
X161960579Y-117717020D01*
X161867999Y-117792999D01*
X161792020Y-117885579D01*
X161735563Y-117991203D01*
X161700797Y-118105811D01*
X161689058Y-118225000D01*
X151898861Y-118225000D01*
X150125000Y-116451140D01*
X150125000Y-114520867D01*
X150127055Y-114500000D01*
X150125000Y-114479133D01*
X150125000Y-114479126D01*
X150118850Y-114416686D01*
X150094548Y-114336573D01*
X150055084Y-114262740D01*
X150021530Y-114221855D01*
X150015280Y-114214239D01*
X150015279Y-114214238D01*
X150001974Y-114198026D01*
X149985762Y-114184721D01*
X149693588Y-113892547D01*
X149731056Y-113900000D01*
X149868944Y-113900000D01*
X150004182Y-113873099D01*
X150131574Y-113820332D01*
X150246224Y-113743726D01*
X150343726Y-113646224D01*
X150357907Y-113625000D01*
X150623960Y-113625000D01*
X151304980Y-114306021D01*
X151300000Y-114331056D01*
X151300000Y-114468944D01*
X151326901Y-114604182D01*
X151379668Y-114731574D01*
X151456274Y-114846224D01*
X151553776Y-114943726D01*
X151668426Y-115020332D01*
X151795818Y-115073099D01*
X151931056Y-115100000D01*
X152068944Y-115100000D01*
X152204182Y-115073099D01*
X152331574Y-115020332D01*
X152446224Y-114943726D01*
X152543726Y-114846224D01*
X152620332Y-114731574D01*
X152673099Y-114604182D01*
X152700000Y-114468944D01*
X152700000Y-114331056D01*
X152673099Y-114195818D01*
X152620332Y-114068426D01*
X152543726Y-113953776D01*
X152446224Y-113856274D01*
X152331574Y-113779668D01*
X152204182Y-113726901D01*
X152068944Y-113700000D01*
X151931056Y-113700000D01*
X151906021Y-113704980D01*
X151115283Y-112914243D01*
X151101974Y-112898026D01*
X151037260Y-112844916D01*
X150963427Y-112805452D01*
X150883314Y-112781150D01*
X150820874Y-112775000D01*
X150820867Y-112775000D01*
X150800000Y-112772945D01*
X150779133Y-112775000D01*
X150357907Y-112775000D01*
X150343726Y-112753776D01*
X150246224Y-112656274D01*
X150131574Y-112579668D01*
X150004182Y-112526901D01*
X149868944Y-112500000D01*
X149731056Y-112500000D01*
X149595818Y-112526901D01*
X149468426Y-112579668D01*
X149353776Y-112656274D01*
X149256274Y-112753776D01*
X149179668Y-112868426D01*
X149126901Y-112995818D01*
X149100000Y-113131056D01*
X149100000Y-113268944D01*
X149107453Y-113306412D01*
X147625000Y-111823960D01*
X147625000Y-109757907D01*
X147646224Y-109743726D01*
X147743726Y-109646224D01*
X147820332Y-109531574D01*
X147873099Y-109404182D01*
X147900000Y-109268944D01*
X147900000Y-109131056D01*
X147873099Y-108995818D01*
X147820332Y-108868426D01*
X147791316Y-108825000D01*
X155600000Y-108825000D01*
X155600000Y-108868944D01*
X155626901Y-109004182D01*
X155679668Y-109131574D01*
X155756274Y-109246224D01*
X155853776Y-109343726D01*
X155968426Y-109420332D01*
X156095818Y-109473099D01*
X156231056Y-109500000D01*
X156368944Y-109500000D01*
X156504182Y-109473099D01*
X156631574Y-109420332D01*
X156746224Y-109343726D01*
X156843726Y-109246224D01*
X156920332Y-109131574D01*
X156973099Y-109004182D01*
X156999046Y-108873741D01*
X157131056Y-108900000D01*
X157268944Y-108900000D01*
X157404182Y-108873099D01*
X157531574Y-108820332D01*
X157646224Y-108743726D01*
X157743726Y-108646224D01*
X157820332Y-108531574D01*
X157873099Y-108404182D01*
X157900000Y-108268944D01*
X157900000Y-108131056D01*
X157873099Y-107995818D01*
X157820332Y-107868426D01*
X157791316Y-107825000D01*
X166323960Y-107825000D01*
X168298960Y-109800000D01*
X168231056Y-109800000D01*
X168095818Y-109826901D01*
X167968426Y-109879668D01*
X167853776Y-109956274D01*
X167756274Y-110053776D01*
X167679668Y-110168426D01*
X167626901Y-110295818D01*
X167600000Y-110431056D01*
X167600000Y-110568944D01*
X167626901Y-110704182D01*
X167679668Y-110831574D01*
X167756274Y-110946224D01*
X167853776Y-111043726D01*
X167968426Y-111120332D01*
X168095818Y-111173099D01*
X168231056Y-111200000D01*
X168368944Y-111200000D01*
X168393980Y-111195020D01*
X170475000Y-113276041D01*
X170475001Y-118031668D01*
X170397568Y-118073057D01*
X170260525Y-118185525D01*
X170148057Y-118322569D01*
X170064486Y-118478920D01*
X170013023Y-118648570D01*
X170000000Y-118780794D01*
X170000000Y-119419207D01*
X170013023Y-119551431D01*
X170064486Y-119721081D01*
X170148058Y-119877432D01*
X170260526Y-120014475D01*
X170397569Y-120126943D01*
X170553920Y-120210514D01*
X170723570Y-120261977D01*
X170900000Y-120279354D01*
X171076431Y-120261977D01*
X171246081Y-120210514D01*
X171402432Y-120126943D01*
X171539475Y-120014475D01*
X171651943Y-119877432D01*
X171735514Y-119721081D01*
X171786977Y-119551431D01*
X171800000Y-119419207D01*
X171800000Y-118780794D01*
X172000000Y-118780794D01*
X172000000Y-119419207D01*
X172013023Y-119551431D01*
X172064486Y-119721081D01*
X172148058Y-119877432D01*
X172260526Y-120014475D01*
X172397569Y-120126943D01*
X172553920Y-120210514D01*
X172723570Y-120261977D01*
X172900000Y-120279354D01*
X173076431Y-120261977D01*
X173246081Y-120210514D01*
X173402432Y-120126943D01*
X173539475Y-120014475D01*
X173651943Y-119877432D01*
X173735514Y-119721081D01*
X173786977Y-119551431D01*
X173800000Y-119419207D01*
X173800000Y-118780793D01*
X173786977Y-118648569D01*
X173735514Y-118478919D01*
X173651943Y-118322568D01*
X173539475Y-118185525D01*
X173402431Y-118073057D01*
X173246080Y-117989486D01*
X173076430Y-117938023D01*
X172900000Y-117920646D01*
X172723569Y-117938023D01*
X172553919Y-117989486D01*
X172397568Y-118073057D01*
X172260525Y-118185525D01*
X172148057Y-118322569D01*
X172064486Y-118478920D01*
X172013023Y-118648570D01*
X172000000Y-118780794D01*
X171800000Y-118780794D01*
X171800000Y-118780793D01*
X171786977Y-118648569D01*
X171735514Y-118478919D01*
X171651943Y-118322568D01*
X171539475Y-118185525D01*
X171402431Y-118073057D01*
X171325000Y-118031669D01*
X171325000Y-113120866D01*
X171327055Y-113099999D01*
X171325000Y-113079132D01*
X171325000Y-113079126D01*
X171318850Y-113016686D01*
X171318424Y-113015280D01*
X171304193Y-112968368D01*
X171294548Y-112936573D01*
X171255084Y-112862740D01*
X171201974Y-112798026D01*
X171185761Y-112784720D01*
X168995020Y-110593980D01*
X169000000Y-110568944D01*
X169000000Y-110501040D01*
X173004980Y-114506020D01*
X173000000Y-114531056D01*
X173000000Y-114668944D01*
X173026901Y-114804182D01*
X173079668Y-114931574D01*
X173156274Y-115046224D01*
X173253776Y-115143726D01*
X173368426Y-115220332D01*
X173495818Y-115273099D01*
X173631056Y-115300000D01*
X173768944Y-115300000D01*
X173904182Y-115273099D01*
X174031574Y-115220332D01*
X174146224Y-115143726D01*
X174243726Y-115046224D01*
X174320332Y-114931574D01*
X174373099Y-114804182D01*
X174400000Y-114668944D01*
X174400000Y-114531056D01*
X174373099Y-114395818D01*
X174320332Y-114268426D01*
X174243726Y-114153776D01*
X174146224Y-114056274D01*
X174031574Y-113979668D01*
X173904182Y-113926901D01*
X173768944Y-113900000D01*
X173631056Y-113900000D01*
X173606020Y-113904980D01*
X173257835Y-113556795D01*
X173266845Y-113556795D01*
X173353776Y-113643726D01*
X173468426Y-113720332D01*
X173595818Y-113773099D01*
X173731056Y-113800000D01*
X173868944Y-113800000D01*
X174004182Y-113773099D01*
X174131574Y-113720332D01*
X174246224Y-113643726D01*
X174343726Y-113546224D01*
X174420332Y-113431574D01*
X174473099Y-113304182D01*
X174500000Y-113168944D01*
X174500000Y-113031056D01*
X174473099Y-112895818D01*
X174420332Y-112768426D01*
X174343726Y-112653776D01*
X174246224Y-112556274D01*
X174162003Y-112500000D01*
X174246224Y-112443726D01*
X174343726Y-112346224D01*
X174420332Y-112231574D01*
X174473099Y-112104182D01*
X174500000Y-111968944D01*
X174500000Y-111831056D01*
X174473099Y-111695818D01*
X174420332Y-111568426D01*
X174343726Y-111453776D01*
X174246224Y-111356274D01*
X174131574Y-111279668D01*
X174004182Y-111226901D01*
X173868944Y-111200000D01*
X173731056Y-111200000D01*
X173595818Y-111226901D01*
X173468426Y-111279668D01*
X173353776Y-111356274D01*
X173271460Y-111438590D01*
X172412451Y-111438590D01*
X169304917Y-108331056D01*
X174100000Y-108331056D01*
X174100000Y-108468944D01*
X174126901Y-108604182D01*
X174179668Y-108731574D01*
X174256274Y-108846224D01*
X174353776Y-108943726D01*
X174468426Y-109020332D01*
X174595818Y-109073099D01*
X174731056Y-109100000D01*
X174868944Y-109100000D01*
X174893980Y-109095020D01*
X178575000Y-112776041D01*
X178575001Y-116387176D01*
X178557785Y-116392398D01*
X178358003Y-116499184D01*
X178182893Y-116642893D01*
X178039184Y-116818003D01*
X177932398Y-117017785D01*
X177866640Y-117234561D01*
X177844436Y-117460000D01*
X177866640Y-117685439D01*
X177932398Y-117902215D01*
X178039184Y-118101997D01*
X178182893Y-118277107D01*
X178358003Y-118420816D01*
X178557785Y-118527602D01*
X178603638Y-118541511D01*
X178150000Y-118539058D01*
X178030811Y-118550797D01*
X177916203Y-118585563D01*
X177810579Y-118642020D01*
X177717999Y-118717999D01*
X177642020Y-118810579D01*
X177585563Y-118916203D01*
X177550797Y-119030811D01*
X177539058Y-119150000D01*
X177542000Y-119694000D01*
X177694000Y-119846000D01*
X178846000Y-119846000D01*
X178846000Y-119826000D01*
X179154000Y-119826000D01*
X179154000Y-119846000D01*
X180306000Y-119846000D01*
X180458000Y-119694000D01*
X180460942Y-119150000D01*
X180449203Y-119030811D01*
X180414437Y-118916203D01*
X180357980Y-118810579D01*
X180282001Y-118717999D01*
X180189421Y-118642020D01*
X180083797Y-118585563D01*
X179969189Y-118550797D01*
X179850000Y-118539058D01*
X179396362Y-118541511D01*
X179442215Y-118527602D01*
X179641997Y-118420816D01*
X179817107Y-118277107D01*
X179960816Y-118101997D01*
X180067602Y-117902215D01*
X180133360Y-117685439D01*
X180155564Y-117460000D01*
X180133360Y-117234561D01*
X180067602Y-117017785D01*
X179960816Y-116818003D01*
X179817107Y-116642893D01*
X179641997Y-116499184D01*
X179442215Y-116392398D01*
X179425000Y-116387176D01*
X179425000Y-112620867D01*
X179427055Y-112600000D01*
X179425000Y-112579133D01*
X179425000Y-112579126D01*
X179418850Y-112516686D01*
X179394548Y-112436573D01*
X179355084Y-112362740D01*
X179301974Y-112298026D01*
X179285763Y-112284722D01*
X175495020Y-108493980D01*
X175500000Y-108468944D01*
X175500000Y-108331056D01*
X175473099Y-108195818D01*
X175420332Y-108068426D01*
X175343726Y-107953776D01*
X175246224Y-107856274D01*
X175131574Y-107779668D01*
X175004182Y-107726901D01*
X174868944Y-107700000D01*
X174731056Y-107700000D01*
X174595818Y-107726901D01*
X174468426Y-107779668D01*
X174353776Y-107856274D01*
X174256274Y-107953776D01*
X174179668Y-108068426D01*
X174126901Y-108195818D01*
X174100000Y-108331056D01*
X169304917Y-108331056D01*
X167188084Y-106214224D01*
X167174774Y-106198006D01*
X167110060Y-106144896D01*
X167036227Y-106105432D01*
X166956114Y-106081130D01*
X166893674Y-106074980D01*
X166893667Y-106074980D01*
X166872800Y-106072925D01*
X166851933Y-106074980D01*
X165099449Y-106074980D01*
X165146224Y-106043726D01*
X165243726Y-105946224D01*
X165320332Y-105831574D01*
X165373099Y-105704182D01*
X165400000Y-105568944D01*
X165400000Y-105431056D01*
X165395020Y-105406020D01*
X167176041Y-103625000D01*
X174042093Y-103625000D01*
X174056274Y-103646224D01*
X174153776Y-103743726D01*
X174268426Y-103820332D01*
X174395818Y-103873099D01*
X174531056Y-103900000D01*
X174668944Y-103900000D01*
X174804182Y-103873099D01*
X174931574Y-103820332D01*
X175046224Y-103743726D01*
X175143726Y-103646224D01*
X175220332Y-103531574D01*
X175273099Y-103404182D01*
X175300000Y-103268944D01*
X175300000Y-103131056D01*
X175273099Y-102995818D01*
X175220332Y-102868426D01*
X175143726Y-102753776D01*
X175046224Y-102656274D01*
X174931574Y-102579668D01*
X174859948Y-102550000D01*
X174931574Y-102520332D01*
X175046224Y-102443726D01*
X175143726Y-102346224D01*
X175220332Y-102231574D01*
X175273099Y-102104182D01*
X175300000Y-101968944D01*
X175300000Y-101831056D01*
X175273099Y-101695818D01*
X175220332Y-101568426D01*
X175143726Y-101453776D01*
X175046224Y-101356274D01*
X174931574Y-101279668D01*
X174859948Y-101250000D01*
X174931574Y-101220332D01*
X175046224Y-101143726D01*
X175143726Y-101046224D01*
X175220332Y-100931574D01*
X175273099Y-100804182D01*
X175300000Y-100668944D01*
X175300000Y-100531056D01*
X175273099Y-100395818D01*
X175220332Y-100268426D01*
X175143726Y-100153776D01*
X175046224Y-100056274D01*
X174931574Y-99979668D01*
X174804182Y-99926901D01*
X174668944Y-99900000D01*
X174531056Y-99900000D01*
X174395818Y-99926901D01*
X174268426Y-99979668D01*
X174153776Y-100056274D01*
X174056274Y-100153776D01*
X174042093Y-100175000D01*
X167220866Y-100175000D01*
X167199999Y-100172945D01*
X167179132Y-100175000D01*
X167179126Y-100175000D01*
X167125098Y-100180321D01*
X167116685Y-100181150D01*
X167092383Y-100188522D01*
X167036573Y-100205452D01*
X166962740Y-100244916D01*
X166898026Y-100298026D01*
X166884721Y-100314238D01*
X164193980Y-103004980D01*
X164168944Y-103000000D01*
X164031056Y-103000000D01*
X163895818Y-103026901D01*
X163768426Y-103079668D01*
X163653776Y-103156274D01*
X163625000Y-103185050D01*
X163625000Y-102012450D01*
X167062441Y-98575010D01*
X183285060Y-98575010D01*
X183353776Y-98643726D01*
X183468426Y-98720332D01*
X183595818Y-98773099D01*
X183620876Y-98778083D01*
X178214239Y-104184721D01*
X178198027Y-104198026D01*
X178144917Y-104262740D01*
X178116083Y-104316686D01*
X178105453Y-104336573D01*
X178081150Y-104416686D01*
X178072945Y-104500000D01*
X178075001Y-104520877D01*
X178075000Y-109642093D01*
X178053776Y-109656274D01*
X177956274Y-109753776D01*
X177879668Y-109868426D01*
X177826901Y-109995818D01*
X177800000Y-110131056D01*
X177800000Y-110268944D01*
X177826901Y-110404182D01*
X177879668Y-110531574D01*
X177956274Y-110646224D01*
X178053776Y-110743726D01*
X178168426Y-110820332D01*
X178295818Y-110873099D01*
X178431056Y-110900000D01*
X178568944Y-110900000D01*
X178593980Y-110895020D01*
X180575001Y-112876042D01*
X180575000Y-121823959D01*
X178114239Y-124284721D01*
X178098027Y-124298026D01*
X178044917Y-124362740D01*
X178013966Y-124420646D01*
X178005453Y-124436573D01*
X177981150Y-124516686D01*
X177972945Y-124600000D01*
X177975001Y-124620876D01*
X177975001Y-124931669D01*
X177897569Y-124973057D01*
X177760526Y-125085525D01*
X177648058Y-125222568D01*
X177564486Y-125378919D01*
X177513023Y-125548569D01*
X177500000Y-125680793D01*
X177500000Y-126319206D01*
X177513023Y-126451430D01*
X177564486Y-126621080D01*
X177648057Y-126777431D01*
X177760525Y-126914475D01*
X177897568Y-127026943D01*
X178053919Y-127110514D01*
X178223569Y-127161977D01*
X178400000Y-127179354D01*
X178576430Y-127161977D01*
X178746080Y-127110514D01*
X178902431Y-127026943D01*
X179039475Y-126914475D01*
X179151943Y-126777432D01*
X179189930Y-126706363D01*
X179189058Y-126875000D01*
X179200797Y-126994189D01*
X179235563Y-127108797D01*
X179292020Y-127214421D01*
X179367999Y-127307001D01*
X179460579Y-127382980D01*
X179566203Y-127439437D01*
X179680811Y-127474203D01*
X179800000Y-127485942D01*
X180094000Y-127483000D01*
X180246000Y-127331000D01*
X180246000Y-126154000D01*
X180554000Y-126154000D01*
X180554000Y-127331000D01*
X180706000Y-127483000D01*
X181000000Y-127485942D01*
X181119189Y-127474203D01*
X181233797Y-127439437D01*
X181339421Y-127382980D01*
X181432001Y-127307001D01*
X181507980Y-127214421D01*
X181564437Y-127108797D01*
X181599203Y-126994189D01*
X181610942Y-126875000D01*
X181608000Y-126306000D01*
X181456000Y-126154000D01*
X180554000Y-126154000D01*
X180246000Y-126154000D01*
X180226000Y-126154000D01*
X180226000Y-125846000D01*
X180246000Y-125846000D01*
X180246000Y-124669000D01*
X180554000Y-124669000D01*
X180554000Y-125846000D01*
X181456000Y-125846000D01*
X181608000Y-125694000D01*
X181610942Y-125125000D01*
X181599203Y-125005811D01*
X181564437Y-124891203D01*
X181507980Y-124785579D01*
X181432001Y-124692999D01*
X181339421Y-124617020D01*
X181233797Y-124560563D01*
X181119189Y-124525797D01*
X181000000Y-124514058D01*
X180706000Y-124517000D01*
X180554000Y-124669000D01*
X180246000Y-124669000D01*
X180094000Y-124517000D01*
X179800000Y-124514058D01*
X179680811Y-124525797D01*
X179566203Y-124560563D01*
X179460579Y-124617020D01*
X179367999Y-124692999D01*
X179292020Y-124785579D01*
X179235563Y-124891203D01*
X179200797Y-125005811D01*
X179189058Y-125125000D01*
X179189930Y-125293637D01*
X179151943Y-125222568D01*
X179039475Y-125085525D01*
X178902432Y-124973057D01*
X178825000Y-124931669D01*
X178825000Y-124776040D01*
X180962841Y-122638199D01*
X182079590Y-122638199D01*
X182179181Y-122891762D01*
X182466472Y-123025154D01*
X182774265Y-123099934D01*
X183090735Y-123113230D01*
X183403716Y-123064531D01*
X183701184Y-122955708D01*
X183820819Y-122891762D01*
X183920410Y-122638199D01*
X188579590Y-122638199D01*
X188679181Y-122891762D01*
X188966472Y-123025154D01*
X189274265Y-123099934D01*
X189590735Y-123113230D01*
X189903716Y-123064531D01*
X190201184Y-122955708D01*
X190320819Y-122891762D01*
X190420410Y-122638199D01*
X189500000Y-121717789D01*
X188579590Y-122638199D01*
X183920410Y-122638199D01*
X183000000Y-121717789D01*
X182079590Y-122638199D01*
X180962841Y-122638199D01*
X181285763Y-122315278D01*
X181301974Y-122301974D01*
X181355084Y-122237260D01*
X181394548Y-122163427D01*
X181418850Y-122083314D01*
X181425000Y-122020874D01*
X181425000Y-122020868D01*
X181427055Y-122000001D01*
X181425000Y-121979134D01*
X181425000Y-121836433D01*
X181435469Y-121903716D01*
X181544292Y-122201184D01*
X181608238Y-122320819D01*
X181861801Y-122420410D01*
X182782211Y-121500000D01*
X183217789Y-121500000D01*
X184138199Y-122420410D01*
X184391762Y-122320819D01*
X184525154Y-122033528D01*
X184599934Y-121725735D01*
X184605605Y-121590735D01*
X187886770Y-121590735D01*
X187935469Y-121903716D01*
X188044292Y-122201184D01*
X188108238Y-122320819D01*
X188361801Y-122420410D01*
X189282211Y-121500000D01*
X189717789Y-121500000D01*
X190638199Y-122420410D01*
X190891762Y-122320819D01*
X191025154Y-122033528D01*
X191099934Y-121725735D01*
X191113230Y-121409265D01*
X191064531Y-121096284D01*
X190955708Y-120798816D01*
X190891762Y-120679181D01*
X190638199Y-120579590D01*
X189717789Y-121500000D01*
X189282211Y-121500000D01*
X188361801Y-120579590D01*
X188108238Y-120679181D01*
X187974846Y-120966472D01*
X187900066Y-121274265D01*
X187886770Y-121590735D01*
X184605605Y-121590735D01*
X184613230Y-121409265D01*
X184564531Y-121096284D01*
X184455708Y-120798816D01*
X184391762Y-120679181D01*
X184138199Y-120579590D01*
X183217789Y-121500000D01*
X182782211Y-121500000D01*
X181861801Y-120579590D01*
X181608238Y-120679181D01*
X181474846Y-120966472D01*
X181425000Y-121171637D01*
X181425000Y-120361801D01*
X182079590Y-120361801D01*
X183000000Y-121282211D01*
X183920410Y-120361801D01*
X188579590Y-120361801D01*
X189500000Y-121282211D01*
X190420410Y-120361801D01*
X190320819Y-120108238D01*
X190033528Y-119974846D01*
X189725735Y-119900066D01*
X189409265Y-119886770D01*
X189096284Y-119935469D01*
X188798816Y-120044292D01*
X188679181Y-120108238D01*
X188579590Y-120361801D01*
X183920410Y-120361801D01*
X183820819Y-120108238D01*
X183533528Y-119974846D01*
X183225735Y-119900066D01*
X182909265Y-119886770D01*
X182596284Y-119935469D01*
X182298816Y-120044292D01*
X182179181Y-120108238D01*
X182079590Y-120361801D01*
X181425000Y-120361801D01*
X181425000Y-116871961D01*
X181700000Y-116871961D01*
X181700000Y-117128039D01*
X181749958Y-117379196D01*
X181847955Y-117615781D01*
X181990224Y-117828702D01*
X182171298Y-118009776D01*
X182384219Y-118152045D01*
X182620804Y-118250042D01*
X182871961Y-118300000D01*
X183128039Y-118300000D01*
X183379196Y-118250042D01*
X183615781Y-118152045D01*
X183828702Y-118009776D01*
X184009776Y-117828702D01*
X184152045Y-117615781D01*
X184250042Y-117379196D01*
X184300000Y-117128039D01*
X184300000Y-116871961D01*
X188200000Y-116871961D01*
X188200000Y-117128039D01*
X188249958Y-117379196D01*
X188347955Y-117615781D01*
X188490224Y-117828702D01*
X188671298Y-118009776D01*
X188884219Y-118152045D01*
X189120804Y-118250042D01*
X189371961Y-118300000D01*
X189628039Y-118300000D01*
X189879196Y-118250042D01*
X190115781Y-118152045D01*
X190328702Y-118009776D01*
X190509776Y-117828702D01*
X190652045Y-117615781D01*
X190750042Y-117379196D01*
X190800000Y-117128039D01*
X190800000Y-116871961D01*
X190750042Y-116620804D01*
X190652045Y-116384219D01*
X190509776Y-116171298D01*
X190328702Y-115990224D01*
X190115781Y-115847955D01*
X189879196Y-115749958D01*
X189628039Y-115700000D01*
X189371961Y-115700000D01*
X189120804Y-115749958D01*
X188884219Y-115847955D01*
X188671298Y-115990224D01*
X188490224Y-116171298D01*
X188347955Y-116384219D01*
X188249958Y-116620804D01*
X188200000Y-116871961D01*
X184300000Y-116871961D01*
X184250042Y-116620804D01*
X184152045Y-116384219D01*
X184009776Y-116171298D01*
X183828702Y-115990224D01*
X183615781Y-115847955D01*
X183379196Y-115749958D01*
X183128039Y-115700000D01*
X182871961Y-115700000D01*
X182620804Y-115749958D01*
X182384219Y-115847955D01*
X182171298Y-115990224D01*
X181990224Y-116171298D01*
X181847955Y-116384219D01*
X181749958Y-116620804D01*
X181700000Y-116871961D01*
X181425000Y-116871961D01*
X181425000Y-112720867D01*
X181427055Y-112700000D01*
X181425000Y-112679133D01*
X181425000Y-112679126D01*
X181418850Y-112616686D01*
X181394548Y-112536573D01*
X181355084Y-112462740D01*
X181301974Y-112398026D01*
X181285762Y-112384721D01*
X181273002Y-112371961D01*
X181700000Y-112371961D01*
X181700000Y-112628039D01*
X181749958Y-112879196D01*
X181847955Y-113115781D01*
X181990224Y-113328702D01*
X182171298Y-113509776D01*
X182384219Y-113652045D01*
X182620804Y-113750042D01*
X182871961Y-113800000D01*
X183128039Y-113800000D01*
X183379196Y-113750042D01*
X183615781Y-113652045D01*
X183828702Y-113509776D01*
X184009776Y-113328702D01*
X184152045Y-113115781D01*
X184250042Y-112879196D01*
X184300000Y-112628039D01*
X184300000Y-112371961D01*
X188200000Y-112371961D01*
X188200000Y-112628039D01*
X188249958Y-112879196D01*
X188347955Y-113115781D01*
X188490224Y-113328702D01*
X188671298Y-113509776D01*
X188884219Y-113652045D01*
X189120804Y-113750042D01*
X189371961Y-113800000D01*
X189628039Y-113800000D01*
X189879196Y-113750042D01*
X190115781Y-113652045D01*
X190328702Y-113509776D01*
X190509776Y-113328702D01*
X190652045Y-113115781D01*
X190750042Y-112879196D01*
X190800000Y-112628039D01*
X190800000Y-112371961D01*
X190750042Y-112120804D01*
X190652045Y-111884219D01*
X190509776Y-111671298D01*
X190328702Y-111490224D01*
X190115781Y-111347955D01*
X189879196Y-111249958D01*
X189628039Y-111200000D01*
X189371961Y-111200000D01*
X189120804Y-111249958D01*
X188884219Y-111347955D01*
X188671298Y-111490224D01*
X188490224Y-111671298D01*
X188347955Y-111884219D01*
X188249958Y-112120804D01*
X188200000Y-112371961D01*
X184300000Y-112371961D01*
X184250042Y-112120804D01*
X184152045Y-111884219D01*
X184009776Y-111671298D01*
X183828702Y-111490224D01*
X183615781Y-111347955D01*
X183379196Y-111249958D01*
X183128039Y-111200000D01*
X182871961Y-111200000D01*
X182620804Y-111249958D01*
X182384219Y-111347955D01*
X182171298Y-111490224D01*
X181990224Y-111671298D01*
X181847955Y-111884219D01*
X181749958Y-112120804D01*
X181700000Y-112371961D01*
X181273002Y-112371961D01*
X179195020Y-110293980D01*
X179200000Y-110268944D01*
X179200000Y-110131056D01*
X179173099Y-109995818D01*
X179120332Y-109868426D01*
X179043726Y-109753776D01*
X178946224Y-109656274D01*
X178925000Y-109642093D01*
X178925000Y-109138199D01*
X182079590Y-109138199D01*
X182179181Y-109391762D01*
X182466472Y-109525154D01*
X182774265Y-109599934D01*
X183090735Y-109613230D01*
X183403716Y-109564531D01*
X183701184Y-109455708D01*
X183820819Y-109391762D01*
X183920410Y-109138199D01*
X188579590Y-109138199D01*
X188679181Y-109391762D01*
X188966472Y-109525154D01*
X189274265Y-109599934D01*
X189590735Y-109613230D01*
X189903716Y-109564531D01*
X190201184Y-109455708D01*
X190320819Y-109391762D01*
X190420410Y-109138199D01*
X189500000Y-108217789D01*
X188579590Y-109138199D01*
X183920410Y-109138199D01*
X183000000Y-108217789D01*
X182079590Y-109138199D01*
X178925000Y-109138199D01*
X178925000Y-108090735D01*
X181386770Y-108090735D01*
X181435469Y-108403716D01*
X181544292Y-108701184D01*
X181608238Y-108820819D01*
X181861801Y-108920410D01*
X182782211Y-108000000D01*
X183217789Y-108000000D01*
X184138199Y-108920410D01*
X184391762Y-108820819D01*
X184525154Y-108533528D01*
X184599934Y-108225735D01*
X184605605Y-108090735D01*
X187886770Y-108090735D01*
X187935469Y-108403716D01*
X188044292Y-108701184D01*
X188108238Y-108820819D01*
X188361801Y-108920410D01*
X189282211Y-108000000D01*
X189717789Y-108000000D01*
X190638199Y-108920410D01*
X190891762Y-108820819D01*
X191025154Y-108533528D01*
X191099934Y-108225735D01*
X191113230Y-107909265D01*
X191064531Y-107596284D01*
X190955708Y-107298816D01*
X190891762Y-107179181D01*
X190638199Y-107079590D01*
X189717789Y-108000000D01*
X189282211Y-108000000D01*
X188361801Y-107079590D01*
X188108238Y-107179181D01*
X187974846Y-107466472D01*
X187900066Y-107774265D01*
X187886770Y-108090735D01*
X184605605Y-108090735D01*
X184613230Y-107909265D01*
X184564531Y-107596284D01*
X184455708Y-107298816D01*
X184391762Y-107179181D01*
X184138199Y-107079590D01*
X183217789Y-108000000D01*
X182782211Y-108000000D01*
X181861801Y-107079590D01*
X181608238Y-107179181D01*
X181474846Y-107466472D01*
X181400066Y-107774265D01*
X181386770Y-108090735D01*
X178925000Y-108090735D01*
X178925000Y-106861801D01*
X182079590Y-106861801D01*
X183000000Y-107782211D01*
X183920410Y-106861801D01*
X188579590Y-106861801D01*
X189500000Y-107782211D01*
X190420410Y-106861801D01*
X190320819Y-106608238D01*
X190033528Y-106474846D01*
X189725735Y-106400066D01*
X189409265Y-106386770D01*
X189096284Y-106435469D01*
X188798816Y-106544292D01*
X188679181Y-106608238D01*
X188579590Y-106861801D01*
X183920410Y-106861801D01*
X183820819Y-106608238D01*
X183533528Y-106474846D01*
X183225735Y-106400066D01*
X182909265Y-106386770D01*
X182596284Y-106435469D01*
X182298816Y-106544292D01*
X182179181Y-106608238D01*
X182079590Y-106861801D01*
X178925000Y-106861801D01*
X178925000Y-105231056D01*
X185400000Y-105231056D01*
X185400000Y-105368944D01*
X185426901Y-105504182D01*
X185479668Y-105631574D01*
X185556274Y-105746224D01*
X185653776Y-105843726D01*
X185768426Y-105920332D01*
X185895818Y-105973099D01*
X186031056Y-106000000D01*
X186168944Y-106000000D01*
X186304182Y-105973099D01*
X186431574Y-105920332D01*
X186546224Y-105843726D01*
X186643726Y-105746224D01*
X186720332Y-105631574D01*
X186773099Y-105504182D01*
X186800000Y-105368944D01*
X186800000Y-105231056D01*
X186773099Y-105095818D01*
X186720332Y-104968426D01*
X186643726Y-104853776D01*
X186546224Y-104756274D01*
X186525000Y-104742093D01*
X186525000Y-104476040D01*
X186707453Y-104293587D01*
X186700000Y-104331056D01*
X186700000Y-104468944D01*
X186726901Y-104604182D01*
X186779668Y-104731574D01*
X186856274Y-104846224D01*
X186953776Y-104943726D01*
X187068426Y-105020332D01*
X187195818Y-105073099D01*
X187331056Y-105100000D01*
X187468944Y-105100000D01*
X187604182Y-105073099D01*
X187731574Y-105020332D01*
X187846224Y-104943726D01*
X187917989Y-104871961D01*
X193700000Y-104871961D01*
X193700000Y-105128039D01*
X193749958Y-105379196D01*
X193847955Y-105615781D01*
X193990224Y-105828702D01*
X194171298Y-106009776D01*
X194384219Y-106152045D01*
X194620804Y-106250042D01*
X194871961Y-106300000D01*
X195128039Y-106300000D01*
X195379196Y-106250042D01*
X195615781Y-106152045D01*
X195828702Y-106009776D01*
X196009776Y-105828702D01*
X196152045Y-105615781D01*
X196250042Y-105379196D01*
X196300000Y-105128039D01*
X196300000Y-104871961D01*
X196250042Y-104620804D01*
X196152045Y-104384219D01*
X196009776Y-104171298D01*
X195828702Y-103990224D01*
X195615781Y-103847955D01*
X195379196Y-103749958D01*
X195128039Y-103700000D01*
X194871961Y-103700000D01*
X194620804Y-103749958D01*
X194384219Y-103847955D01*
X194171298Y-103990224D01*
X193990224Y-104171298D01*
X193847955Y-104384219D01*
X193749958Y-104620804D01*
X193700000Y-104871961D01*
X187917989Y-104871961D01*
X187943726Y-104846224D01*
X187957907Y-104825000D01*
X188779133Y-104825000D01*
X188800000Y-104827055D01*
X188820867Y-104825000D01*
X188820874Y-104825000D01*
X188883314Y-104818850D01*
X188963427Y-104794548D01*
X189037260Y-104755084D01*
X189101974Y-104701974D01*
X189115283Y-104685757D01*
X191285763Y-102515278D01*
X191301974Y-102501974D01*
X191355084Y-102437260D01*
X191385867Y-102379668D01*
X191394548Y-102363428D01*
X191418850Y-102283315D01*
X191421613Y-102255260D01*
X191425000Y-102220874D01*
X191425000Y-102220867D01*
X191427055Y-102200000D01*
X191425000Y-102179133D01*
X191425000Y-100871961D01*
X193700000Y-100871961D01*
X193700000Y-101128039D01*
X193749958Y-101379196D01*
X193847955Y-101615781D01*
X193990224Y-101828702D01*
X194171298Y-102009776D01*
X194384219Y-102152045D01*
X194620804Y-102250042D01*
X194871961Y-102300000D01*
X195128039Y-102300000D01*
X195379196Y-102250042D01*
X195615781Y-102152045D01*
X195828702Y-102009776D01*
X196009776Y-101828702D01*
X196152045Y-101615781D01*
X196250042Y-101379196D01*
X196300000Y-101128039D01*
X196300000Y-100871961D01*
X196250042Y-100620804D01*
X196152045Y-100384219D01*
X196009776Y-100171298D01*
X195828702Y-99990224D01*
X195615781Y-99847955D01*
X195379196Y-99749958D01*
X195128039Y-99700000D01*
X194871961Y-99700000D01*
X194620804Y-99749958D01*
X194384219Y-99847955D01*
X194171298Y-99990224D01*
X193990224Y-100171298D01*
X193847955Y-100384219D01*
X193749958Y-100620804D01*
X193700000Y-100871961D01*
X191425000Y-100871961D01*
X191425000Y-96871961D01*
X193700000Y-96871961D01*
X193700000Y-97128039D01*
X193749958Y-97379196D01*
X193847955Y-97615781D01*
X193990224Y-97828702D01*
X194171298Y-98009776D01*
X194384219Y-98152045D01*
X194620804Y-98250042D01*
X194871961Y-98300000D01*
X195128039Y-98300000D01*
X195379196Y-98250042D01*
X195615781Y-98152045D01*
X195828702Y-98009776D01*
X196009776Y-97828702D01*
X196152045Y-97615781D01*
X196250042Y-97379196D01*
X196300000Y-97128039D01*
X196300000Y-96871961D01*
X196250042Y-96620804D01*
X196152045Y-96384219D01*
X196009776Y-96171298D01*
X195828702Y-95990224D01*
X195615781Y-95847955D01*
X195379196Y-95749958D01*
X195128039Y-95700000D01*
X194871961Y-95700000D01*
X194620804Y-95749958D01*
X194384219Y-95847955D01*
X194171298Y-95990224D01*
X193990224Y-96171298D01*
X193847955Y-96384219D01*
X193749958Y-96620804D01*
X193700000Y-96871961D01*
X191425000Y-96871961D01*
X191425000Y-95757907D01*
X191446224Y-95743726D01*
X191543726Y-95646224D01*
X191620332Y-95531574D01*
X191673099Y-95404182D01*
X191700000Y-95268944D01*
X191700000Y-95131056D01*
X191673099Y-94995818D01*
X191620332Y-94868426D01*
X191543726Y-94753776D01*
X191446224Y-94656274D01*
X191331574Y-94579668D01*
X191204182Y-94526901D01*
X191068944Y-94500000D01*
X190931056Y-94500000D01*
X190795818Y-94526901D01*
X190668426Y-94579668D01*
X190553776Y-94656274D01*
X190456274Y-94753776D01*
X190379668Y-94868426D01*
X190326901Y-94995818D01*
X190300000Y-95131056D01*
X190300000Y-95268944D01*
X190326901Y-95404182D01*
X190342230Y-95441189D01*
X190195020Y-95293980D01*
X190200000Y-95268944D01*
X190200000Y-95131056D01*
X190173099Y-94995818D01*
X190120332Y-94868426D01*
X190043726Y-94753776D01*
X189946224Y-94656274D01*
X189831574Y-94579668D01*
X189704182Y-94526901D01*
X189568944Y-94500000D01*
X189431056Y-94500000D01*
X189295818Y-94526901D01*
X189168426Y-94579668D01*
X189053776Y-94656274D01*
X188956274Y-94753776D01*
X188879668Y-94868426D01*
X188826901Y-94995818D01*
X188800000Y-95131056D01*
X188800000Y-95268944D01*
X188826901Y-95404182D01*
X188879668Y-95531574D01*
X188956274Y-95646224D01*
X189053776Y-95743726D01*
X189168426Y-95820332D01*
X189295818Y-95873099D01*
X189431056Y-95900000D01*
X189568944Y-95900000D01*
X189593980Y-95895020D01*
X190124991Y-96426032D01*
X190124990Y-101837560D01*
X189105755Y-102856795D01*
X187139071Y-102856795D01*
X187118204Y-102854740D01*
X187097337Y-102856795D01*
X187097331Y-102856795D01*
X187043303Y-102862116D01*
X187034890Y-102862945D01*
X187010588Y-102870317D01*
X186954778Y-102887247D01*
X186880945Y-102926711D01*
X186816231Y-102979821D01*
X186802926Y-102996033D01*
X185814239Y-103984721D01*
X185798027Y-103998026D01*
X185744917Y-104062740D01*
X185717390Y-104114240D01*
X185705453Y-104136573D01*
X185681150Y-104216686D01*
X185672945Y-104300000D01*
X185675001Y-104320876D01*
X185675001Y-104742092D01*
X185653776Y-104756274D01*
X185556274Y-104853776D01*
X185479668Y-104968426D01*
X185426901Y-105095818D01*
X185400000Y-105231056D01*
X178925000Y-105231056D01*
X178925000Y-104676040D01*
X185255545Y-98345495D01*
X185303776Y-98393726D01*
X185418426Y-98470332D01*
X185545818Y-98523099D01*
X185681056Y-98550000D01*
X185818944Y-98550000D01*
X185954182Y-98523099D01*
X186081574Y-98470332D01*
X186196224Y-98393726D01*
X186293726Y-98296224D01*
X186370332Y-98181574D01*
X186423099Y-98054182D01*
X186450000Y-97918944D01*
X186450000Y-97781056D01*
X186423099Y-97645818D01*
X186370332Y-97518426D01*
X186293726Y-97403776D01*
X186196224Y-97306274D01*
X186081574Y-97229668D01*
X185954182Y-97176901D01*
X185818944Y-97150000D01*
X185681056Y-97150000D01*
X185545818Y-97176901D01*
X185418426Y-97229668D01*
X185303776Y-97306274D01*
X185206274Y-97403776D01*
X185192093Y-97425000D01*
X185170866Y-97425000D01*
X185149999Y-97422945D01*
X185129132Y-97425000D01*
X185129126Y-97425000D01*
X185075098Y-97430321D01*
X185066685Y-97431150D01*
X185042383Y-97438522D01*
X184986573Y-97455452D01*
X184912740Y-97494916D01*
X184848026Y-97548026D01*
X184834721Y-97564238D01*
X184478083Y-97920876D01*
X184473099Y-97895818D01*
X184420332Y-97768426D01*
X184343726Y-97653776D01*
X184246224Y-97556274D01*
X184131574Y-97479668D01*
X184004182Y-97426901D01*
X183868944Y-97400000D01*
X183731056Y-97400000D01*
X183595818Y-97426901D01*
X183468426Y-97479668D01*
X183353776Y-97556274D01*
X183256274Y-97653776D01*
X183208677Y-97725010D01*
X180176030Y-97725010D01*
X180406021Y-97495020D01*
X180431056Y-97500000D01*
X180568944Y-97500000D01*
X180704182Y-97473099D01*
X180831574Y-97420332D01*
X180946224Y-97343726D01*
X181043726Y-97246224D01*
X181120332Y-97131574D01*
X181173099Y-97004182D01*
X181200000Y-96868944D01*
X181200000Y-96731056D01*
X181173099Y-96595818D01*
X181120332Y-96468426D01*
X181043726Y-96353776D01*
X181014950Y-96325000D01*
X185735050Y-96325000D01*
X185753776Y-96343726D01*
X185868426Y-96420332D01*
X185995818Y-96473099D01*
X186131056Y-96500000D01*
X186268944Y-96500000D01*
X186404182Y-96473099D01*
X186531574Y-96420332D01*
X186646224Y-96343726D01*
X186743726Y-96246224D01*
X186820332Y-96131574D01*
X186873099Y-96004182D01*
X186900000Y-95868944D01*
X186900000Y-95731056D01*
X186873099Y-95595818D01*
X186820332Y-95468426D01*
X186743726Y-95353776D01*
X186646224Y-95256274D01*
X186531574Y-95179668D01*
X186409948Y-95129290D01*
X186431574Y-95120332D01*
X186546224Y-95043726D01*
X186643726Y-94946224D01*
X186720332Y-94831574D01*
X186773099Y-94704182D01*
X186800000Y-94568944D01*
X186800000Y-94431056D01*
X186773099Y-94295818D01*
X186720332Y-94168426D01*
X186643726Y-94053776D01*
X186546224Y-93956274D01*
X186431574Y-93879668D01*
X186304182Y-93826901D01*
X186168944Y-93800000D01*
X186031056Y-93800000D01*
X186006021Y-93804980D01*
X185073002Y-92871961D01*
X193700000Y-92871961D01*
X193700000Y-93128039D01*
X193749958Y-93379196D01*
X193847955Y-93615781D01*
X193990224Y-93828702D01*
X194171298Y-94009776D01*
X194384219Y-94152045D01*
X194620804Y-94250042D01*
X194871961Y-94300000D01*
X195128039Y-94300000D01*
X195379196Y-94250042D01*
X195615781Y-94152045D01*
X195828702Y-94009776D01*
X196009776Y-93828702D01*
X196152045Y-93615781D01*
X196250042Y-93379196D01*
X196300000Y-93128039D01*
X196300000Y-92871961D01*
X196250042Y-92620804D01*
X196152045Y-92384219D01*
X196009776Y-92171298D01*
X195828702Y-91990224D01*
X195615781Y-91847955D01*
X195379196Y-91749958D01*
X195128039Y-91700000D01*
X194871961Y-91700000D01*
X194620804Y-91749958D01*
X194384219Y-91847955D01*
X194171298Y-91990224D01*
X193990224Y-92171298D01*
X193847955Y-92384219D01*
X193749958Y-92620804D01*
X193700000Y-92871961D01*
X185073002Y-92871961D01*
X185015283Y-92814243D01*
X185001974Y-92798026D01*
X184937260Y-92744916D01*
X184863427Y-92705452D01*
X184783314Y-92681150D01*
X184720874Y-92675000D01*
X184720867Y-92675000D01*
X184700000Y-92672945D01*
X184679133Y-92675000D01*
X161823055Y-92675000D01*
X161820332Y-92668426D01*
X161743726Y-92553776D01*
X161646224Y-92456274D01*
X161531574Y-92379668D01*
X161404182Y-92326901D01*
X161268944Y-92300000D01*
X161131056Y-92300000D01*
X160995818Y-92326901D01*
X160868426Y-92379668D01*
X160753776Y-92456274D01*
X160656274Y-92553776D01*
X160579668Y-92668426D01*
X160526901Y-92795818D01*
X160500000Y-92931056D01*
X160500000Y-93068944D01*
X160526901Y-93204182D01*
X160579668Y-93331574D01*
X160656274Y-93446224D01*
X160753776Y-93543726D01*
X160868426Y-93620332D01*
X160995818Y-93673099D01*
X161131056Y-93700000D01*
X161268944Y-93700000D01*
X161404182Y-93673099D01*
X161531574Y-93620332D01*
X161646224Y-93543726D01*
X161664950Y-93525000D01*
X184523960Y-93525000D01*
X185404980Y-94406021D01*
X185400000Y-94431056D01*
X185400000Y-94568944D01*
X185426901Y-94704182D01*
X185479668Y-94831574D01*
X185556274Y-94946224D01*
X185653776Y-95043726D01*
X185768426Y-95120332D01*
X185890052Y-95170710D01*
X185868426Y-95179668D01*
X185753776Y-95256274D01*
X185656274Y-95353776D01*
X185579668Y-95468426D01*
X185576945Y-95475000D01*
X180170856Y-95475000D01*
X180149989Y-95472945D01*
X180129122Y-95475000D01*
X180129116Y-95475000D01*
X180075088Y-95480321D01*
X180066675Y-95481150D01*
X180042373Y-95488522D01*
X179986563Y-95505452D01*
X179912730Y-95544916D01*
X179848016Y-95598026D01*
X179834711Y-95614238D01*
X178623960Y-96824990D01*
X166534467Y-96824990D01*
X166513600Y-96822935D01*
X166492733Y-96824990D01*
X166492726Y-96824990D01*
X166437927Y-96830387D01*
X166430285Y-96831140D01*
X166350172Y-96855442D01*
X166324912Y-96868944D01*
X166276340Y-96894906D01*
X166211626Y-96948016D01*
X166198321Y-96964228D01*
X161014244Y-102148306D01*
X160998026Y-102161616D01*
X160944916Y-102226331D01*
X160905452Y-102300164D01*
X160891480Y-102346224D01*
X160881335Y-102379668D01*
X160881150Y-102380277D01*
X160875000Y-102442717D01*
X160875000Y-102442723D01*
X160872945Y-102463590D01*
X160875000Y-102484457D01*
X160875000Y-102742092D01*
X160853776Y-102756274D01*
X160756274Y-102853776D01*
X160679668Y-102968426D01*
X160626901Y-103095818D01*
X160600000Y-103231056D01*
X160600000Y-103368944D01*
X160626901Y-103504182D01*
X160679668Y-103631574D01*
X160756274Y-103746224D01*
X160853776Y-103843726D01*
X160968426Y-103920332D01*
X161095818Y-103973099D01*
X161231056Y-104000000D01*
X161368944Y-104000000D01*
X161504182Y-103973099D01*
X161631574Y-103920332D01*
X161746224Y-103843726D01*
X161775001Y-103814949D01*
X161775001Y-103842092D01*
X161753776Y-103856274D01*
X161656274Y-103953776D01*
X161579668Y-104068426D01*
X161526901Y-104195818D01*
X161500000Y-104331056D01*
X161500000Y-104468944D01*
X161526901Y-104604182D01*
X161579668Y-104731574D01*
X161656274Y-104846224D01*
X161753776Y-104943726D01*
X161868426Y-105020332D01*
X161995818Y-105073099D01*
X162131056Y-105100000D01*
X162268944Y-105100000D01*
X162404182Y-105073099D01*
X162500000Y-105033410D01*
X162500000Y-105068944D01*
X162526901Y-105204182D01*
X162579668Y-105331574D01*
X162656274Y-105446224D01*
X162753776Y-105543726D01*
X162868426Y-105620332D01*
X162995818Y-105673099D01*
X163131056Y-105700000D01*
X163268944Y-105700000D01*
X163404182Y-105673099D01*
X163531574Y-105620332D01*
X163646224Y-105543726D01*
X163743726Y-105446224D01*
X163820332Y-105331574D01*
X163873099Y-105204182D01*
X163900000Y-105068944D01*
X163900000Y-104931056D01*
X163873099Y-104795818D01*
X163820332Y-104668426D01*
X163743726Y-104553776D01*
X163646224Y-104456274D01*
X163625000Y-104442093D01*
X163625000Y-104214950D01*
X163653776Y-104243726D01*
X163768426Y-104320332D01*
X163895818Y-104373099D01*
X164031056Y-104400000D01*
X164168944Y-104400000D01*
X164304182Y-104373099D01*
X164431574Y-104320332D01*
X164546224Y-104243726D01*
X164643726Y-104146224D01*
X164720332Y-104031574D01*
X164773099Y-103904182D01*
X164800000Y-103768944D01*
X164800000Y-103631056D01*
X164795020Y-103606020D01*
X165305325Y-103095715D01*
X165326901Y-103204182D01*
X165379668Y-103331574D01*
X165456274Y-103446224D01*
X165553776Y-103543726D01*
X165668426Y-103620332D01*
X165795818Y-103673099D01*
X165904285Y-103694675D01*
X164793980Y-104804980D01*
X164768944Y-104800000D01*
X164631056Y-104800000D01*
X164495818Y-104826901D01*
X164368426Y-104879668D01*
X164253776Y-104956274D01*
X164156274Y-105053776D01*
X164079668Y-105168426D01*
X164026901Y-105295818D01*
X164000000Y-105431056D01*
X164000000Y-105568944D01*
X164026901Y-105704182D01*
X164079668Y-105831574D01*
X164156274Y-105946224D01*
X164253776Y-106043726D01*
X164300551Y-106074980D01*
X142176021Y-106074980D01*
X141095020Y-104993980D01*
X141100000Y-104968944D01*
X141100000Y-104831056D01*
X141073099Y-104695818D01*
X141020332Y-104568426D01*
X140943726Y-104453776D01*
X140846224Y-104356274D01*
X140731574Y-104279668D01*
X140604182Y-104226901D01*
X140468944Y-104200000D01*
X140331056Y-104200000D01*
X140195818Y-104226901D01*
X140068426Y-104279668D01*
X139953776Y-104356274D01*
X139856274Y-104453776D01*
X139779668Y-104568426D01*
X139726901Y-104695818D01*
X139700000Y-104831056D01*
X139700000Y-104968944D01*
X139726901Y-105104182D01*
X139779668Y-105231574D01*
X139856274Y-105346224D01*
X139953776Y-105443726D01*
X140068426Y-105520332D01*
X140195818Y-105573099D01*
X140331056Y-105600000D01*
X140468944Y-105600000D01*
X140493980Y-105595020D01*
X141423949Y-106524990D01*
X136726031Y-106524990D01*
X136695020Y-106493979D01*
X136700000Y-106468944D01*
X136700000Y-106331056D01*
X136673099Y-106195818D01*
X136620332Y-106068426D01*
X136543726Y-105953776D01*
X136446224Y-105856274D01*
X136331574Y-105779668D01*
X136204182Y-105726901D01*
X136068944Y-105700000D01*
X135931056Y-105700000D01*
X135795818Y-105726901D01*
X135668426Y-105779668D01*
X135553776Y-105856274D01*
X135456274Y-105953776D01*
X135379668Y-106068426D01*
X135326901Y-106195818D01*
X135300000Y-106331056D01*
X133100000Y-106331056D01*
X133100000Y-102538199D01*
X145079590Y-102538199D01*
X145179181Y-102791762D01*
X145466472Y-102925154D01*
X145774265Y-102999934D01*
X146090735Y-103013230D01*
X146403716Y-102964531D01*
X146701184Y-102855708D01*
X146820819Y-102791762D01*
X146920410Y-102538199D01*
X146000000Y-101617789D01*
X145079590Y-102538199D01*
X133100000Y-102538199D01*
X133100000Y-101490735D01*
X144386770Y-101490735D01*
X144435469Y-101803716D01*
X144544292Y-102101184D01*
X144608238Y-102220819D01*
X144861801Y-102320410D01*
X145782211Y-101400000D01*
X146217789Y-101400000D01*
X147138199Y-102320410D01*
X147391762Y-102220819D01*
X147525154Y-101933528D01*
X147599934Y-101625735D01*
X147613230Y-101309265D01*
X147564531Y-100996284D01*
X147455708Y-100698816D01*
X147391762Y-100579181D01*
X147138199Y-100479590D01*
X146217789Y-101400000D01*
X145782211Y-101400000D01*
X144861801Y-100479590D01*
X144608238Y-100579181D01*
X144474846Y-100866472D01*
X144400066Y-101174265D01*
X144386770Y-101490735D01*
X133100000Y-101490735D01*
X133100000Y-100261801D01*
X145079590Y-100261801D01*
X146000000Y-101182211D01*
X146920410Y-100261801D01*
X146820819Y-100008238D01*
X146533528Y-99874846D01*
X146225735Y-99800066D01*
X145909265Y-99786770D01*
X145596284Y-99835469D01*
X145298816Y-99944292D01*
X145179181Y-100008238D01*
X145079590Y-100261801D01*
X133100000Y-100261801D01*
X133100000Y-98801040D01*
X134976041Y-96925000D01*
X153368931Y-96925000D01*
X153447955Y-97115781D01*
X153590224Y-97328702D01*
X153771298Y-97509776D01*
X153984219Y-97652045D01*
X154220804Y-97750042D01*
X154471961Y-97800000D01*
X154728039Y-97800000D01*
X154979196Y-97750042D01*
X155215781Y-97652045D01*
X155428702Y-97509776D01*
X155609776Y-97328702D01*
X155752045Y-97115781D01*
X155850042Y-96879196D01*
X155900000Y-96628039D01*
X155900000Y-96371961D01*
X155850042Y-96120804D01*
X155752045Y-95884219D01*
X155609776Y-95671298D01*
X155428702Y-95490224D01*
X155215781Y-95347955D01*
X154979196Y-95249958D01*
X154728039Y-95200000D01*
X154471961Y-95200000D01*
X154220804Y-95249958D01*
X153984219Y-95347955D01*
X153771298Y-95490224D01*
X153590224Y-95671298D01*
X153447955Y-95884219D01*
X153368931Y-96075000D01*
X134820866Y-96075000D01*
X134799999Y-96072945D01*
X134779132Y-96075000D01*
X134779126Y-96075000D01*
X134725098Y-96080321D01*
X134716685Y-96081150D01*
X134692383Y-96088522D01*
X134636573Y-96105452D01*
X134562740Y-96144916D01*
X134498026Y-96198026D01*
X134484721Y-96214238D01*
X133100000Y-97598959D01*
X133100000Y-94531056D01*
X162700000Y-94531056D01*
X162700000Y-94668944D01*
X162726901Y-94804182D01*
X162779668Y-94931574D01*
X162856274Y-95046224D01*
X162953776Y-95143726D01*
X163068426Y-95220332D01*
X163195818Y-95273099D01*
X163331056Y-95300000D01*
X163468944Y-95300000D01*
X163493980Y-95295020D01*
X164484721Y-96285762D01*
X164498026Y-96301974D01*
X164562740Y-96355084D01*
X164636573Y-96394548D01*
X164692383Y-96411478D01*
X164716685Y-96418850D01*
X164724327Y-96419603D01*
X164779126Y-96425000D01*
X164779133Y-96425000D01*
X164800000Y-96427055D01*
X164820867Y-96425000D01*
X170042093Y-96425000D01*
X170056274Y-96446224D01*
X170153776Y-96543726D01*
X170268426Y-96620332D01*
X170395818Y-96673099D01*
X170531056Y-96700000D01*
X170668944Y-96700000D01*
X170804182Y-96673099D01*
X170931574Y-96620332D01*
X171046224Y-96543726D01*
X171143726Y-96446224D01*
X171220332Y-96331574D01*
X171273099Y-96204182D01*
X171300000Y-96068944D01*
X171300000Y-95931056D01*
X171273099Y-95795818D01*
X171220332Y-95668426D01*
X171143726Y-95553776D01*
X171046224Y-95456274D01*
X170931574Y-95379668D01*
X170804182Y-95326901D01*
X170668944Y-95300000D01*
X170531056Y-95300000D01*
X170395818Y-95326901D01*
X170268426Y-95379668D01*
X170153776Y-95456274D01*
X170056274Y-95553776D01*
X170042093Y-95575000D01*
X164976041Y-95575000D01*
X164095020Y-94693980D01*
X164100000Y-94668944D01*
X164100000Y-94531056D01*
X164073099Y-94395818D01*
X164020332Y-94268426D01*
X163943726Y-94153776D01*
X163846224Y-94056274D01*
X163731574Y-93979668D01*
X163604182Y-93926901D01*
X163468944Y-93900000D01*
X163331056Y-93900000D01*
X163195818Y-93926901D01*
X163068426Y-93979668D01*
X162953776Y-94056274D01*
X162856274Y-94153776D01*
X162779668Y-94268426D01*
X162726901Y-94395818D01*
X162700000Y-94531056D01*
X133100000Y-94531056D01*
X133100000Y-93002811D01*
X133118391Y-92675318D01*
X133172862Y-92354728D01*
X133262889Y-92042239D01*
X133387332Y-91741804D01*
X133544632Y-91457192D01*
X133732811Y-91191980D01*
X133949502Y-90949502D01*
X134191980Y-90732811D01*
X134457192Y-90544632D01*
X134741804Y-90387332D01*
X134892288Y-90325000D01*
X194984103Y-90325000D01*
X195519275Y-90377474D01*
G36*
X155554000Y-125446000D02*
G01*
X155574000Y-125446000D01*
X155574000Y-125754000D01*
X155554000Y-125754000D01*
X155554000Y-125774000D01*
X155246000Y-125774000D01*
X155246000Y-125754000D01*
X155226000Y-125754000D01*
X155226000Y-125446000D01*
X155246000Y-125446000D01*
X155246000Y-125426000D01*
X155554000Y-125426000D01*
X155554000Y-125446000D01*
X155554000Y-125446000D01*
G37*
X155554000Y-125446000D02*
X155574000Y-125446000D01*
X155574000Y-125754000D01*
X155554000Y-125754000D01*
X155554000Y-125774000D01*
X155246000Y-125774000D01*
X155246000Y-125754000D01*
X155226000Y-125754000D01*
X155226000Y-125446000D01*
X155246000Y-125446000D01*
X155246000Y-125426000D01*
X155554000Y-125426000D01*
X155554000Y-125446000D01*
G36*
X146500000Y-109131056D02*
G01*
X146500000Y-109268944D01*
X146526901Y-109404182D01*
X146579668Y-109531574D01*
X146656274Y-109646224D01*
X146753776Y-109743726D01*
X146775001Y-109757908D01*
X146775000Y-111979133D01*
X146772945Y-112000000D01*
X146775000Y-112020867D01*
X146775000Y-112020873D01*
X146779191Y-112063427D01*
X146781150Y-112083314D01*
X146788522Y-112107616D01*
X146805452Y-112163426D01*
X146844916Y-112237259D01*
X146898026Y-112301974D01*
X146914243Y-112315283D01*
X148520876Y-113921917D01*
X148495818Y-113926901D01*
X148368426Y-113979668D01*
X148253776Y-114056274D01*
X148156274Y-114153776D01*
X148079668Y-114268426D01*
X148026901Y-114395818D01*
X148000000Y-114531056D01*
X148000000Y-114598959D01*
X147818205Y-114780755D01*
X147501683Y-114464233D01*
X147488374Y-114448016D01*
X147423660Y-114394906D01*
X147349827Y-114355442D01*
X147269714Y-114331140D01*
X147207274Y-114324990D01*
X147207267Y-114324990D01*
X147186400Y-114322935D01*
X147165533Y-114324990D01*
X141276050Y-114324990D01*
X146507453Y-109093588D01*
X146500000Y-109131056D01*
X146500000Y-109131056D01*
G37*
X146500000Y-109131056D02*
X146500000Y-109268944D01*
X146526901Y-109404182D01*
X146579668Y-109531574D01*
X146656274Y-109646224D01*
X146753776Y-109743726D01*
X146775001Y-109757908D01*
X146775000Y-111979133D01*
X146772945Y-112000000D01*
X146775000Y-112020867D01*
X146775000Y-112020873D01*
X146779191Y-112063427D01*
X146781150Y-112083314D01*
X146788522Y-112107616D01*
X146805452Y-112163426D01*
X146844916Y-112237259D01*
X146898026Y-112301974D01*
X146914243Y-112315283D01*
X148520876Y-113921917D01*
X148495818Y-113926901D01*
X148368426Y-113979668D01*
X148253776Y-114056274D01*
X148156274Y-114153776D01*
X148079668Y-114268426D01*
X148026901Y-114395818D01*
X148000000Y-114531056D01*
X148000000Y-114598959D01*
X147818205Y-114780755D01*
X147501683Y-114464233D01*
X147488374Y-114448016D01*
X147423660Y-114394906D01*
X147349827Y-114355442D01*
X147269714Y-114331140D01*
X147207274Y-114324990D01*
X147207267Y-114324990D01*
X147186400Y-114322935D01*
X147165533Y-114324990D01*
X141276050Y-114324990D01*
X146507453Y-109093588D01*
X146500000Y-109131056D01*
M02*
