G04 #@! TF.GenerationSoftware,KiCad,Pcbnew,5.1.2-f72e74a~84~ubuntu19.04.1*
G04 #@! TF.CreationDate,2019-06-02T16:59:08+01:00*
G04 #@! TF.ProjectId,Power Monitor MK3,506f7765-7220-44d6-9f6e-69746f72204d,rev?*
G04 #@! TF.SameCoordinates,Original*
G04 #@! TF.FileFunction,Profile,NP*
%FSLAX46Y46*%
G04 Gerber Fmt 4.6, Leading zero omitted, Abs format (unit mm)*
G04 Created by KiCad (PCBNEW 5.1.2-f72e74a~84~ubuntu19.04.1) date 2019-06-02 16:59:08*
%MOMM*%
%LPD*%
G04 APERTURE LIST*
%ADD10C,0.050000*%
G04 APERTURE END LIST*
D10*
X76000000Y-90000000D02*
X195000000Y-90000000D01*
X195000000Y-131000000D02*
X76000000Y-131000000D01*
X198000000Y-128000000D02*
G75*
G02X195000000Y-131000000I-3000000J0D01*
G01*
X195000000Y-90000000D02*
G75*
G02X198000000Y-93000000I0J-3000000D01*
G01*
X198000000Y-128000000D02*
X198000000Y-93000000D01*
X73000000Y-128000000D02*
X73000000Y-93000000D01*
X73000000Y-93000000D02*
G75*
G02X76000000Y-90000000I3000000J0D01*
G01*
X76000000Y-131000000D02*
G75*
G02X73000000Y-128000000I0J3000000D01*
G01*
X129500000Y-104000000D02*
X129500000Y-93500000D01*
X128500000Y-93500000D02*
X128500000Y-104000000D01*
X129000000Y-93000000D02*
G75*
G02X129500000Y-93500000I0J-500000D01*
G01*
X128500000Y-93500000D02*
G75*
G02X129000000Y-93000000I500000J0D01*
G01*
X129000000Y-104500000D02*
G75*
G02X128500000Y-104000000I0J500000D01*
G01*
X129500000Y-104000000D02*
G75*
G02X129000000Y-104500000I-500000J0D01*
G01*
X129500000Y-106500000D02*
X129500000Y-119500000D01*
X128500000Y-119500000D02*
X128500000Y-106500000D01*
X129000000Y-120000000D02*
G75*
G02X128500000Y-119500000I0J500000D01*
G01*
X129500000Y-119500000D02*
G75*
G02X129000000Y-120000000I-500000J0D01*
G01*
X129000000Y-106000000D02*
G75*
G02X129500000Y-106500000I0J-500000D01*
G01*
X128500000Y-106500000D02*
G75*
G02X129000000Y-106000000I500000J0D01*
G01*
X161228571Y-88266666D02*
X161704761Y-88266666D01*
X161133333Y-88552380D02*
X161466666Y-87552380D01*
X161800000Y-88552380D01*
X162133333Y-88552380D02*
X162133333Y-87552380D01*
X162704761Y-88552380D01*
X162704761Y-87552380D01*
X163038095Y-87552380D02*
X163609523Y-87552380D01*
X163323809Y-88552380D02*
X163323809Y-87552380D01*
X163942857Y-88028571D02*
X164276190Y-88028571D01*
X164419047Y-88552380D02*
X163942857Y-88552380D01*
X163942857Y-87552380D01*
X164419047Y-87552380D01*
X164847619Y-88552380D02*
X164847619Y-87552380D01*
X165419047Y-88552380D01*
X165419047Y-87552380D01*
X165895238Y-88552380D02*
X165895238Y-87552380D01*
X166466666Y-88552380D01*
X166466666Y-87552380D01*
X166895238Y-88266666D02*
X167371428Y-88266666D01*
X166800000Y-88552380D02*
X167133333Y-87552380D01*
X167466666Y-88552380D01*
M02*
