M48
; DRILL file {KiCad 5.1.2-f72e74a~84~ubuntu19.04.1} date Sun 02 Jun 2019 16:59:11 BST
; FORMAT={-:-/ absolute / inch / decimal}
; #@! TF.CreationDate,2019-06-02T16:59:11+01:00
; #@! TF.GenerationSoftware,Kicad,Pcbnew,5.1.2-f72e74a~84~ubuntu19.04.1
; #@! TF.FileFunction,Plated,1,2,PTH
FMAT,2
INCH
T1C0.0157
T2C0.0295
T3C0.0394
T4C0.0433
T5C0.0787
%
G90
G05
T1
X3.3465Y-3.7008
X3.3465Y-3.7795
X3.3465Y-3.8583
X3.3465Y-3.937
X3.3465Y-4.0157
X3.3465Y-4.0945
X3.3465Y-4.1732
X3.3465Y-4.252
X3.3465Y-4.3307
X3.3465Y-4.4094
X3.3465Y-4.4882
X3.3465Y-4.5669
X3.3465Y-4.6457
X3.3465Y-4.7244
X3.3465Y-4.8031
X3.3661Y-5.0984
X3.3858Y-3.622
X3.4252Y-4.8031
X3.4449Y-5.0984
X3.4646Y-3.622
X3.4961Y-4.9134
X3.4961Y-4.9724
X3.5039Y-4.8031
X3.5236Y-5.0984
X3.5433Y-3.622
X3.5827Y-4.8031
X3.6024Y-5.0984
X3.622Y-3.622
X3.6614Y-4.8031
X3.6811Y-5.0984
X3.7008Y-3.622
X3.7402Y-4.8031
X3.7598Y-5.0197
X3.7598Y-5.0984
X3.7795Y-3.622
X3.7795Y-3.7402
X3.7795Y-4.7638
X3.8189Y-3.937
X3.8189Y-4.6063
X3.8189Y-4.8425
X3.8386Y-5.0984
X3.8583Y-3.6614
X3.8583Y-3.7795
X3.8583Y-4.2913
X3.8583Y-4.685
X3.8976Y-3.8976
X3.8976Y-4.7638
X3.9173Y-5.0984
X3.937Y-3.622
X3.937Y-3.7402
X3.937Y-4.6063
X3.937Y-4.9606
X3.9764Y-4.0157
X3.9764Y-4.2126
X3.9764Y-4.2913
X3.9764Y-4.685
X3.9961Y-5.0984
X4.0157Y-3.6614
X4.0157Y-3.7795
X4.0157Y-4.5276
X4.0157Y-4.8819
X4.0551Y-4.3307
X4.0551Y-4.6063
X4.0551Y-4.9606
X4.0748Y-5.0984
X4.0945Y-3.622
X4.0945Y-3.7402
X4.0945Y-4.0157
X4.0945Y-4.8031
X4.1339Y-4.5276
X4.1339Y-4.8819
X4.1417Y-4.2717
X4.1535Y-5.0984
X4.1732Y-3.6614
X4.1732Y-3.7795
X4.2126Y-4.685
X4.2323Y-5.0984
X4.252Y-3.622
X4.252Y-3.7402
X4.252Y-3.937
X4.252Y-4.2874
X4.252Y-4.8819
X4.2913Y-3.8583
X4.2913Y-4.6063
X4.2913Y-4.9606
X4.311Y-5.0984
X4.3307Y-3.6614
X4.3307Y-3.7795
X4.3307Y-4.685
X4.3307Y-4.8031
X4.3661Y-4.1811
X4.3701Y-4.8819
X4.374Y-4.4016
X4.3898Y-5.0984
X4.4094Y-3.622
X4.4094Y-3.7402
X4.4508Y-4.0768
X4.4528Y-4.4606
X4.4685Y-5.0984
X4.4882Y-3.7795
X4.5472Y-5.0984
X4.5669Y-3.622
X4.5669Y-4.0157
X4.5669Y-4.1102
X4.5669Y-4.8425
X4.5748Y-4.185
X4.6102Y-4.3307
X4.626Y-5.0984
X4.6457Y-3.7795
X4.6688Y-4.5074
X4.685Y-3.937
X4.685Y-4.0157
X4.685Y-4.8425
X4.6865Y-4.7382
X4.7008Y-4.4567
X4.7047Y-5.0984
X4.7244Y-3.622
X4.7244Y-3.8583
X4.7244Y-4.2598
X4.7441Y-4.7441
X4.7598Y-4.3386
X4.7638Y-5.0
X4.7697Y-4.1181
X4.7835Y-4.2638
X4.7835Y-5.0984
X4.7913Y-4.4882
X4.7953Y-4.374
X4.8031Y-3.6614
X4.8031Y-3.8976
X4.8228Y-4.5709
X4.8268Y-4.1654
X4.8268Y-4.4094
X4.8425Y-4.9213
X4.8622Y-5.0984
X4.8819Y-4.1339
X4.8819Y-5.0
X4.9016Y-4.8819
X5.1811Y-4.6496
X5.2008Y-4.0906
X5.2756Y-3.622
X5.2756Y-5.0787
X5.315Y-5.0
X5.3543Y-3.8976
X5.3543Y-4.189
X5.3543Y-4.8031
X5.3543Y-5.0787
X5.3937Y-3.622
X5.3937Y-4.3701
X5.4685Y-4.5709
X5.5118Y-4.3701
X5.5118Y-5.0
X5.5276Y-4.1299
X5.563Y-4.5709
X5.5906Y-4.0157
X5.5906Y-4.2913
X5.6299Y-3.937
X5.6299Y-5.0
X5.6693Y-4.0551
X5.685Y-4.5669
X5.7087Y-3.6614
X5.7087Y-4.4488
X5.7205Y-4.248
X5.748Y-5.0
X5.7756Y-4.5669
X5.7953Y-4.2992
X5.8543Y-4.5118
X5.8661Y-4.1339
X5.8661Y-5.0
X5.8976Y-4.4567
X5.9055Y-4.3307
X5.9449Y-3.622
X5.9449Y-4.0551
X5.9843Y-4.1339
X5.9843Y-4.5039
X5.9843Y-4.9606
X6.0236Y-4.6063
X6.063Y-4.0551
X6.1024Y-4.1339
X6.1024Y-4.4685
X6.1417Y-3.9764
X6.1417Y-4.3701
X6.1417Y-4.7638
X6.1535Y-4.2835
X6.1811Y-4.0551
X6.1811Y-4.685
X6.189Y-4.2598
X6.2205Y-4.7638
X6.2598Y-4.685
X6.3465Y-3.6614
X6.3504Y-4.0669
X6.3622Y-4.2992
X6.378Y-3.7795
X6.378Y-3.8976
X6.3858Y-4.1102
X6.4252Y-4.1339
X6.4331Y-3.7244
X6.4606Y-4.0827
X6.4843Y-4.1535
X6.4961Y-3.8386
X6.4961Y-4.5276
X6.5354Y-4.0551
X6.5354Y-4.4094
X6.6142Y-3.7008
X6.626Y-4.3504
X6.6535Y-4.1339
X6.6535Y-4.5276
X6.7165Y-3.7795
X6.7717Y-4.5276
X6.811Y-3.7402
X6.811Y-4.1339
X6.811Y-4.3307
X6.8386Y-4.5118
X6.8425Y-4.4055
X6.8425Y-4.4528
X6.8504Y-3.8976
X6.874Y-3.9606
X6.874Y-4.0118
X6.874Y-4.063
X6.8819Y-4.2677
X7.0276Y-3.7008
X7.0276Y-3.7795
X7.0276Y-3.937
X7.0276Y-4.3386
X7.1063Y-3.811
X7.1063Y-4.1732
X7.1457Y-3.7402
X7.1457Y-3.9173
X7.2362Y-3.8622
X7.2441Y-4.0157
X7.313Y-3.8524
X7.3268Y-3.7205
X7.3268Y-4.1457
X7.3307Y-3.7717
X7.3543Y-4.8583
X7.378Y-4.1102
X7.3819Y-3.9567
X7.4213Y-3.8386
X7.4606Y-3.748
X7.4803Y-4.1732
X7.5197Y-3.748
X7.5591Y-4.2913
X7.5591Y-4.4488
X7.5591Y-4.6063
X7.5591Y-4.7638
X7.5984Y-4.9213
X7.6772Y-4.3701
X7.6772Y-4.5276
X7.6772Y-4.685
X7.6772Y-4.8425
X7.6772Y-5.0
T2
X6.7087Y-4.9606
X6.7874Y-4.9606
X6.8661Y-4.9606
X6.9449Y-4.9606
X7.0236Y-4.9606
X7.1024Y-4.9606
X6.1181Y-4.9449
X6.1969Y-4.9449
X6.2756Y-4.9449
X6.3543Y-4.9449
X6.4331Y-4.9449
X6.5118Y-4.9449
X6.4134Y-4.689
X6.4921Y-4.689
X6.5709Y-4.689
X6.6496Y-4.689
X6.7283Y-4.689
X6.8071Y-4.689
T3
X5.4488Y-4.8386
X7.6772Y-3.9764
X7.6772Y-3.8189
X5.5472Y-4.8386
X7.6772Y-4.1339
X5.6693Y-4.8386
X6.0866Y-3.7992
X7.0472Y-4.6244
X7.0472Y-4.7244
X5.748Y-3.9921
X7.6772Y-3.6614
X5.7677Y-4.8386
T4
X7.2047Y-4.252
X7.2047Y-4.4291
X7.4606Y-4.252
X7.4606Y-4.4291
X7.2047Y-4.6063
X7.2047Y-4.7835
X7.4606Y-4.6063
X7.4606Y-4.7835
T5
X3.0748Y-4.7402
X3.5669Y-4.4449
X3.0748Y-4.0984
X3.5669Y-3.8031
T0
M30
